rounded-black.ufo
<glyph name="exclam" format="2">
  <advance height="1920" width="740"/>
  <unicode hex="0021"/>
  <outline>
    <contour>
      <point x="385.0" y="-40.0" type="curve" smooth="yes"/>
      <point x="355.0" y="-40.0" type="line" smooth="yes"/>
      <point x="178.0" y="-40.0"/>
      <point x="75.0" y="63.0"/>
      <point x="75.0" y="210.0" type="curve" smooth="yes"/>
      <point x="75.0" y="250.0" type="line" smooth="yes"/>
      <point x="75.0" y="397.0"/>
      <point x="178.0" y="500.0"/>
      <point x="355.0" y="500.0" type="curve" smooth="yes"/>
      <point x="385.0" y="500.0" type="line" smooth="yes"/>
      <point x="562.0" y="500.0"/>
      <point x="665.0" y="397.0"/>
      <point x="665.0" y="250.0" type="curve" smooth="yes"/>
      <point x="665.0" y="210.0" type="line" smooth="yes"/>
      <point x="665.0" y="63.0"/>
      <point x="562.0" y="-40.0"/>
    </contour>
    <contour>
      <point x="65.0" y="1180.0" type="curve" smooth="yes"/>
      <point x="65.0" y="1210.0" type="line" smooth="yes"/>
      <point x="65.0" y="1367.0"/>
      <point x="198.0" y="1480.0"/>
      <point x="355.0" y="1480.0" type="curve" smooth="yes"/>
      <point x="385.0" y="1480.0" type="line" smooth="yes"/>
      <point x="542.0" y="1480.0"/>
      <point x="675.0" y="1367.0"/>
      <point x="675.0" y="1210.0" type="curve" smooth="yes"/>
      <point x="675.0" y="1180.0" type="line" smooth="yes"/>
      <point x="675.0" y="1073.0"/>
      <point x="658.217335668" y="995.54333917"/>
      <point x="604.0" y="860.0" type="curve" smooth="yes"/>
      <point x="525.0" y="660.0" type="line" smooth="yes"/>
      <point x="488.36208674" y="567.245789214"/>
      <point x="452.0" y="530.0"/>
      <point x="375.0" y="530.0" type="curve" smooth="yes"/>
      <point x="365.0" y="530.0" type="line" smooth="yes"/>
      <point x="288.0" y="530.0"/>
      <point x="251.63791326" y="567.245789214"/>
      <point x="215.0" y="660.0" type="curve" smooth="yes"/>
      <point x="136.0" y="860.0" type="line" smooth="yes"/>
      <point x="81.7826643319" y="995.54333917"/>
      <point x="65.0" y="1073.0"/>
    </contour>
  </outline>
</glyph>
<glyph name="numbersign" format="2">
  <advance height="1920" width="1610"/>
  <unicode hex="0023"/>
  <outline>
    <contour>
      <point x="160.0" y="690.0" type="curve" smooth="yes"/>
      <point x="1370.0" y="690.0" type="line" smooth="yes"/>
      <point x="1477.0" y="690.0"/>
      <point x="1560.0" y="647.0"/>
      <point x="1560.0" y="540.0" type="curve" smooth="yes"/>
      <point x="1560.0" y="530.0" type="line" smooth="yes"/>
      <point x="1560.0" y="423.0"/>
      <point x="1478.0" y="380.0"/>
      <point x="1370.0" y="380.0" type="curve" smooth="yes"/>
      <point x="160.0" y="380.0" type="line" smooth="yes"/>
      <point x="53.0" y="380.0"/>
      <point x="-30.0" y="423.0"/>
      <point x="-30.0" y="530.0" type="curve" smooth="yes"/>
      <point x="-30.0" y="540.0" type="line" smooth="yes"/>
      <point x="-30.0" y="647.0"/>
      <point x="53.0" y="690.0"/>
    </contour>
    <contour>
      <point x="240.0" y="1100.0" type="curve" smooth="yes"/>
      <point x="1450.0" y="1100.0" type="line" smooth="yes"/>
      <point x="1557.0" y="1100.0"/>
      <point x="1640.0" y="1057.0"/>
      <point x="1640.0" y="950.0" type="curve" smooth="yes"/>
      <point x="1640.0" y="940.0" type="line" smooth="yes"/>
      <point x="1640.0" y="833.0"/>
      <point x="1557.0" y="790.0"/>
      <point x="1450.0" y="790.0" type="curve" smooth="yes"/>
      <point x="240.0" y="790.0" type="line" smooth="yes"/>
      <point x="133.0" y="790.0"/>
      <point x="50.0" y="833.0"/>
      <point x="50.0" y="940.0" type="curve" smooth="yes"/>
      <point x="50.0" y="950.0" type="line" smooth="yes"/>
      <point x="50.0" y="1057.0"/>
      <point x="133.0" y="1100.0"/>
    </contour>
    <contour>
      <point x="1230.0" y="1430.0" type="curve" smooth="yes"/>
      <point x="1260.0" y="1430.0" type="line" smooth="yes"/>
      <point x="1420.0" y="1430.0"/>
      <point x="1445.1069655" y="1291.76301011"/>
      <point x="1421.0" y="1190.0" type="curve" smooth="yes"/>
      <point x="1177.0" y="160.0" type="line" smooth="yes"/>
      <point x="1152.8930345" y="58.2369898861"/>
      <point x="1090.0" y="-30.0"/>
      <point x="930.0" y="-30.0" type="curve" smooth="yes"/>
      <point x="900.0" y="-30.0" type="line" smooth="yes"/>
      <point x="740.0" y="-30.0"/>
      <point x="702.893034497" y="58.2369898861"/>
      <point x="727.0" y="160.0" type="curve" smooth="yes"/>
      <point x="971.0" y="1190.0" type="line" smooth="yes"/>
      <point x="995.106965503" y="1291.76301011"/>
      <point x="1070.0" y="1430.0"/>
    </contour>
    <contour>
      <point x="660.0" y="1430.0" type="curve" smooth="yes"/>
      <point x="690.0" y="1430.0" type="line" smooth="yes"/>
      <point x="847.0" y="1430.0"/>
      <point x="875.106965503" y="1291.76301011"/>
      <point x="851.0" y="1190.0" type="curve" smooth="yes"/>
      <point x="607.0" y="160.0" type="line" smooth="yes"/>
      <point x="582.893034497" y="58.2369898861"/>
      <point x="517.0" y="-30.0"/>
      <point x="360.0" y="-30.0" type="curve" smooth="yes"/>
      <point x="330.0" y="-30.0" type="line" smooth="yes"/>
      <point x="173.0" y="-30.0"/>
      <point x="132.893034497" y="58.2369898861"/>
      <point x="157.0" y="160.0" type="curve" smooth="yes"/>
      <point x="401.0" y="1190.0" type="line" smooth="yes"/>
      <point x="425.106965503" y="1291.76301011"/>
      <point x="503.0" y="1430.0"/>
    </contour>
  </outline>
</glyph>
<glyph name="dollar" format="2">
  <advance height="1920" width="1219"/>
  <unicode hex="0024"/>
  <outline>
    <contour>
      <point x="199.0" y="528.0" type="curve" smooth="yes"/>
      <point x="229.0" y="528.0" type="line" smooth="yes"/>
      <point x="331.7734375" y="528.0"/>
      <point x="389.0" y="467.0"/>
      <point x="389.0" y="400.0" type="curve" smooth="yes"/>
      <point x="389.0" y="390.0" type="line" smooth="yes"/>
      <point x="389.0" y="306.4140625"/>
      <point x="468.641601562" y="285.0"/>
      <point x="609.0" y="285.0" type="curve" smooth="yes"/>
      <point x="717.124023438" y="285.0"/>
      <point x="749.0" y="316.604492188"/>
      <point x="749.0" y="368.0" type="curve" smooth="yes"/>
      <point x="749.0" y="411.729492188"/>
      <point x="688.109375" y="435.2265625"/>
      <point x="587.0" y="464.35546875" type="curve" smooth="yes"/>
      <point x="290.890623337" y="549.662516416"/>
      <point x="69.0" y="614.966796875"/>
      <point x="69.0" y="973.0" type="curve" smooth="yes"/>
      <point x="69.0" y="1243.0"/>
      <point x="247.0" y="1435.0"/>
      <point x="609.0" y="1435.0" type="curve" smooth="yes"/>
      <point x="973.0" y="1435.0"/>
      <point x="1109.0" y="1236.0"/>
      <point x="1109.0" y="1061.0" type="curve" smooth="yes"/>
      <point x="1109.0" y="1051.0" type="line" smooth="yes"/>
      <point x="1109.0" y="964.0"/>
      <point x="1054.14453125" y="923.0"/>
      <point x="949.0" y="923.0" type="curve" smooth="yes"/>
      <point x="929.0" y="923.0" type="line" smooth="yes"/>
      <point x="823.85546875" y="923.0"/>
      <point x="759.0" y="964.0"/>
      <point x="759.0" y="1021.0" type="curve" smooth="yes"/>
      <point x="759.0" y="1031.0" type="line" smooth="yes"/>
      <point x="759.0" y="1076.0"/>
      <point x="714.0" y="1135.0"/>
      <point x="599.0" y="1135.0" type="curve" smooth="yes"/>
      <point x="527.0" y="1135.0"/>
      <point x="499.0" y="1083.0"/>
      <point x="499.0" y="1043.0" type="curve" smooth="yes"/>
      <point x="499.0" y="991.723632812"/>
      <point x="546.459238462" y="960.106307986"/>
      <point x="677.0" y="932.26171875" type="curve" smooth="yes"/>
      <point x="1037.10253906" y="855.451171875"/>
      <point x="1189.0" y="756.510742188"/>
      <point x="1189.0" y="428.0" type="curve" smooth="yes"/>
      <point x="1189.0" y="110.7265625"/>
      <point x="1018.34179688" y="-35.0"/>
      <point x="579.27734375" y="-35.0" type="curve" smooth="yes"/>
      <point x="190.790039062" y="-35.0"/>
      <point x="30.0" y="122.553710938"/>
      <point x="30.0" y="339.0" type="curve" smooth="yes"/>
      <point x="30.0" y="349.0" type="line" smooth="yes"/>
      <point x="30.0" y="436.0"/>
      <point x="86.296875" y="528.0"/>
    </contour>
    <contour>
      <point x="615.0" y="1590.0" type="curve" smooth="yes"/>
      <point x="625.0" y="1590.0" type="line" smooth="yes"/>
      <point x="642.0" y="1590.0"/>
      <point x="660.0" y="1577.0"/>
      <point x="660.0" y="1540.0" type="curve" smooth="yes"/>
      <point x="660.0" y="-140.0" type="line" smooth="yes"/>
      <point x="660.0" y="-177.0"/>
      <point x="642.0" y="-190.0"/>
      <point x="625.0" y="-190.0" type="curve" smooth="yes"/>
      <point x="615.0" y="-190.0" type="line" smooth="yes"/>
      <point x="598.0" y="-190.0"/>
      <point x="580.0" y="-177.0"/>
      <point x="580.0" y="-140.0" type="curve" smooth="yes"/>
      <point x="580.0" y="1540.0" type="line" smooth="yes"/>
      <point x="580.0" y="1577.0"/>
      <point x="598.0" y="1590.0"/>
    </contour>
  </outline>
</glyph>
<glyph name="ampersand" format="2">
  <advance height="1920" width="1701"/>
  <unicode hex="0026"/>
  <outline>
    <contour>
      <point x="1027.65039062" y="210.0" type="curve" smooth="yes"/>
      <point x="526.650390625" y="734.0" type="line" smooth="yes"/>
      <point x="375.589490126" y="891.995832058"/>
      <point x="338.650390625" y="1000.0"/>
      <point x="338.650390625" y="1113.0" type="curve" smooth="yes"/>
      <point x="338.650390625" y="1283.0"/>
      <point x="466.650390625" y="1435.0"/>
      <point x="873.650390625" y="1435.0" type="curve" smooth="yes"/>
      <point x="1210.65039062" y="1435.0"/>
      <point x="1408.65039062" y="1313.02636719"/>
      <point x="1408.65039062" y="1123.0" type="curve" smooth="yes"/>
      <point x="1408.65039062" y="875.0"/>
      <point x="1014.65039062" y="697.0"/>
      <point x="785.650390625" y="596.0" type="curve" smooth="yes"/>
      <point x="641.650390625" y="533.0"/>
      <point x="614.650390625" y="492.0"/>
      <point x="614.650390625" y="448.0" type="curve" smooth="yes"/>
      <point x="614.650390625" y="427.0"/>
      <point x="624.591796875" y="409.764648438"/>
      <point x="631.650390625" y="398.0" type="curve" smooth="yes"/>
      <point x="637.650390625" y="388.0" type="line" smooth="yes"/>
      <point x="648.415039062" y="370.05859375"/>
      <point x="680.650390625" y="355.0"/>
      <point x="715.650390625" y="355.0" type="curve" smooth="yes"/>
      <point x="867.650390625" y="355.0"/>
      <point x="1113.32226562" y="420.959960938"/>
      <point x="1199.65039062" y="499.0" type="curve" smooth="yes"/>
      <point x="1290.10742188" y="580.772460938"/>
      <point x="1361.65039062" y="648.0"/>
      <point x="1468.65039062" y="648.0" type="curve" smooth="yes"/>
      <point x="1473.65039062" y="648.0" type="line" smooth="yes"/>
      <point x="1590.65039062" y="648.0"/>
      <point x="1659.34745143" y="576.73531748"/>
      <point x="1599.65039062" y="487.0" type="curve" smooth="yes"/>
      <point x="1424.19105793" y="223.253364715"/>
      <point x="867.650390625" y="-35.0"/>
      <point x="559.650390625" y="-35.0" type="curve" smooth="yes"/>
      <point x="343.650390625" y="-35.0"/>
      <point x="215.822238464" y="24.9698650494"/>
      <point x="147.650390625" y="119.0" type="curve" smooth="yes"/>
      <point x="89.650390625" y="199.0" type="line" smooth="yes"/>
      <point x="33.0285143448" y="277.099139697"/>
      <point x="9.650390625" y="352.0"/>
      <point x="9.650390625" y="448.0" type="curve" smooth="yes"/>
      <point x="9.650390625" y="637.0"/>
      <point x="200.650390625" y="747.0"/>
      <point x="675.650390625" y="862.0" type="curve" smooth="yes"/>
      <point x="843.331054688" y="902.596679688"/>
      <point x="973.650390625" y="1032.0"/>
      <point x="973.650390625" y="1113.0" type="curve" smooth="yes"/>
      <point x="973.650390625" y="1133.0"/>
      <point x="950.650390625" y="1150.0"/>
      <point x="913.650390625" y="1150.0" type="curve" smooth="yes"/>
      <point x="876.650390625" y="1150.0"/>
      <point x="858.650390625" y="1132.0"/>
      <point x="858.650390625" y="1103.0" type="curve" smooth="yes"/>
      <point x="858.650390625" y="1054.0"/>
      <point x="928.415317378" y="962.818987446"/>
      <point x="1005.65039062" y="876.0" type="curve" smooth="yes"/>
      <point x="1553.65039062" y="260.0" type="line" smooth="yes"/>
      <point x="1660.59555379" y="139.784269141"/>
      <point x="1615.65039062" y="-30.0"/>
      <point x="1408.65039062" y="-30.0" type="curve" smooth="yes"/>
      <point x="1398.65039062" y="-30.0" type="line" smooth="yes"/>
      <point x="1221.65039062" y="-30.0"/>
      <point x="1142.37691322" y="90.0065911422"/>
    </contour>
  </outline>
</glyph>
<glyph name="quotesingle" format="2">
  <advance height="1920" width="610"/>
  <unicode hex="0027"/>
  <outline>
    <contour>
      <point x="310.0" y="800.0" type="curve" smooth="yes"/>
      <point x="290.0" y="800.0" type="line" smooth="yes"/>
      <point x="223.0" y="800.0"/>
      <point x="187.547305818" y="841.589475589"/>
      <point x="163.0" y="910.0" type="curve" smooth="yes"/>
      <point x="102.0" y="1080.0" type="line" smooth="yes"/>
      <point x="74.3031920354" y="1157.29341758"/>
      <point x="60.0" y="1223.0"/>
      <point x="60.0" y="1260.0" type="curve" smooth="yes"/>
      <point x="60.0" y="1270.0" type="line" smooth="yes"/>
      <point x="60.0" y="1347.0"/>
      <point x="113.0" y="1450.0"/>
      <point x="300.0" y="1450.0" type="curve" smooth="yes"/>
      <point x="310.0" y="1450.0" type="line" smooth="yes"/>
      <point x="507.0" y="1450.0"/>
      <point x="560.0" y="1347.0"/>
      <point x="560.0" y="1270.0" type="curve" smooth="yes"/>
      <point x="560.0" y="1260.0" type="line" smooth="yes"/>
      <point x="560.0" y="1223.0"/>
      <point x="538.091864224" y="1155.22966056"/>
      <point x="508.0" y="1080.0" type="curve" smooth="yes"/>
      <point x="437.0" y="910.0" type="line" smooth="yes"/>
      <point x="409.515470118" y="844.191970706"/>
      <point x="377.0" y="800.0"/>
    </contour>
  </outline>
</glyph>
<glyph name="parenleft" format="2">
  <advance height="2048" width="785"/>
  <unicode hex="0028"/>
  <outline>
    <contour>
      <point x="20.0" y="838.0" type="line" smooth="yes"/>
      <point x="20.0" y="1243.0"/>
      <point x="255.669921875" y="1483.81640625"/>
      <point x="589.315429688" y="1588.0" type="curve" smooth="yes"/>
      <point x="692.324458281" y="1620.16542869"/>
      <point x="780.0" y="1567.13964844"/>
      <point x="780.0" y="1490.0" type="curve" smooth="yes"/>
      <point x="780.0" y="1470.0" type="line" smooth="yes"/>
      <point x="780.0" y="1393.21679688"/>
      <point x="729.785674513" y="1364.88942527"/>
      <point x="640.721679688" y="1306.0" type="curve" smooth="yes"/>
      <point x="559.626953125" y="1252.37988281"/>
      <point x="495.0" y="1109.0"/>
      <point x="495.0" y="808.0" type="curve" smooth="yes"/>
      <point x="495.0" y="442.0" type="line" smooth="yes"/>
      <point x="495.0" y="141.0"/>
      <point x="579.626953125" y="-22.3798828125"/>
      <point x="660.721679688" y="-76.0" type="curve" smooth="yes"/>
      <point x="749.785674513" y="-134.88942527"/>
      <point x="780.0" y="-143.216796875"/>
      <point x="780.0" y="-220.0" type="curve" smooth="yes"/>
      <point x="780.0" y="-240.0" type="line" smooth="yes"/>
      <point x="780.0" y="-317.139648438"/>
      <point x="692.324458281" y="-370.165428685"/>
      <point x="589.315429688" y="-338.0" type="curve" smooth="yes"/>
      <point x="255.669921875" y="-233.81640625"/>
      <point x="20.0" y="7.0"/>
      <point x="20.0" y="412.0" type="curve" smooth="yes"/>
    </contour>
  </outline>
</glyph>
<glyph name="parenright" format="2">
  <advance height="2048" width="785"/>
  <unicode hex="0029"/>
  <outline>
    <contour>
      <point x="765.0" y="412.0" type="line" smooth="yes"/>
      <point x="765.0" y="7.0"/>
      <point x="529.330078125" y="-233.81640625"/>
      <point x="195.684570312" y="-338.0" type="curve" smooth="yes"/>
      <point x="92.67578125" y="-370.165039062"/>
      <point x="5.0" y="-317.139648438"/>
      <point x="5.0" y="-240.0" type="curve" smooth="yes"/>
      <point x="5.0" y="-220.0" type="line" smooth="yes"/>
      <point x="5.0" y="-143.216796875"/>
      <point x="55.2138671875" y="-114.889648438"/>
      <point x="144.278320312" y="-56.0" type="curve" smooth="yes"/>
      <point x="225.373046875" y="-2.3798828125"/>
      <point x="290.0" y="141.0"/>
      <point x="290.0" y="442.0" type="curve" smooth="yes"/>
      <point x="290.0" y="808.0" type="line" smooth="yes"/>
      <point x="290.0" y="1109.0"/>
      <point x="205.373046875" y="1272.37988281"/>
      <point x="124.278320312" y="1326.0" type="curve" smooth="yes"/>
      <point x="35.2138671875" y="1384.88964844"/>
      <point x="5.0" y="1393.21679688"/>
      <point x="5.0" y="1470.0" type="curve" smooth="yes"/>
      <point x="5.0" y="1490.0" type="line" smooth="yes"/>
      <point x="5.0" y="1567.13964844"/>
      <point x="92.67578125" y="1620.16503906"/>
      <point x="195.684570312" y="1588.0" type="curve" smooth="yes"/>
      <point x="529.330078125" y="1483.81640625"/>
      <point x="765.0" y="1243.0"/>
      <point x="765.0" y="838.0" type="curve" smooth="yes"/>
    </contour>
  </outline>
</glyph>
<glyph name="asterisk" format="2">
  <advance height="2048" width="1287"/>
  <unicode hex="002A"/>
  <outline>
    <contour>
      <point x="654.0" y="886.0" type="line"/>
      <point x="632.0" y="953.0" type="line"/>
      <point x="847.0" y="1164.0" type="line" smooth="yes"/>
      <point x="929.0" y="1244.0"/>
      <point x="950.0" y="1262.0"/>
      <point x="1014.0" y="1283.0" type="curve" smooth="yes"/>
      <point x="1018.0" y="1285.0" type="line" smooth="yes"/>
      <point x="1129.0" y="1321.0"/>
      <point x="1223.0" y="1237.0"/>
      <point x="1256.0" y="1135.0" type="curve" smooth="yes"/>
      <point x="1266.0" y="1106.0" type="line" smooth="yes"/>
      <point x="1299.0" y="1004.0"/>
      <point x="1272.0" y="881.0"/>
      <point x="1161.0" y="845.0" type="curve" smooth="yes"/>
      <point x="1156.0" y="844.0" type="line" smooth="yes"/>
      <point x="1092.0" y="823.0"/>
      <point x="1065.0" y="825.0"/>
      <point x="952.0" y="842.0" type="curve" smooth="yes"/>
    </contour>
    <contour>
      <point x="613.0" y="901.0" type="line"/>
      <point x="670.0" y="942.0" type="line"/>
      <point x="937.0" y="802.0" type="line" smooth="yes"/>
      <point x="1038.0" y="749.0"/>
      <point x="1063.0" y="735.0"/>
      <point x="1102.0" y="681.0" type="curve" smooth="yes"/>
      <point x="1105.0" y="677.0" type="line" smooth="yes"/>
      <point x="1174.0" y="582.0"/>
      <point x="1123.0" y="467.0"/>
      <point x="1036.0" y="404.0" type="curve" smooth="yes"/>
      <point x="1012.0" y="387.0" type="line" smooth="yes"/>
      <point x="925.0" y="324.0"/>
      <point x="800.0" y="310.0"/>
      <point x="731.0" y="405.0" type="curve" smooth="yes"/>
      <point x="728.0" y="409.0" type="line" smooth="yes"/>
      <point x="689.0" y="463.0"/>
      <point x="683.0" y="491.0"/>
      <point x="664.0" y="604.0" type="curve" smooth="yes"/>
    </contour>
    <contour>
      <point x="615.0" y="941.0" type="line"/>
      <point x="672.0" y="900.0" type="line"/>
      <point x="621.0" y="603.0" type="line" smooth="yes"/>
      <point x="602.0" y="490.0"/>
      <point x="596.0" y="462.0"/>
      <point x="557.0" y="408.0" type="curve" smooth="yes"/>
      <point x="554.0" y="404.0" type="line" smooth="yes"/>
      <point x="485.0" y="309.0"/>
      <point x="360.0" y="323.0"/>
      <point x="273.0" y="386.0" type="curve" smooth="yes"/>
      <point x="249.0" y="403.0" type="line" smooth="yes"/>
      <point x="162.0" y="466.0"/>
      <point x="111.0" y="581.0"/>
      <point x="180.0" y="676.0" type="curve" smooth="yes"/>
      <point x="183.0" y="680.0" type="line" smooth="yes"/>
      <point x="222.0" y="734.0"/>
      <point x="247.0" y="748.0"/>
      <point x="348.0" y="801.0" type="curve" smooth="yes"/>
    </contour>
    <contour>
      <point x="653.0" y="953.0" type="line"/>
      <point x="631.0" y="886.0" type="line"/>
      <point x="333.0" y="842.0" type="line" smooth="yes"/>
      <point x="220.0" y="825.0"/>
      <point x="193.0" y="823.0"/>
      <point x="129.0" y="844.0" type="curve" smooth="yes"/>
      <point x="124.0" y="845.0" type="line" smooth="yes"/>
      <point x="13.0" y="881.0"/>
      <point x="-14.0" y="1004.0"/>
      <point x="19.0" y="1106.0" type="curve" smooth="yes"/>
      <point x="29.0" y="1135.0" type="line" smooth="yes"/>
      <point x="62.0" y="1237.0"/>
      <point x="156.0" y="1321.0"/>
      <point x="267.0" y="1285.0" type="curve" smooth="yes"/>
      <point x="271.0" y="1283.0" type="line" smooth="yes"/>
      <point x="335.0" y="1262.0"/>
      <point x="356.0" y="1244.0"/>
      <point x="438.0" y="1164.0" type="curve" smooth="yes"/>
    </contour>
    <contour>
      <point x="678.0" y="920.0" type="line"/>
      <point x="608.0" y="920.0" type="line"/>
      <point x="474.0" y="1190.0" type="line" smooth="yes"/>
      <point x="423.0" y="1292.0"/>
      <point x="412.0" y="1318.0"/>
      <point x="412.0" y="1385.0" type="curve" smooth="yes"/>
      <point x="412.0" y="1390.0" type="line" smooth="yes"/>
      <point x="412.0" y="1507.0"/>
      <point x="521.0" y="1570.0"/>
      <point x="628.0" y="1570.0" type="curve" smooth="yes"/>
      <point x="658.0" y="1570.0" type="line" smooth="yes"/>
      <point x="765.0" y="1570.0"/>
      <point x="874.0" y="1507.0"/>
      <point x="874.0" y="1390.0" type="curve" smooth="yes"/>
      <point x="874.0" y="1385.0" type="line" smooth="yes"/>
      <point x="874.0" y="1318.0"/>
      <point x="863.0" y="1292.0"/>
      <point x="812.0" y="1190.0" type="curve" smooth="yes"/>
    </contour>
  </outline>
</glyph>
<glyph name="plus" format="2">
  <advance height="1920" width="1040"/>
  <unicode hex="002B"/>
  <outline>
    <contour>
      <point x="15.0" y="675.0" type="curve" smooth="yes"/>
      <point x="15.0" y="710.0" type="line" smooth="yes"/>
      <point x="15.0" y="817.0"/>
      <point x="98.0" y="870.0"/>
      <point x="205.0" y="870.0" type="curve" smooth="yes"/>
      <point x="835.0" y="870.0" type="line" smooth="yes"/>
      <point x="942.0" y="870.0"/>
      <point x="1025.0" y="817.0"/>
      <point x="1025.0" y="710.0" type="curve" smooth="yes"/>
      <point x="1025.0" y="675.0" type="line" smooth="yes"/>
      <point x="1025.0" y="568.0"/>
      <point x="942.0" y="515.0"/>
      <point x="835.0" y="515.0" type="curve" smooth="yes"/>
      <point x="205.0" y="515.0" type="line" smooth="yes"/>
      <point x="98.0" y="515.0"/>
      <point x="15.0" y="568.0"/>
    </contour>
    <contour>
      <point x="505.0" y="1220.0" type="curve" smooth="yes"/>
      <point x="535.0" y="1220.0" type="line" smooth="yes"/>
      <point x="642.0" y="1220.0"/>
      <point x="695.0" y="1137.0"/>
      <point x="695.0" y="1030.0" type="curve" smooth="yes"/>
      <point x="695.0" y="330.0" type="line" smooth="yes"/>
      <point x="695.0" y="223.0"/>
      <point x="642.0" y="140.0"/>
      <point x="535.0" y="140.0" type="curve" smooth="yes"/>
      <point x="505.0" y="140.0" type="line" smooth="yes"/>
      <point x="398.0" y="140.0"/>
      <point x="345.0" y="223.0"/>
      <point x="345.0" y="330.0" type="curve" smooth="yes"/>
      <point x="345.0" y="1030.0" type="line" smooth="yes"/>
      <point x="345.0" y="1137.0"/>
      <point x="398.0" y="1220.0"/>
    </contour>
  </outline>
</glyph>
<glyph name="comma" format="2">
  <advance height="1920" width="740"/>
  <unicode hex="002C"/>
  <outline>
    <contour>
      <point x="173.0" y="-310.0" type="curve" smooth="yes"/>
      <point x="165.0" y="-310.0" type="line" smooth="yes"/>
      <point x="128.0" y="-310.0"/>
      <point x="109.251024618" y="-270.383039049"/>
      <point x="155.0" y="-200.0" type="curve" smooth="yes"/>
      <point x="285.0" y="0.0" type="line"/>
      <point x="275.0" y="0.0" type="line" smooth="yes"/>
      <point x="166.479492188" y="0.0"/>
      <point x="75.0" y="101.404296875"/>
      <point x="75.0" y="210.0" type="curve" smooth="yes"/>
      <point x="75.0" y="250.0" type="line" smooth="yes"/>
      <point x="75.0" y="397.0"/>
      <point x="178.0" y="500.0"/>
      <point x="355.0" y="500.0" type="curve" smooth="yes"/>
      <point x="385.0" y="500.0" type="line" smooth="yes"/>
      <point x="562.0" y="500.0"/>
      <point x="665.0" y="397.0"/>
      <point x="665.0" y="250.0" type="curve" smooth="yes"/>
      <point x="665.0" y="220.0" type="line" smooth="yes"/>
      <point x="665.0" y="63.0"/>
      <point x="557.095637328" y="-38.0949333373"/>
      <point x="476.0" y="-100.0" type="curve" smooth="yes"/>
      <point x="306.0" y="-230.0" type="line" smooth="yes"/>
      <point x="239.93799681" y="-280.518002439"/>
      <point x="211.0" y="-310.0"/>
    </contour>
  </outline>
</glyph>
<glyph name="hyphen" format="2">
  <advance height="1920" width="570"/>
  <unicode hex="002D"/>
  <outline>
    <contour>
      <point x="10.0" y="595.0" type="curve" smooth="yes"/>
      <point x="10.0" y="630.0" type="line" smooth="yes"/>
      <point x="10.0" y="737.0"/>
      <point x="93.0" y="790.0"/>
      <point x="200.0" y="790.0" type="curve" smooth="yes"/>
      <point x="370.0" y="790.0" type="line" smooth="yes"/>
      <point x="477.0" y="790.0"/>
      <point x="560.0" y="737.0"/>
      <point x="560.0" y="630.0" type="curve" smooth="yes"/>
      <point x="560.0" y="595.0" type="line" smooth="yes"/>
      <point x="560.0" y="488.0"/>
      <point x="477.0" y="435.0"/>
      <point x="370.0" y="435.0" type="curve" smooth="yes"/>
      <point x="200.0" y="435.0" type="line" smooth="yes"/>
      <point x="93.0" y="435.0"/>
      <point x="10.0" y="488.0"/>
    </contour>
  </outline>
</glyph>
<glyph name="period" format="2">
  <advance height="1920" width="740"/>
  <unicode hex="002E"/>
  <outline>
    <contour>
      <point x="385.0" y="-40.0" type="curve" smooth="yes"/>
      <point x="355.0" y="-40.0" type="line" smooth="yes"/>
      <point x="188.0" y="-40.0"/>
      <point x="75.0" y="63.0"/>
      <point x="75.0" y="210.0" type="curve" smooth="yes"/>
      <point x="75.0" y="250.0" type="line" smooth="yes"/>
      <point x="75.0" y="397.0"/>
      <point x="188.0" y="500.0"/>
      <point x="355.0" y="500.0" type="curve" smooth="yes"/>
      <point x="385.0" y="500.0" type="line" smooth="yes"/>
      <point x="552.0" y="500.0"/>
      <point x="665.0" y="397.0"/>
      <point x="665.0" y="250.0" type="curve" smooth="yes"/>
      <point x="665.0" y="210.0" type="line" smooth="yes"/>
      <point x="665.0" y="63.0"/>
      <point x="552.0" y="-40.0"/>
    </contour>
  </outline>
</glyph>
<glyph name="slash" format="2">
  <advance height="2048" width="1040"/>
  <unicode hex="002F"/>
  <outline>
    <contour>
      <point x="913.0" y="1190.0" type="curve" smooth="yes"/>
      <point x="462.0" y="110.0" type="line" smooth="yes"/>
      <point x="405.105513595" y="-26.2440029211"/>
      <point x="332.0" y="-130.0"/>
      <point x="225.0" y="-130.0" type="curve" smooth="yes"/>
      <point x="215.0" y="-130.0" type="line" smooth="yes"/>
      <point x="108.0" y="-130.0"/>
      <point x="45.105513595" y="-26.2440029211"/>
      <point x="102.0" y="110.0" type="curve" smooth="yes"/>
      <point x="553.0" y="1190.0" type="line" smooth="yes"/>
      <point x="609.894486405" y="1326.24400292"/>
      <point x="684.0" y="1430.0"/>
      <point x="790.0" y="1430.0" type="curve" smooth="yes"/>
      <point x="800.0" y="1430.0" type="line" smooth="yes"/>
      <point x="907.0" y="1430.0"/>
      <point x="969.894486405" y="1326.24400292"/>
    </contour>
  </outline>
</glyph>
<glyph name="zero" format="2">
  <advance height="1920" width="1350"/>
  <unicode hex="0030"/>
  <outline>
    <contour>
      <point x="50.0" y="488.0" type="curve" smooth="yes"/>
      <point x="50.0" y="913.0" type="line" smooth="yes"/>
      <point x="50.0" y="1238.79492188"/>
      <point x="273.346679688" y="1435.0"/>
      <point x="675.0" y="1435.0" type="curve" smooth="yes"/>
      <point x="1076.65332031" y="1435.0"/>
      <point x="1300.0" y="1238.79492188"/>
      <point x="1300.0" y="913.0" type="curve" smooth="yes"/>
      <point x="1300.0" y="488.0" type="line" smooth="yes"/>
      <point x="1300.0" y="161.891601562"/>
      <point x="1076.37792969" y="-35.0"/>
      <point x="675.0" y="-35.0" type="curve" smooth="yes"/>
      <point x="273.622070312" y="-35.0"/>
      <point x="50.0" y="161.891601562"/>
    </contour>
    <contour>
      <point x="540.0" y="508.0" type="line" smooth="yes"/>
      <point x="540.0" y="359.787109375"/>
      <point x="571.172851562" y="305.0"/>
      <point x="675.0" y="305.0" type="curve" smooth="yes"/>
      <point x="778.827148438" y="305.0"/>
      <point x="810.0" y="359.787109375"/>
      <point x="810.0" y="508.0" type="curve" smooth="yes"/>
      <point x="810.0" y="893.0" type="line" smooth="yes"/>
      <point x="810.0" y="1040.875"/>
      <point x="779.051757812" y="1095.0"/>
      <point x="675.0" y="1095.0" type="curve" smooth="yes"/>
      <point x="570.948242188" y="1095.0"/>
      <point x="540.0" y="1040.875"/>
      <point x="540.0" y="893.0" type="curve" smooth="yes"/>
    </contour>
  </outline>
</glyph>
<glyph name="one" format="2">
  <advance height="1920" width="640"/>
  <unicode hex="0031"/>
  <outline>
    <contour>
      <point x="161.0" y="1323.24902344" type="curve" smooth="yes"/>
      <point x="218.521484375" y="1343.55859375"/>
      <point x="234.943359375" y="1352.71875"/>
      <point x="271.745117188" y="1396.0" type="curve" smooth="yes"/>
      <point x="310.3828125" y="1441.44042969"/>
      <point x="355.3984375" y="1450.0"/>
      <point x="402.0" y="1450.0" type="curve" smooth="yes"/>
      <point x="406.0" y="1450.0" type="line" smooth="yes"/>
      <point x="503.0" y="1450.0"/>
      <point x="565.0" y="1387.0"/>
      <point x="565.0" y="1250.0" type="curve" smooth="yes"/>
      <point x="565.0" y="230.0" type="line" smooth="yes"/>
      <point x="565.0" y="53.0"/>
      <point x="472.0" y="-30.0"/>
      <point x="325.0" y="-30.0" type="curve" smooth="yes"/>
      <point x="315.0" y="-30.0" type="line" smooth="yes"/>
      <point x="168.0" y="-30.0"/>
      <point x="75.0" y="53.0"/>
      <point x="75.0" y="230.0" type="curve" smooth="yes"/>
      <point x="75.0" y="1144.0" type="line" smooth="yes"/>
      <point x="75.0" y="1250.734375"/>
      <point x="106.552734375" y="1304.02539062"/>
    </contour>
  </outline>
</glyph>
<glyph name="two" format="2">
  <advance height="1920" width="1280"/>
  <unicode hex="0032"/>
  <outline>
    <contour>
      <point x="50.0" y="160.0" type="line" smooth="yes"/>
      <point x="50.0" y="574.034179688"/>
      <point x="735.0" y="715.631835938"/>
      <point x="735.0" y="993.0" type="curve" smooth="yes"/>
      <point x="735.0" y="998.0" type="line" smooth="yes"/>
      <point x="735.0" y="1058.0"/>
      <point x="688.0" y="1085.0"/>
      <point x="631.0" y="1085.0" type="curve" smooth="yes"/>
      <point x="561.0" y="1085.0"/>
      <point x="535.0" y="1044.57617188"/>
      <point x="535.0" y="1002.0" type="curve" smooth="yes"/>
      <point x="535.0" y="992.0" type="line" smooth="yes"/>
      <point x="535.0" y="885.0"/>
      <point x="457.0" y="822.0"/>
      <point x="310.0" y="822.0" type="curve" smooth="yes"/>
      <point x="300.0" y="822.0" type="line" smooth="yes"/>
      <point x="153.0" y="822.0"/>
      <point x="65.0" y="885.0"/>
      <point x="65.0" y="1032.0" type="curve" smooth="yes"/>
      <point x="65.0" y="1052.0" type="line" smooth="yes"/>
      <point x="65.0" y="1275.74121094"/>
      <point x="262.0" y="1435.0"/>
      <point x="659.0" y="1435.0" type="curve" smooth="yes"/>
      <point x="986.0" y="1435.0"/>
      <point x="1215.0" y="1303.0"/>
      <point x="1215.0" y="1043.0" type="curve" smooth="yes"/>
      <point x="1215.0" y="998.0" type="line" smooth="yes"/>
      <point x="1215.0" y="582.094726562"/>
      <point x="610.0" y="531.0"/>
      <point x="610.0" y="380.0" type="curve" smooth="yes"/>
      <point x="610.0" y="370.0" type="line"/>
      <point x="990.0" y="370.0" type="line" smooth="yes"/>
      <point x="1167.0" y="370.0"/>
      <point x="1250.0" y="337.0"/>
      <point x="1250.0" y="190.0" type="curve" smooth="yes"/>
      <point x="1250.0" y="180.0" type="line" smooth="yes"/>
      <point x="1250.0" y="33.0"/>
      <point x="1167.0" y="-2.16762483449e-14"/>
      <point x="990.0" y="0.0" type="curve" smooth="yes"/>
      <point x="230.0" y="0.0" type="line" smooth="yes"/>
      <point x="103.0" y="0.0"/>
      <point x="50.0" y="48.0"/>
      <point x="50.0" y="155.0" type="curve" smooth="yes"/>
    </contour>
  </outline>
</glyph>
<glyph name="three" format="2">
  <advance height="1920" width="1300"/>
  <unicode hex="0033"/>
  <outline>
    <contour>
      <point x="300.0" y="577.0" type="curve" smooth="yes"/>
      <point x="310.0" y="577.0" type="line" smooth="yes"/>
      <point x="457.0" y="577.0"/>
      <point x="520.0" y="504.0"/>
      <point x="520.0" y="407.0" type="curve" smooth="yes"/>
      <point x="520.0" y="397.0" type="line" smooth="yes"/>
      <point x="520.0" y="357.036132812"/>
      <point x="561.0" y="315.0"/>
      <point x="640.0" y="315.0" type="curve" smooth="yes"/>
      <point x="727.0" y="315.0"/>
      <point x="775.0" y="352.0"/>
      <point x="775.0" y="422.0" type="curve" smooth="yes"/>
      <point x="775.0" y="447.0" type="line" smooth="yes"/>
      <point x="775.0" y="517.0"/>
      <point x="726.918945312" y="560.0"/>
      <point x="630.0" y="560.0" type="curve" smooth="yes"/>
      <point x="610.0" y="560.0" type="line" smooth="yes"/>
      <point x="503.0" y="560.0"/>
      <point x="460.0" y="633.0"/>
      <point x="460.0" y="730.0" type="curve" smooth="yes"/>
      <point x="460.0" y="740.0" type="line" smooth="yes"/>
      <point x="460.0" y="837.0"/>
      <point x="502.0" y="910.0"/>
      <point x="609.0" y="910.0" type="curve" smooth="yes"/>
      <point x="610.0" y="910.0" type="line" smooth="yes"/>
      <point x="676.885742188" y="910.0"/>
      <point x="720.0" y="933.0"/>
      <point x="720.0" y="993.0" type="curve" smooth="yes"/>
      <point x="720.0" y="1008.0" type="line" smooth="yes"/>
      <point x="720.0" y="1048.0"/>
      <point x="696.0" y="1085.0"/>
      <point x="629.0" y="1085.0" type="curve" smooth="yes"/>
      <point x="569.0" y="1085.0"/>
      <point x="545.0" y="1064.81445312"/>
      <point x="545.0" y="1032.0" type="curve" smooth="yes"/>
      <point x="545.0" y="1022.0" type="line" smooth="yes"/>
      <point x="545.0" y="935.0"/>
      <point x="467.0" y="902.0"/>
      <point x="340.0" y="902.0" type="curve" smooth="yes"/>
      <point x="330.0" y="902.0" type="line" smooth="yes"/>
      <point x="163.0" y="902.0"/>
      <point x="75.0" y="965.0"/>
      <point x="75.0" y="1082.0" type="curve" smooth="yes"/>
      <point x="75.0" y="1102.0" type="line" smooth="yes"/>
      <point x="75.0" y="1266.0"/>
      <point x="297.0" y="1435.0"/>
      <point x="644.0" y="1435.0" type="curve" smooth="yes"/>
      <point x="991.0" y="1435.0"/>
      <point x="1215.0" y="1313.0"/>
      <point x="1215.0" y="1083.0" type="curve" smooth="yes"/>
      <point x="1215.0" y="1058.0" type="line" smooth="yes"/>
      <point x="1215.0" y="808.0"/>
      <point x="967.0" y="720.0"/>
      <point x="710.0" y="720.0" type="curve"/>
      <point x="730.0" y="770.0" type="line"/>
      <point x="987.0" y="770.0"/>
      <point x="1265.0" y="672.0"/>
      <point x="1265.0" y="422.0" type="curve" smooth="yes"/>
      <point x="1265.0" y="347.0" type="line" smooth="yes"/>
      <point x="1265.0" y="107.0"/>
      <point x="1027.0" y="-35.0"/>
      <point x="630.0" y="-35.0" type="curve" smooth="yes"/>
      <point x="278.0" y="-35.0"/>
      <point x="50.0" y="119.0"/>
      <point x="50.0" y="377.0" type="curve" smooth="yes"/>
      <point x="50.0" y="387.0" type="line" smooth="yes"/>
      <point x="50.0" y="494.0"/>
      <point x="113.0" y="577.0"/>
    </contour>
  </outline>
</glyph>
<glyph name="four" format="2">
  <advance height="1920" width="1310"/>
  <unicode hex="0034"/>
  <outline>
    <contour>
      <point x="1340.0" y="410.0" type="curve" smooth="yes"/>
      <point x="1340.0" y="400.0" type="line" smooth="yes"/>
      <point x="1340.0" y="283.0"/>
      <point x="1277.0" y="230.0"/>
      <point x="1140.0" y="230.0" type="curve" smooth="yes"/>
      <point x="1120.0" y="230.0" type="line"/>
      <point x="1120.0" y="200.0" type="line" smooth="yes"/>
      <point x="1120.0" y="63.0"/>
      <point x="1027.0" y="-30.0"/>
      <point x="880.0" y="-30.0" type="curve" smooth="yes"/>
      <point x="870.0" y="-30.0" type="line" smooth="yes"/>
      <point x="723.0" y="-30.0"/>
      <point x="630.0" y="63.0"/>
      <point x="630.0" y="200.0" type="curve" smooth="yes"/>
      <point x="630.0" y="230.0" type="line"/>
      <point x="250.0" y="230.0" type="line" smooth="yes"/>
      <point x="73.0" y="230.0"/>
      <point x="-10.0" y="343.0"/>
      <point x="-10.0" y="510.0" type="curve" smooth="yes"/>
      <point x="-10.0" y="512.0" type="line" smooth="yes"/>
      <point x="-10.0" y="649.0"/>
      <point x="34.8217231746" y="725.897629984"/>
      <point x="147.0" y="860.0" type="curve" smooth="yes"/>
      <point x="454.0" y="1227.0" type="line" smooth="yes"/>
      <point x="552.425167245" y="1345.2589541"/>
      <point x="662.5078125" y="1420.0"/>
      <point x="840.0" y="1420.0" type="curve" smooth="yes"/>
      <point x="850.0" y="1420.0" type="line" smooth="yes"/>
      <point x="1027.0" y="1420.0"/>
      <point x="1120.0" y="1287.0"/>
      <point x="1120.0" y="1140.0" type="curve" smooth="yes"/>
      <point x="1120.0" y="580.0" type="line"/>
      <point x="1140.0" y="580.0" type="line" smooth="yes"/>
      <point x="1277.0" y="580.0"/>
      <point x="1340.0" y="527.0"/>
    </contour>
    <contour>
      <point x="640.0" y="580.0" type="line"/>
      <point x="640.0" y="1000.83300781" type="line"/>
      <point x="305.0" y="580.0" type="line"/>
    </contour>
  </outline>
</glyph>
<glyph name="five" format="2">
  <advance height="1920" width="1300"/>
  <unicode hex="0035"/>
  <outline>
    <contour>
      <point x="305.0" y="448.0" type="curve" smooth="yes"/>
      <point x="310.0" y="448.0" type="line" smooth="yes"/>
      <point x="466.907226562" y="448.0"/>
      <point x="490.698242188" y="393.818359375"/>
      <point x="540.643554688" y="349.0" type="curve" smooth="yes"/>
      <point x="561.61328125" y="330.182617188"/>
      <point x="597.780273438" y="305.0"/>
      <point x="645.0" y="305.0" type="curve" smooth="yes"/>
      <point x="714.0" y="305.0"/>
      <point x="760.0" y="355.0"/>
      <point x="760.0" y="448.0" type="curve" smooth="yes"/>
      <point x="760.0" y="473.0" type="line" smooth="yes"/>
      <point x="760.0" y="573.0"/>
      <point x="729.0" y="605.0"/>
      <point x="665.0" y="605.0" type="curve" smooth="yes"/>
      <point x="613.91015625" y="605.0"/>
      <point x="577.573242188" y="555.986328125"/>
      <point x="566.0" y="542.57421875" type="curve" smooth="yes"/>
      <point x="534.946289062" y="506.584960938"/>
      <point x="491.759765625" y="473.0"/>
      <point x="365.0" y="473.0" type="curve" smooth="yes"/>
      <point x="275.0" y="473.0" type="line" smooth="yes"/>
      <point x="158.0" y="473.0"/>
      <point x="88.7966139205" y="567.630327634"/>
      <point x="110.0" y="743.0" type="curve" smooth="yes"/>
      <point x="158.0" y="1140.0" type="line" smooth="yes"/>
      <point x="178.886837038" y="1313.10757364"/>
      <point x="274.0" y="1400.0"/>
      <point x="451.0" y="1400.0" type="curve" smooth="yes"/>
      <point x="941.0" y="1400.0" type="line" smooth="yes"/>
      <point x="1138.0" y="1400.0"/>
      <point x="1211.0" y="1347.0"/>
      <point x="1211.0" y="1250.0" type="curve" smooth="yes"/>
      <point x="1211.0" y="1245.0" type="line" smooth="yes"/>
      <point x="1211.0" y="1125.0"/>
      <point x="1121.0" y="1050.0"/>
      <point x="921.0" y="1050.0" type="curve" smooth="yes"/>
      <point x="556.0" y="1050.0" type="line"/>
      <point x="492.328125" y="745.357421875" type="line"/>
      <point x="469.328125" y="745.357421875" type="line"/>
      <point x="523.97265625" y="868.810546875"/>
      <point x="699.609375" y="955.0"/>
      <point x="860.0" y="955.0" type="curve" smooth="yes"/>
      <point x="1100.0" y="955.0"/>
      <point x="1250.0" y="840.0"/>
      <point x="1250.0" y="513.0" type="curve" smooth="yes"/>
      <point x="1250.0" y="448.0" type="line" smooth="yes"/>
      <point x="1250.0" y="121.0"/>
      <point x="1045.0" y="-35.0"/>
      <point x="635.0" y="-35.0" type="curve" smooth="yes"/>
      <point x="301.010742188" y="-35.0"/>
      <point x="108.264648438" y="98.7353515625"/>
      <point x="90.5361328125" y="248.0" type="curve" smooth="yes"/>
      <point x="74.4317483261" y="383.590330263"/>
      <point x="167.916992188" y="448.0"/>
    </contour>
  </outline>
</glyph>
<glyph name="six" format="2">
  <advance height="1920" width="1429"/>
  <unicode hex="0036"/>
  <outline>
    <contour>
      <point x="730.0" y="640.0" type="curve" smooth="yes"/>
      <point x="620.0" y="640.0"/>
      <point x="560.0" y="585.0"/>
      <point x="560.0" y="502.0" type="curve" smooth="yes"/>
      <point x="560.0" y="442.0" type="line"/>
      <point x="470.0" y="522.0" type="line"/>
      <point x="470.0" y="786.0"/>
      <point x="603.0" y="890.0"/>
      <point x="900.0" y="890.0" type="curve" smooth="yes"/>
      <point x="1227.0" y="890.0"/>
      <point x="1369.0" y="731.0"/>
      <point x="1369.0" y="457.0" type="curve" smooth="yes"/>
      <point x="1369.0" y="407.0" type="line" smooth="yes"/>
      <point x="1369.0" y="129.0"/>
      <point x="1121.0" y="-35.0"/>
      <point x="729.0" y="-35.0" type="curve" smooth="yes"/>
      <point x="252.0" y="-35.0"/>
      <point x="75.0" y="167.0"/>
      <point x="75.0" y="527.0" type="curve" smooth="yes"/>
      <point x="75.0" y="843.0" type="line" smooth="yes"/>
      <point x="75.0" y="1223.0"/>
      <point x="293.0" y="1435.0"/>
      <point x="720.0" y="1435.0" type="curve" smooth="yes"/>
      <point x="1127.0" y="1435.0"/>
      <point x="1279.0" y="1267.83496094"/>
      <point x="1279.0" y="1124.0" type="curve" smooth="yes"/>
      <point x="1279.0" y="1122.0" type="line" smooth="yes"/>
      <point x="1279.0" y="995.0"/>
      <point x="1161.0" y="942.0"/>
      <point x="1064.0" y="942.0" type="curve" smooth="yes"/>
      <point x="1054.0" y="942.0" type="line" smooth="yes"/>
      <point x="907.0" y="942.0"/>
      <point x="839.0" y="985.0"/>
      <point x="839.0" y="1042.0" type="curve" smooth="yes"/>
      <point x="839.0" y="1044.0" type="line" smooth="yes"/>
      <point x="839.0" y="1076.91113281"/>
      <point x="810.0" y="1085.0"/>
      <point x="740.0" y="1085.0" type="curve" smooth="yes"/>
      <point x="613.0" y="1085.0"/>
      <point x="560.0" y="988.0"/>
      <point x="560.0" y="838.0" type="curve" smooth="yes"/>
      <point x="560.0" y="462.0" type="line" smooth="yes"/>
      <point x="560.0" y="372.0"/>
      <point x="612.0" y="315.0"/>
      <point x="719.0" y="315.0" type="curve" smooth="yes"/>
      <point x="838.0" y="315.0"/>
      <point x="879.0" y="377.0"/>
      <point x="879.0" y="457.0" type="curve" smooth="yes"/>
      <point x="879.0" y="477.0" type="line" smooth="yes"/>
      <point x="879.0" y="560.0"/>
      <point x="840.0" y="640.0"/>
    </contour>
  </outline>
</glyph>
<glyph name="seven" format="2">
  <advance height="1920" width="1195"/>
  <unicode hex="0037"/>
  <outline>
    <contour>
      <point x="1177.0" y="1060.0" type="curve" smooth="yes"/>
      <point x="939.0" y="330.0" type="line" smooth="yes"/>
      <point x="870.985001219" y="121.382566766"/>
      <point x="807.49609375" y="-30.0"/>
      <point x="610.0" y="-30.0" type="curve" smooth="yes"/>
      <point x="600.0" y="-30.0" type="line" smooth="yes"/>
      <point x="393.0" y="-30.0"/>
      <point x="309.87953049" y="166.796827841"/>
      <point x="414.0" y="350.0" type="curve" smooth="yes"/>
      <point x="755.0" y="950.0" type="line"/>
      <point x="345.0" y="950.0" type="line" smooth="yes"/>
      <point x="118.0" y="950.0"/>
      <point x="45.0" y="1023.0"/>
      <point x="45.0" y="1170.0" type="curve" smooth="yes"/>
      <point x="45.0" y="1180.0" type="line" smooth="yes"/>
      <point x="45.0" y="1327.0"/>
      <point x="118.0" y="1400.0"/>
      <point x="345.0" y="1400.0" type="curve" smooth="yes"/>
      <point x="905.0" y="1400.0" type="line" smooth="yes"/>
      <point x="1172.37207031" y="1400.0"/>
      <point x="1253.23571384" y="1293.83223152"/>
    </contour>
  </outline>
</glyph>
<glyph name="eight" format="2">
  <advance height="1920" width="1382"/>
  <unicode hex="0038"/>
  <outline>
    <contour>
      <point x="691.0" y="310.0" type="curve" smooth="yes"/>
      <point x="780.859375" y="310.0"/>
      <point x="827.0" y="356.100585938"/>
      <point x="827.0" y="432.0" type="curve" smooth="yes"/>
      <point x="827.0" y="437.0" type="line" smooth="yes"/>
      <point x="827.0" y="514.159179688"/>
      <point x="781.689453125" y="559.927734375"/>
      <point x="691.0" y="559.927734375" type="curve" smooth="yes"/>
      <point x="600.310546875" y="559.927734375"/>
      <point x="555.0" y="514.159179688"/>
      <point x="555.0" y="437.0" type="curve" smooth="yes"/>
      <point x="555.0" y="432.0" type="line" smooth="yes"/>
      <point x="555.0" y="356.100585938"/>
      <point x="601.140625" y="310.0"/>
    </contour>
    <contour>
      <point x="691.0" y="910.0" type="curve" smooth="yes"/>
      <point x="741.428710938" y="910.0"/>
      <point x="777.0" y="947.231445312"/>
      <point x="777.0" y="1003.0" type="curve" smooth="yes"/>
      <point x="777.0" y="1008.0" type="line" smooth="yes"/>
      <point x="777.0" y="1054.95996094"/>
      <point x="739.329101562" y="1090.0"/>
      <point x="691.0" y="1090.0" type="curve" smooth="yes"/>
      <point x="642.670898438" y="1090.0"/>
      <point x="605.0" y="1054.95996094"/>
      <point x="605.0" y="1008.0" type="curve" smooth="yes"/>
      <point x="605.0" y="1003.0" type="line" smooth="yes"/>
      <point x="605.0" y="947.231445312"/>
      <point x="640.571289062" y="910.0"/>
    </contour>
    <contour>
      <point x="722.0" y="760.0" type="line"/>
      <point x="1152.07519531" y="760.0"/>
      <point x="1317.0" y="623.61328125"/>
      <point x="1317.0" y="392.0" type="curve" smooth="yes"/>
      <point x="1317.0" y="347.0" type="line" smooth="yes"/>
      <point x="1317.0" y="99.75"/>
      <point x="1149.09082031" y="-35.0"/>
      <point x="691.0" y="-35.0" type="curve" smooth="yes"/>
      <point x="282.909179688" y="-35.0"/>
      <point x="65.0" y="99.75"/>
      <point x="65.0" y="347.0" type="curve" smooth="yes"/>
      <point x="65.0" y="392.0" type="line" smooth="yes"/>
      <point x="65.0" y="623.61328125"/>
      <point x="279.924804688" y="760.0"/>
      <point x="660.0" y="760.0" type="curve"/>
      <point x="662.0" y="720.282226562" type="line"/>
      <point x="295.81640625" y="725.765625"/>
      <point x="115.0" y="837.047851562"/>
      <point x="115.0" y="1058.0" type="curve" smooth="yes"/>
      <point x="115.0" y="1083.0" type="line" smooth="yes"/>
      <point x="115.0" y="1304.25878906"/>
      <point x="323.2265625" y="1435.0"/>
      <point x="691.0" y="1435.0" type="curve" smooth="yes"/>
      <point x="1108.7734375" y="1435.0"/>
      <point x="1267.0" y="1304.25878906"/>
      <point x="1267.0" y="1083.0" type="curve" smooth="yes"/>
      <point x="1267.0" y="1058.0" type="line" smooth="yes"/>
      <point x="1267.0" y="837.047851562"/>
      <point x="1136.18359375" y="725.765625"/>
      <point x="720.0" y="720.282226562" type="curve"/>
    </contour>
  </outline>
</glyph>
<glyph name="nine" format="2">
  <advance height="1920" width="1429"/>
  <unicode hex="0039"/>
  <outline>
    <contour>
      <point x="699.0" y="760.0" type="curve" smooth="yes"/>
      <point x="809.0" y="760.0"/>
      <point x="869.0" y="815.0"/>
      <point x="869.0" y="898.0" type="curve" smooth="yes"/>
      <point x="869.0" y="958.0" type="line"/>
      <point x="959.0" y="878.0" type="line"/>
      <point x="959.0" y="614.0"/>
      <point x="826.0" y="510.0"/>
      <point x="529.0" y="510.0" type="curve" smooth="yes"/>
      <point x="202.0" y="510.0"/>
      <point x="60.0" y="669.0"/>
      <point x="60.0" y="943.0" type="curve" smooth="yes"/>
      <point x="60.0" y="993.0" type="line" smooth="yes"/>
      <point x="60.0" y="1271.0"/>
      <point x="308.0" y="1435.0"/>
      <point x="700.0" y="1435.0" type="curve" smooth="yes"/>
      <point x="1177.0" y="1435.0"/>
      <point x="1354.0" y="1233.0"/>
      <point x="1354.0" y="873.0" type="curve" smooth="yes"/>
      <point x="1354.0" y="557.0" type="line" smooth="yes"/>
      <point x="1354.0" y="177.0"/>
      <point x="1116.0" y="-35.0"/>
      <point x="689.0" y="-35.0" type="curve" smooth="yes"/>
      <point x="202.0" y="-35.0"/>
      <point x="80.0" y="132.165039062"/>
      <point x="80.0" y="256.0" type="curve" smooth="yes"/>
      <point x="80.0" y="258.0" type="line" smooth="yes"/>
      <point x="80.0" y="385.0"/>
      <point x="158.0" y="458.0"/>
      <point x="315.0" y="458.0" type="curve" smooth="yes"/>
      <point x="325.0" y="458.0" type="line" smooth="yes"/>
      <point x="472.0" y="458.0"/>
      <point x="520.0" y="415.0"/>
      <point x="520.0" y="358.0" type="curve" smooth="yes"/>
      <point x="520.0" y="356.0" type="line" smooth="yes"/>
      <point x="520.0" y="323.088867188"/>
      <point x="589.0" y="315.0"/>
      <point x="659.0" y="315.0" type="curve" smooth="yes"/>
      <point x="786.0" y="315.0"/>
      <point x="869.0" y="412.0"/>
      <point x="869.0" y="562.0" type="curve" smooth="yes"/>
      <point x="869.0" y="938.0" type="line" smooth="yes"/>
      <point x="869.0" y="1028.0"/>
      <point x="817.0" y="1085.0"/>
      <point x="710.0" y="1085.0" type="curve" smooth="yes"/>
      <point x="591.0" y="1085.0"/>
      <point x="550.0" y="1023.0"/>
      <point x="550.0" y="943.0" type="curve" smooth="yes"/>
      <point x="550.0" y="923.0" type="line" smooth="yes"/>
      <point x="550.0" y="840.0"/>
      <point x="589.0" y="760.0"/>
    </contour>
  </outline>
</glyph>
<glyph name="less" format="2">
  <advance height="1920" width="1010"/>
  <unicode hex="003C"/>
  <outline>
    <contour>
      <point x="650.0" y="179.0" type="curve" smooth="yes"/>
      <point x="230.0" y="374.0" type="line" smooth="yes"/>
      <point x="98.8012629826" y="434.853882276"/>
      <point x="40.0" y="483.0"/>
      <point x="40.0" y="590.0" type="curve" smooth="yes"/>
      <point x="40.0" y="610.0" type="line" smooth="yes"/>
      <point x="40.0" y="717.0"/>
      <point x="98.8012629826" y="765.146117724"/>
      <point x="230.0" y="826.0" type="curve" smooth="yes"/>
      <point x="650.0" y="1021.0" type="line" smooth="yes"/>
      <point x="805.856104079" y="1093.36176261"/>
      <point x="890.0" y="997.0"/>
      <point x="890.0" y="890.0" type="curve" smooth="yes"/>
      <point x="890.0" y="880.0" type="line" smooth="yes"/>
      <point x="890.0" y="773.0"/>
      <point x="845.296424666" y="733.440720887"/>
      <point x="700.0" y="689.0" type="curve" smooth="yes"/>
      <point x="409.01953125" y="600.0" type="line"/>
      <point x="700.0" y="511.0" type="line" smooth="yes"/>
      <point x="845.296424666" y="466.559279113"/>
      <point x="890.0" y="427.0"/>
      <point x="890.0" y="320.0" type="curve" smooth="yes"/>
      <point x="890.0" y="310.0" type="line" smooth="yes"/>
      <point x="890.0" y="203.0"/>
      <point x="805.856104079" y="106.638237392"/>
    </contour>
  </outline>
</glyph>
<glyph name="equal" format="2">
  <advance height="1920" width="1180"/>
  <unicode hex="003D"/>
  <outline>
    <contour>
      <point x="120.0" y="245.0" type="curve" smooth="yes"/>
      <point x="120.0" y="280.0" type="line" smooth="yes"/>
      <point x="120.0" y="387.0"/>
      <point x="203.0" y="440.0"/>
      <point x="310.0" y="440.0" type="curve" smooth="yes"/>
      <point x="870.0" y="440.0" type="line" smooth="yes"/>
      <point x="977.0" y="440.0"/>
      <point x="1060.0" y="387.0"/>
      <point x="1060.0" y="280.0" type="curve" smooth="yes"/>
      <point x="1060.0" y="245.0" type="line" smooth="yes"/>
      <point x="1060.0" y="138.0"/>
      <point x="977.0" y="85.0"/>
      <point x="870.0" y="85.0" type="curve" smooth="yes"/>
      <point x="310.0" y="85.0" type="line" smooth="yes"/>
      <point x="203.0" y="85.0"/>
      <point x="120.0" y="138.0"/>
    </contour>
    <contour>
      <point x="120.0" y="715.0" type="curve" smooth="yes"/>
      <point x="120.0" y="750.0" type="line" smooth="yes"/>
      <point x="120.0" y="857.0"/>
      <point x="203.0" y="910.0"/>
      <point x="310.0" y="910.0" type="curve" smooth="yes"/>
      <point x="870.0" y="910.0" type="line" smooth="yes"/>
      <point x="977.0" y="910.0"/>
      <point x="1060.0" y="857.0"/>
      <point x="1060.0" y="750.0" type="curve" smooth="yes"/>
      <point x="1060.0" y="715.0" type="line" smooth="yes"/>
      <point x="1060.0" y="608.0"/>
      <point x="977.0" y="555.0"/>
      <point x="870.0" y="555.0" type="curve" smooth="yes"/>
      <point x="310.0" y="555.0" type="line" smooth="yes"/>
      <point x="203.0" y="555.0"/>
      <point x="120.0" y="608.0"/>
    </contour>
  </outline>
</glyph>
<glyph name="greater" format="2">
  <advance height="1920" width="1010"/>
  <unicode hex="003E"/>
  <outline>
    <contour>
      <point x="360.0" y="1021.0" type="curve" smooth="yes"/>
      <point x="780.0" y="826.0" type="line" smooth="yes"/>
      <point x="911.19921875" y="765.146484375"/>
      <point x="970.0" y="717.0"/>
      <point x="970.0" y="610.0" type="curve" smooth="yes"/>
      <point x="970.0" y="590.0" type="line" smooth="yes"/>
      <point x="970.0" y="483.0"/>
      <point x="911.19921875" y="434.853515625"/>
      <point x="780.0" y="374.0" type="curve" smooth="yes"/>
      <point x="360.0" y="179.0" type="line" smooth="yes"/>
      <point x="204.143554688" y="106.638671875"/>
      <point x="120.0" y="203.0"/>
      <point x="120.0" y="310.0" type="curve" smooth="yes"/>
      <point x="120.0" y="320.0" type="line" smooth="yes"/>
      <point x="120.0" y="427.0"/>
      <point x="164.703125" y="466.559570312"/>
      <point x="310.0" y="511.0" type="curve" smooth="yes"/>
      <point x="600.98046875" y="600.0" type="line"/>
      <point x="310.0" y="689.0" type="line" smooth="yes"/>
      <point x="164.703125" y="733.440429688"/>
      <point x="120.0" y="773.0"/>
      <point x="120.0" y="880.0" type="curve" smooth="yes"/>
      <point x="120.0" y="890.0" type="line" smooth="yes"/>
      <point x="120.0" y="997.0"/>
      <point x="204.143554688" y="1093.36132812"/>
    </contour>
  </outline>
</glyph>
<glyph name="question" format="2">
  <advance height="1920" width="1320"/>
  <unicode hex="003F"/>
  <outline>
    <contour>
      <point x="645.0" y="-40.0" type="curve" smooth="yes"/>
      <point x="615.0" y="-40.0" type="line" smooth="yes"/>
      <point x="438.0" y="-40.0"/>
      <point x="335.0" y="53.0"/>
      <point x="335.0" y="200.0" type="curve" smooth="yes"/>
      <point x="335.0" y="210.0" type="line" smooth="yes"/>
      <point x="335.0" y="357.0"/>
      <point x="438.0" y="450.0"/>
      <point x="615.0" y="450.0" type="curve" smooth="yes"/>
      <point x="645.0" y="450.0" type="line" smooth="yes"/>
      <point x="822.0" y="450.0"/>
      <point x="925.0" y="357.0"/>
      <point x="925.0" y="210.0" type="curve" smooth="yes"/>
      <point x="925.0" y="200.0" type="line" smooth="yes"/>
      <point x="925.0" y="53.0"/>
      <point x="822.0" y="-40.0"/>
    </contour>
    <contour>
      <point x="650.0" y="510.0" type="curve" smooth="yes"/>
      <point x="640.0" y="510.0" type="line" smooth="yes"/>
      <point x="532.912109375" y="510.0"/>
      <point x="442.299621171" y="560.99772753"/>
      <point x="483.740234375" y="689.0" type="curve" smooth="yes"/>
      <point x="524.424145367" y="814.66496143"/>
      <point x="725.0" y="868.14453125"/>
      <point x="725.0" y="1013.0" type="curve" smooth="yes"/>
      <point x="725.0" y="1028.0" type="line" smooth="yes"/>
      <point x="725.0" y="1108.0"/>
      <point x="696.0" y="1135.0"/>
      <point x="639.0" y="1135.0" type="curve" smooth="yes"/>
      <point x="579.0" y="1135.0"/>
      <point x="555.0" y="1074.77148438"/>
      <point x="555.0" y="1012.0" type="curve" smooth="yes"/>
      <point x="555.0" y="1010.0" type="line" smooth="yes"/>
      <point x="555.0" y="953.0"/>
      <point x="507.0" y="902.0"/>
      <point x="340.0" y="902.0" type="curve" smooth="yes"/>
      <point x="330.0" y="902.0" type="line" smooth="yes"/>
      <point x="163.0" y="902.0"/>
      <point x="75.0" y="965.0"/>
      <point x="75.0" y="1072.0" type="curve" smooth="yes"/>
      <point x="75.0" y="1082.0" type="line" smooth="yes"/>
      <point x="75.0" y="1276.0"/>
      <point x="262.0" y="1485.0"/>
      <point x="659.0" y="1485.0" type="curve" smooth="yes"/>
      <point x="1056.0" y="1485.0"/>
      <point x="1285.0" y="1323.0"/>
      <point x="1285.0" y="1103.0" type="curve" smooth="yes"/>
      <point x="1285.0" y="1078.0" type="line" smooth="yes"/>
      <point x="1285.0" y="754.727539062"/>
      <point x="952.382025452" y="751.932532486"/>
      <point x="847.556640625" y="632.0" type="curve" smooth="yes"/>
      <point x="765.077148438" y="537.633789062"/>
      <point x="716.930664062" y="510.0"/>
    </contour>
  </outline>
</glyph>
<glyph name="at" format="2">
  <advance height="1920" width="1990"/>
  <unicode hex="0040"/>
  <outline>
    <contour>
      <point x="1165.0" y="472.0" type="line"/>
      <point x="1165.0" y="182.0"/>
      <point x="1068.0" y="40.0"/>
      <point x="801.0" y="40.0" type="curve" smooth="yes"/>
      <point x="584.0" y="40.0"/>
      <point x="415.0" y="157.0"/>
      <point x="415.0" y="497.0" type="curve" smooth="yes"/>
      <point x="415.0" y="528.0" type="line" smooth="yes"/>
      <point x="415.0" y="848.0"/>
      <point x="594.0" y="985.0"/>
      <point x="831.0" y="985.0" type="curve" smooth="yes"/>
      <point x="1088.0" y="985.0"/>
      <point x="1225.0" y="843.0"/>
      <point x="1225.0" y="553.0" type="curve"/>
      <point x="1075.0" y="533.0" type="line"/>
      <point x="1075.0" y="633.0"/>
      <point x="1043.0" y="695.0"/>
      <point x="966.0" y="695.0" type="curve" smooth="yes"/>
      <point x="899.0" y="695.0"/>
      <point x="855.0" y="653.0"/>
      <point x="855.0" y="553.0" type="curve" smooth="yes"/>
      <point x="855.0" y="472.0" type="line" smooth="yes"/>
      <point x="855.0" y="372.0"/>
      <point x="899.0" y="330.0"/>
      <point x="966.0" y="330.0" type="curve" smooth="yes"/>
      <point x="1043.0" y="330.0"/>
      <point x="1075.0" y="392.0"/>
      <point x="1075.0" y="492.0" type="curve"/>
    </contour>
    <contour>
      <point x="1292.0" y="-284.827148438" type="curve" smooth="yes"/>
      <point x="1213.25585938" y="-328.194335938"/>
      <point x="1134.91626673" y="-360.0"/>
      <point x="985.0" y="-360.0" type="curve" smooth="yes"/>
      <point x="428.0" y="-360.0"/>
      <point x="100.0" y="13.0"/>
      <point x="100.0" y="493.0" type="curve" smooth="yes"/>
      <point x="100.0" y="583.0" type="line" smooth="yes"/>
      <point x="100.0" y="1093.0"/>
      <point x="488.0" y="1435.0"/>
      <point x="1025.0" y="1435.0" type="curve" smooth="yes"/>
      <point x="1632.0" y="1435.0"/>
      <point x="1890.0" y="1024.0"/>
      <point x="1890.0" y="633.0" type="curve" smooth="yes"/>
      <point x="1890.0" y="543.0" type="line" smooth="yes"/>
      <point x="1890.0" y="183.0"/>
      <point x="1717.0" y="40.0"/>
      <point x="1490.0" y="40.0" type="curve" smooth="yes"/>
      <point x="1283.0" y="40.0"/>
      <point x="1075.0" y="185.0"/>
      <point x="1075.0" y="405.0" type="curve" smooth="yes"/>
      <point x="1075.0" y="775.0" type="line"/>
      <point x="1232.0" y="905.0" type="line" smooth="yes"/>
      <point x="1297.43900904" y="959.185166723"/>
      <point x="1328.0" y="985.0"/>
      <point x="1395.0" y="985.0" type="curve" smooth="yes"/>
      <point x="1406.0" y="985.0" type="line" smooth="yes"/>
      <point x="1463.0" y="985.0"/>
      <point x="1515.0" y="952.0"/>
      <point x="1515.0" y="825.0" type="curve" smooth="yes"/>
      <point x="1515.0" y="535.0" type="line" smooth="yes"/>
      <point x="1515.0" y="340.000296147"/>
      <point x="1543.0" y="280.0"/>
      <point x="1610.0" y="280.0" type="curve" smooth="yes"/>
      <point x="1667.0" y="280.0"/>
      <point x="1710.0" y="343.0"/>
      <point x="1710.0" y="543.0" type="curve" smooth="yes"/>
      <point x="1710.0" y="633.0" type="line" smooth="yes"/>
      <point x="1710.0" y="973.0"/>
      <point x="1472.0" y="1295.0"/>
      <point x="1025.0" y="1295.0" type="curve" smooth="yes"/>
      <point x="618.0" y="1295.0"/>
      <point x="290.0" y="1013.0"/>
      <point x="290.0" y="593.0" type="curve" smooth="yes"/>
      <point x="290.0" y="483.0" type="line" smooth="yes"/>
      <point x="290.0" y="103.0"/>
      <point x="548.0" y="-220.0"/>
      <point x="985.0" y="-220.0" type="curve" smooth="yes"/>
      <point x="1087.12312814" y="-220.0"/>
      <point x="1172.51357297" y="-191.077452199"/>
      <point x="1237.0" y="-154.412109375" type="curve" smooth="yes"/>
      <point x="1292.15103318" y="-123.054634139"/>
      <point x="1329.55664062" y="-146.669921875"/>
      <point x="1338.0" y="-172.0" type="curve" smooth="yes"/>
      <point x="1340.0" y="-178.0" type="line" smooth="yes"/>
      <point x="1351.61650391" y="-212.849511719"/>
      <point x="1341.94801246" y="-257.31900873"/>
    </contour>
  </outline>
</glyph>
<glyph name="A" format="2">
  <advance height="1920" width="1445"/>
  <unicode hex="0041"/>
  <anchor x="662.741" y="0.0" name="bottom"/>
  <anchor x="1167.74" y="0.0" name="ogonek"/>
  <anchor x="711.741" y="1400.0" name="top"/>
  <outline>
    <contour>
      <point x="347.7421875" y="520.0" type="line"/>
      <point x="977.7421875" y="520.0" type="line"/>
      <point x="977.7421875" y="270.0" type="line"/>
      <point x="347.7421875" y="270.0" type="line"/>
    </contour>
    <contour>
      <point x="660.05078125" y="978.3828125" type="line"/>
      <point x="421.7421875" y="195.0" type="line" smooth="yes"/>
      <point x="375.094788426" y="41.657772145"/>
      <point x="302.079101562" y="-35.0"/>
      <point x="200.7421875" y="-35.0" type="curve" smooth="yes"/>
      <point x="170.7421875" y="-35.0" type="line" smooth="yes"/>
      <point x="64.537109375" y="-35.0"/>
      <point x="4.514244555" y="75.8849669531"/>
      <point x="45.7421875" y="195.0" type="curve" smooth="yes"/>
      <point x="390.7421875" y="1190.0" type="line" smooth="yes"/>
      <point x="431.90728514" y="1308.72252798"/>
      <point x="530.342773438" y="1400.0"/>
      <point x="667.7421875" y="1400.0" type="curve" smooth="yes"/>
      <point x="777.7421875" y="1400.0" type="line" smooth="yes"/>
      <point x="916.819335938" y="1400.0"/>
      <point x="1015.36812317" y="1306.77207268"/>
      <point x="1056.7421875" y="1190.0" type="curve" smooth="yes"/>
      <point x="1405.7421875" y="205.0" type="line" smooth="yes"/>
      <point x="1445.56485657" y="92.772478086"/>
      <point x="1385.38085938" y="-35.0"/>
      <point x="1242.7421875" y="-35.0" type="curve" smooth="yes"/>
      <point x="1192.7421875" y="-35.0" type="line" smooth="yes"/>
      <point x="1056.68945312" y="-35.0"/>
      <point x="948.624639154" y="84.567261571"/>
      <point x="909.7421875" y="205.0" type="curve" smooth="yes"/>
    </contour>
  </outline>
</glyph>
<glyph name="B" format="2">
  <advance height="1920" width="1380"/>
  <unicode hex="0042"/>
  <anchor x="675.0" y="0.0" name="bottom"/>
  <anchor x="644.0" y="1400.0" name="top"/>
  <outline>
    <contour>
      <point x="560.0" y="840.0" type="line"/>
      <point x="710.0" y="840.0" type="line" smooth="yes"/>
      <point x="786.808958218" y="840.0"/>
      <point x="815.0" y="888.0"/>
      <point x="815.0" y="938.0" type="curve" smooth="yes"/>
      <point x="815.0" y="953.0" type="line" smooth="yes"/>
      <point x="815.0" y="1003.0"/>
      <point x="786.993164062" y="1050.0"/>
      <point x="710.0" y="1050.0" type="curve" smooth="yes"/>
      <point x="560.0" y="1050.0" type="line"/>
    </contour>
    <contour>
      <point x="850.0" y="750.0" type="line"/>
      <point x="1107.0" y="750.0"/>
      <point x="1365.0" y="652.0"/>
      <point x="1365.0" y="402.0" type="curve" smooth="yes"/>
      <point x="1365.0" y="347.0" type="line" smooth="yes"/>
      <point x="1365.0" y="67.0"/>
      <point x="1106.99511719" y="0.0"/>
      <point x="850.0" y="0.0" type="curve" smooth="yes"/>
      <point x="330.0" y="0.0" type="line" smooth="yes"/>
      <point x="153.0" y="0.0"/>
      <point x="70.0" y="83.0"/>
      <point x="70.0" y="260.0" type="curve" smooth="yes"/>
      <point x="70.0" y="1140.0" type="line" smooth="yes"/>
      <point x="70.0" y="1317.0"/>
      <point x="153.0" y="1400.0"/>
      <point x="330.0" y="1400.0" type="curve" smooth="yes"/>
      <point x="830.0" y="1400.0" type="line" smooth="yes"/>
      <point x="1086.90527344" y="1400.0"/>
      <point x="1315.0" y="1313.0"/>
      <point x="1315.0" y="1063.0" type="curve" smooth="yes"/>
      <point x="1315.0" y="1038.0" type="line" smooth="yes"/>
      <point x="1315.0" y="788.0"/>
      <point x="1087.0" y="700.0"/>
      <point x="830.0" y="700.0" type="curve"/>
    </contour>
    <contour>
      <point x="750.0" y="590.0" type="curve" smooth="yes"/>
      <point x="560.0" y="590.0" type="line"/>
      <point x="560.0" y="350.0" type="line"/>
      <point x="750.0" y="350.0" type="line" smooth="yes"/>
      <point x="836.808276517" y="350.0"/>
      <point x="865.0" y="407.0"/>
      <point x="865.0" y="457.0" type="curve" smooth="yes"/>
      <point x="865.0" y="482.0" type="line" smooth="yes"/>
      <point x="865.0" y="532.0"/>
      <point x="836.913284355" y="590.0"/>
    </contour>
  </outline>
</glyph>
<glyph name="C" format="2">
  <advance height="1920" width="1440"/>
  <unicode hex="0043"/>
  <anchor x="735.0" y="0.0" name="bottom"/>
  <anchor x="754.0" y="1400.0" name="top"/>
  <outline>
    <contour>
      <point x="1381.0" y="428.0" type="curve" smooth="yes"/>
      <point x="1366.0" y="361.0"/>
      <point x="1340.0" y="293.0"/>
      <point x="1301.0" y="232.0" type="curve" smooth="yes"/>
      <point x="1204.0" y="81.0"/>
      <point x="1027.0" y="-35.0"/>
      <point x="745.0" y="-35.0" type="curve" smooth="yes"/>
      <point x="258.0" y="-35.0"/>
      <point x="50.0" y="238.0"/>
      <point x="50.0" y="618.0" type="curve" smooth="yes"/>
      <point x="50.0" y="783.0" type="line" smooth="yes"/>
      <point x="50.0" y="1163.0"/>
      <point x="258.0" y="1435.0"/>
      <point x="745.0" y="1435.0" type="curve" smooth="yes"/>
      <point x="1021.0" y="1435.0"/>
      <point x="1169.0" y="1339.0"/>
      <point x="1257.0" y="1222.0" type="curve" smooth="yes"/>
      <point x="1295.0" y="1171.0"/>
      <point x="1322.0" y="1116.0"/>
      <point x="1343.0" y="1063.0" type="curve" smooth="yes"/>
      <point x="1398.0" y="922.0"/>
      <point x="1317.0" y="843.0"/>
      <point x="1220.0" y="843.0" type="curve" smooth="yes"/>
      <point x="1170.0" y="843.0" type="line" smooth="yes"/>
      <point x="1083.0" y="843.0"/>
      <point x="1034.0" y="900.0"/>
      <point x="1008.0" y="963.0" type="curve" smooth="yes"/>
      <point x="976.0" y="1042.0"/>
      <point x="902.0" y="1095.0"/>
      <point x="795.0" y="1095.0" type="curve" smooth="yes"/>
      <point x="648.0" y="1095.0"/>
      <point x="550.0" y="1003.0"/>
      <point x="550.0" y="793.0" type="curve" smooth="yes"/>
      <point x="550.0" y="608.0" type="line" smooth="yes"/>
      <point x="550.0" y="388.0"/>
      <point x="638.0" y="305.0"/>
      <point x="805.0" y="305.0" type="curve" smooth="yes"/>
      <point x="942.0" y="305.0"/>
      <point x="986.0" y="344.0"/>
      <point x="1020.0" y="458.0" type="curve" smooth="yes"/>
      <point x="1039.0" y="523.0"/>
      <point x="1103.0" y="628.0"/>
      <point x="1210.0" y="628.0" type="curve" smooth="yes"/>
      <point x="1240.0" y="628.0" type="line" smooth="yes"/>
      <point x="1367.0" y="628.0"/>
      <point x="1404.0" y="535.0"/>
    </contour>
  </outline>
</glyph>
<glyph name="D" format="2">
  <advance height="1920" width="1430"/>
  <unicode hex="0044"/>
  <anchor x="625.0" y="0.0" name="bottom"/>
  <anchor x="654.0" y="1400.0" name="top"/>
  <outline>
    <contour>
      <point x="705.0" y="0.0" type="curve" smooth="yes"/>
      <point x="320.0" y="0.0" type="line" smooth="yes"/>
      <point x="143.0" y="0.0"/>
      <point x="70.0" y="93.0"/>
      <point x="70.0" y="260.0" type="curve" smooth="yes"/>
      <point x="70.0" y="1140.0" type="line" smooth="yes"/>
      <point x="70.0" y="1327.0"/>
      <point x="143.0" y="1400.0"/>
      <point x="320.0" y="1400.0" type="curve" smooth="yes"/>
      <point x="705.0" y="1400.0" type="line" smooth="yes"/>
      <point x="1118.99902344" y="1400.0"/>
      <point x="1380.0" y="1168.79492188"/>
      <point x="1380.0" y="783.0" type="curve" smooth="yes"/>
      <point x="1380.0" y="618.0" type="line" smooth="yes"/>
      <point x="1380.0" y="231.891601562"/>
      <point x="1159.19921875" y="0.0"/>
    </contour>
    <contour>
      <point x="665.0" y="350.0" type="line" smooth="yes"/>
      <point x="819.389648438" y="350.0"/>
      <point x="880.0" y="439.787109375"/>
      <point x="880.0" y="608.0" type="curve" smooth="yes"/>
      <point x="880.0" y="793.0" type="line" smooth="yes"/>
      <point x="880.0" y="960.875"/>
      <point x="819.00390625" y="1050.0"/>
      <point x="665.0" y="1050.0" type="curve" smooth="yes"/>
      <point x="560.0" y="1050.0" type="line"/>
      <point x="560.0" y="350.0" type="line"/>
    </contour>
  </outline>
</glyph>
<glyph name="E" format="2">
  <advance height="1920" width="1310"/>
  <unicode hex="0045"/>
  <anchor x="685.0" y="0.0" name="bottom"/>
  <anchor x="1040.0" y="0.0" name="ogonek"/>
  <anchor x="684.0" y="1400.0" name="top"/>
  <outline>
    <contour>
      <point x="560.0" y="840.0" type="line"/>
      <point x="850.0" y="840.0" type="line" smooth="yes"/>
      <point x="957.0" y="840.0"/>
      <point x="990.0" y="807.0"/>
      <point x="990.0" y="720.0" type="curve" smooth="yes"/>
      <point x="990.0" y="710.0" type="line" smooth="yes"/>
      <point x="990.0" y="623.0"/>
      <point x="957.0" y="590.0"/>
      <point x="850.0" y="590.0" type="curve" smooth="yes"/>
      <point x="560.0" y="590.0" type="line"/>
      <point x="560.0" y="350.0" type="line"/>
      <point x="1120.0" y="350.0" type="line" smooth="yes"/>
      <point x="1257.0" y="350.0"/>
      <point x="1310.0" y="277.0"/>
      <point x="1310.0" y="190.0" type="curve" smooth="yes"/>
      <point x="1310.0" y="160.0" type="line" smooth="yes"/>
      <point x="1310.0" y="73.0"/>
      <point x="1257.0" y="-1.67776611483e-14"/>
      <point x="1120.0" y="0.0" type="curve" smooth="yes"/>
      <point x="330.0" y="0.0" type="line" smooth="yes"/>
      <point x="153.0" y="0.0"/>
      <point x="70.0" y="83.0"/>
      <point x="70.0" y="260.0" type="curve" smooth="yes"/>
      <point x="70.0" y="1150.0" type="line" smooth="yes"/>
      <point x="70.0" y="1327.0"/>
      <point x="153.0" y="1400.0"/>
      <point x="330.0" y="1400.0" type="curve" smooth="yes"/>
      <point x="1100.0" y="1400.0" type="line" smooth="yes"/>
      <point x="1237.0" y="1400.0"/>
      <point x="1290.0" y="1327.0"/>
      <point x="1290.0" y="1240.0" type="curve" smooth="yes"/>
      <point x="1290.0" y="1210.0" type="line" smooth="yes"/>
      <point x="1290.0" y="1123.0"/>
      <point x="1236.99902344" y="1050.0"/>
      <point x="1100.0" y="1050.0" type="curve" smooth="yes"/>
      <point x="560.0" y="1050.0" type="line"/>
    </contour>
  </outline>
</glyph>
<glyph name="F" format="2">
  <advance height="1920" width="1220"/>
  <unicode hex="0046"/>
  <anchor x="645.0" y="0.0" name="bottom"/>
  <anchor x="644.0" y="1400.0" name="top"/>
  <outline>
    <contour>
      <point x="560.0" y="790.0" type="line"/>
      <point x="820.0" y="790.0" type="line" smooth="yes"/>
      <point x="938.518554688" y="790.0"/>
      <point x="1000.0" y="758.595703125"/>
      <point x="1000.0" y="670.0" type="curve" smooth="yes"/>
      <point x="1000.0" y="660.0" type="line" smooth="yes"/>
      <point x="1000.0" y="571.479492188"/>
      <point x="938.595703125" y="540.0"/>
      <point x="820.0" y="540.0" type="curve" smooth="yes"/>
      <point x="560.0" y="540.0" type="line"/>
      <point x="560.0" y="190.0" type="line" smooth="yes"/>
      <point x="560.0" y="31.4794921875"/>
      <point x="498.595703125" y="-30.0"/>
      <point x="340.0" y="-30.0" type="curve" smooth="yes"/>
      <point x="290.0" y="-30.0" type="line" smooth="yes"/>
      <point x="131.479492188" y="-30.0"/>
      <point x="70.0" y="31.404296875"/>
      <point x="70.0" y="190.0" type="curve" smooth="yes"/>
      <point x="70.0" y="1140.0" type="line" smooth="yes"/>
      <point x="70.0" y="1317.0"/>
      <point x="153.0" y="1400.0"/>
      <point x="330.0" y="1400.0" type="curve" smooth="yes"/>
      <point x="1060.0" y="1400.0" type="line" smooth="yes"/>
      <point x="1177.0" y="1400.0"/>
      <point x="1240.0" y="1317.0"/>
      <point x="1240.0" y="1230.0" type="curve" smooth="yes"/>
      <point x="1240.0" y="1220.0" type="line" smooth="yes"/>
      <point x="1240.0" y="1133.0"/>
      <point x="1176.99902344" y="1050.0"/>
      <point x="1060.0" y="1050.0" type="curve" smooth="yes"/>
      <point x="560.0" y="1050.0" type="line"/>
    </contour>
  </outline>
</glyph>
<glyph name="G" format="2">
  <advance height="1920" width="1485"/>
  <unicode hex="0047"/>
  <anchor x="745.0" y="0.0" name="bottom"/>
  <anchor x="744.0" y="1400.0" name="top"/>
  <outline>
    <contour>
      <point x="790.0" y="625.0" type="curve" smooth="yes"/>
      <point x="790.0" y="650.0" type="line" smooth="yes"/>
      <point x="790.0" y="727.0"/>
      <point x="843.0" y="760.0"/>
      <point x="980.0" y="760.0" type="curve" smooth="yes"/>
      <point x="1225.0" y="760.0" type="line" smooth="yes"/>
      <point x="1352.0" y="760.0"/>
      <point x="1420.0" y="687.0"/>
      <point x="1420.0" y="560.0" type="curve" smooth="yes"/>
      <point x="1420.0" y="130.0" type="line" smooth="yes"/>
      <point x="1420.0" y="13.0"/>
      <point x="1391.0" y="-30.0"/>
      <point x="1324.0" y="-30.0" type="curve" smooth="yes"/>
      <point x="1315.0" y="-30.0" type="line" smooth="yes"/>
      <point x="1248.0" y="-30.0"/>
      <point x="1206.0" y="20.0"/>
      <point x="1178.0" y="130.0" type="curve" smooth="yes"/>
      <point x="1130.0" y="320.0" type="line"/>
      <point x="1320.0" y="620.0" type="line"/>
      <point x="1300.0" y="230.0"/>
      <point x="1052.0" y="-35.0"/>
      <point x="725.0" y="-35.0" type="curve" smooth="yes"/>
      <point x="248.0" y="-35.0"/>
      <point x="50.0" y="238.0"/>
      <point x="50.0" y="618.0" type="curve" smooth="yes"/>
      <point x="50.0" y="783.0" type="line" smooth="yes"/>
      <point x="50.0" y="1163.0"/>
      <point x="258.0" y="1435.0"/>
      <point x="745.0" y="1435.0" type="curve" smooth="yes"/>
      <point x="1022.0" y="1435.0"/>
      <point x="1187.0" y="1325.0"/>
      <point x="1277.0" y="1198.0" type="curve" smooth="yes"/>
      <point x="1316.0" y="1143.0"/>
      <point x="1341.0" y="1086.0"/>
      <point x="1355.0" y="1033.0" type="curve" smooth="yes"/>
      <point x="1394.0" y="888.0"/>
      <point x="1307.0" y="823.0"/>
      <point x="1207.0" y="823.0" type="curve" smooth="yes"/>
      <point x="1187.0" y="823.0" type="line" smooth="yes"/>
      <point x="1091.0" y="823.0"/>
      <point x="1021.0" y="877.0"/>
      <point x="995.0" y="963.0" type="curve" smooth="yes"/>
      <point x="970.0" y="1044.0"/>
      <point x="922.0" y="1095.0"/>
      <point x="795.0" y="1095.0" type="curve" smooth="yes"/>
      <point x="648.0" y="1095.0"/>
      <point x="550.0" y="1003.0"/>
      <point x="550.0" y="793.0" type="curve" smooth="yes"/>
      <point x="550.0" y="608.0" type="line" smooth="yes"/>
      <point x="550.0" y="388.0"/>
      <point x="628.0" y="305.0"/>
      <point x="805.0" y="305.0" type="curve" smooth="yes"/>
      <point x="943.0" y="305.0"/>
      <point x="1035.0" y="413.0"/>
      <point x="1046.0" y="615.0" type="curve"/>
      <point x="1166.0" y="515.0" type="line"/>
      <point x="980.0" y="515.0" type="line" smooth="yes"/>
      <point x="843.0" y="515.0"/>
      <point x="790.0" y="548.0"/>
    </contour>
  </outline>
</glyph>
<glyph name="H" format="2">
  <advance height="1920" width="1420"/>
  <unicode hex="0048"/>
  <anchor x="705.0" y="0.0" name="bottom"/>
  <anchor x="704.0" y="1400.0" name="top"/>
  <outline>
    <contour>
      <point x="1100.0" y="1430.0" type="curve" smooth="yes"/>
      <point x="1110.0" y="1430.0" type="line" smooth="yes"/>
      <point x="1267.0" y="1430.0"/>
      <point x="1350.0" y="1337.0"/>
      <point x="1350.0" y="1170.0" type="curve" smooth="yes"/>
      <point x="1350.0" y="230.0" type="line" smooth="yes"/>
      <point x="1350.0" y="63.0"/>
      <point x="1267.0" y="-30.0"/>
      <point x="1110.0" y="-30.0" type="curve" smooth="yes"/>
      <point x="1100.0" y="-30.0" type="line" smooth="yes"/>
      <point x="943.0" y="-30.0"/>
      <point x="860.0" y="63.0"/>
      <point x="860.0" y="230.0" type="curve" smooth="yes"/>
      <point x="860.0" y="540.0" type="line"/>
      <point x="560.0" y="540.0" type="line"/>
      <point x="560.0" y="230.0" type="line" smooth="yes"/>
      <point x="560.0" y="63.0"/>
      <point x="477.0" y="-30.0"/>
      <point x="320.0" y="-30.0" type="curve" smooth="yes"/>
      <point x="310.0" y="-30.0" type="line" smooth="yes"/>
      <point x="153.0" y="-30.0"/>
      <point x="70.0" y="63.0"/>
      <point x="70.0" y="230.0" type="curve" smooth="yes"/>
      <point x="70.0" y="1170.0" type="line" smooth="yes"/>
      <point x="70.0" y="1337.0"/>
      <point x="153.0" y="1430.0"/>
      <point x="310.0" y="1430.0" type="curve" smooth="yes"/>
      <point x="320.0" y="1430.0" type="line" smooth="yes"/>
      <point x="477.0" y="1430.0"/>
      <point x="560.0" y="1337.0"/>
      <point x="560.0" y="1170.0" type="curve" smooth="yes"/>
      <point x="560.0" y="890.0" type="line"/>
      <point x="860.0" y="890.0" type="line"/>
      <point x="860.0" y="1170.0" type="line" smooth="yes"/>
      <point x="860.0" y="1337.0"/>
      <point x="943.0" y="1430.0"/>
    </contour>
  </outline>
</glyph>
<glyph name="I" format="2">
  <advance height="1920" width="630"/>
  <unicode hex="0049"/>
  <anchor x="320.0" y="0.0" name="bottom"/>
  <anchor x="320.0" y="0.0" name="ogonek"/>
  <anchor x="319.0" y="1400.0" name="top"/>
  <outline>
    <contour>
      <point x="310.0" y="1430.0" type="curve" smooth="yes"/>
      <point x="320.0" y="1430.0" type="line" smooth="yes"/>
      <point x="467.0" y="1430.0"/>
      <point x="560.0" y="1347.0"/>
      <point x="560.0" y="1170.0" type="curve" smooth="yes"/>
      <point x="560.0" y="230.0" type="line" smooth="yes"/>
      <point x="560.0" y="53.0"/>
      <point x="467.0" y="-30.0"/>
      <point x="320.0" y="-30.0" type="curve" smooth="yes"/>
      <point x="310.0" y="-30.0" type="line" smooth="yes"/>
      <point x="163.0" y="-30.0"/>
      <point x="70.0" y="53.0"/>
      <point x="70.0" y="230.0" type="curve" smooth="yes"/>
      <point x="70.0" y="1170.0" type="line" smooth="yes"/>
      <point x="70.0" y="1347.0"/>
      <point x="163.0" y="1430.0"/>
    </contour>
  </outline>
</glyph>
<glyph name="J" format="2">
  <advance height="1920" width="1240"/>
  <unicode hex="004A"/>
  <anchor x="577.0" y="0.0" name="bottom"/>
  <anchor x="976.0" y="1400.0" name="top"/>
  <outline>
    <contour>
      <point x="915.0" y="1430.0" type="curve" smooth="yes"/>
      <point x="925.0" y="1430.0" type="line" smooth="yes"/>
      <point x="1072.0" y="1430.0"/>
      <point x="1170.0" y="1347.0"/>
      <point x="1170.0" y="1170.0" type="curve" smooth="yes"/>
      <point x="1170.0" y="538.0" type="line" smooth="yes"/>
      <point x="1170.0" y="152.475585938"/>
      <point x="1020.64941406" y="-35.0"/>
      <point x="575.575195312" y="-35.0" type="curve" smooth="yes"/>
      <point x="179.5703125" y="-35.0"/>
      <point x="20.0" y="154.524414062"/>
      <point x="20.0" y="478.0" type="curve" smooth="yes"/>
      <point x="20.0" y="503.0" type="line" smooth="yes"/>
      <point x="20.0" y="620.0"/>
      <point x="93.0" y="693.0"/>
      <point x="200.0" y="693.0" type="curve" smooth="yes"/>
      <point x="210.0" y="693.0" type="line" smooth="yes"/>
      <point x="317.0" y="693.0"/>
      <point x="390.0" y="620.0"/>
      <point x="390.0" y="503.0" type="curve" smooth="yes"/>
      <point x="390.0" y="488.0" type="line" smooth="yes"/>
      <point x="390.0" y="376.828125"/>
      <point x="439.043945312" y="325.0"/>
      <point x="532.811523438" y="325.0" type="curve" smooth="yes"/>
      <point x="627.5859375" y="325.0"/>
      <point x="670.0" y="368.626953125"/>
      <point x="670.0" y="508.0" type="curve" smooth="yes"/>
      <point x="670.0" y="1170.0" type="line" smooth="yes"/>
      <point x="670.0" y="1347.0"/>
      <point x="768.0" y="1430.0"/>
    </contour>
  </outline>
</glyph>
<glyph name="K" format="2">
  <advance height="1920" width="1460"/>
  <unicode hex="004B"/>
  <anchor x="645.0" y="0.0" name="bottom"/>
  <anchor x="644.0" y="1400.0" name="top"/>
  <outline>
    <contour>
      <point x="310.0" y="1430.0" type="curve" smooth="yes"/>
      <point x="320.0" y="1430.0" type="line" smooth="yes"/>
      <point x="467.0" y="1430.0"/>
      <point x="560.0" y="1347.0"/>
      <point x="560.0" y="1170.0" type="curve" smooth="yes"/>
      <point x="560.0" y="230.0" type="line" smooth="yes"/>
      <point x="560.0" y="53.0"/>
      <point x="467.0" y="-30.0"/>
      <point x="320.0" y="-30.0" type="curve" smooth="yes"/>
      <point x="310.0" y="-30.0" type="line" smooth="yes"/>
      <point x="163.0" y="-30.0"/>
      <point x="70.0" y="53.0"/>
      <point x="70.0" y="230.0" type="curve" smooth="yes"/>
      <point x="70.0" y="1170.0" type="line" smooth="yes"/>
      <point x="70.0" y="1347.0"/>
      <point x="163.0" y="1430.0"/>
    </contour>
    <contour>
      <point x="550.0" y="710.0" type="line"/>
      <point x="890.0" y="960.0" type="line"/>
      <point x="1340.0" y="316.0" type="line" smooth="yes"/>
      <point x="1463.43529701" y="139.350374948"/>
      <point x="1337.0" y="-30.0"/>
      <point x="1180.0" y="-30.0" type="curve" smooth="yes"/>
      <point x="1170.0" y="-30.0" type="line" smooth="yes"/>
      <point x="1013.0" y="-30.0"/>
      <point x="920.512923367" y="63.4673820447"/>
      <point x="848.0" y="190.0" type="curve" smooth="yes"/>
    </contour>
    <contour>
      <point x="890.0" y="1270.0" type="line" smooth="yes"/>
      <point x="951.987748439" y="1341.37983154"/>
      <point x="1045.0" y="1430.0"/>
      <point x="1160.0" y="1430.0" type="curve" smooth="yes"/>
      <point x="1174.0" y="1430.0" type="line" smooth="yes"/>
      <point x="1337.0" y="1430.0"/>
      <point x="1381.02990192" y="1260.96707603"/>
      <point x="1256.0" y="1130.0" type="curve" smooth="yes"/>
      <point x="866.496" y="722.0" type="line"/>
      <point x="809.216" y="662.0" type="line"/>
      <point x="540.0" y="380.0" type="line"/>
      <point x="230.0" y="510.0" type="line"/>
    </contour>
  </outline>
</glyph>
<glyph name="L" format="2">
  <advance height="1920" width="1135"/>
  <unicode hex="004C"/>
  <anchor x="645.0" y="0.0" name="bottom"/>
  <anchor x="284.0" y="1400.0" name="top"/>
  <outline>
    <contour>
      <point x="310.0" y="1430.0" type="curve" smooth="yes"/>
      <point x="320.0" y="1430.0" type="line" smooth="yes"/>
      <point x="467.0" y="1430.0"/>
      <point x="560.0" y="1347.0"/>
      <point x="560.0" y="1160.0" type="curve" smooth="yes"/>
      <point x="560.0" y="350.0" type="line"/>
      <point x="900.0" y="350.0" type="line" smooth="yes"/>
      <point x="1077.0" y="350.0"/>
      <point x="1150.0" y="287.0"/>
      <point x="1150.0" y="180.0" type="curve" smooth="yes"/>
      <point x="1150.0" y="170.0" type="line" smooth="yes"/>
      <point x="1150.0" y="63.0"/>
      <point x="1077.0" y="-2.16762483449e-14"/>
      <point x="900.0" y="0.0" type="curve" smooth="yes"/>
      <point x="350.0" y="0.0" type="line" smooth="yes"/>
      <point x="163.0" y="0.0"/>
      <point x="70.0" y="93.0"/>
      <point x="70.0" y="280.0" type="curve" smooth="yes"/>
      <point x="70.0" y="1160.0" type="line" smooth="yes"/>
      <point x="70.0" y="1347.0"/>
      <point x="163.0" y="1430.0"/>
    </contour>
  </outline>
</glyph>
<glyph name="M" format="2">
  <advance height="1920" width="1840"/>
  <unicode hex="004D"/>
  <anchor x="865.0" y="0.0" name="bottom"/>
  <anchor x="864.0" y="1400.0" name="top"/>
  <outline>
    <contour>
      <point x="400.0" y="830.0" type="line"/>
      <point x="400.0" y="190.0" type="line" smooth="yes"/>
      <point x="400.0" y="43.0"/>
      <point x="327.0" y="-30.0"/>
      <point x="230.0" y="-30.0" type="curve" smooth="yes"/>
      <point x="220.0" y="-30.0" type="line" smooth="yes"/>
      <point x="123.0" y="-30.0"/>
      <point x="50.0" y="43.0"/>
      <point x="50.0" y="190.0" type="curve" smooth="yes"/>
      <point x="50.0" y="1150.0" type="line" smooth="yes"/>
      <point x="50.0" y="1317.0"/>
      <point x="153.0" y="1410.0"/>
      <point x="360.0" y="1410.0" type="curve" smooth="yes"/>
      <point x="380.0" y="1410.0" type="line" smooth="yes"/>
      <point x="597.0" y="1410.0"/>
      <point x="698.271429465" y="1328.25741488"/>
      <point x="754.0" y="1160.0" type="curve" smooth="yes"/>
      <point x="910.0" y="689.0" type="line"/>
      <point x="1079.0" y="1140.0" type="line" smooth="yes"/>
      <point x="1150.73074199" y="1331.4234594"/>
      <point x="1263.0" y="1415.0"/>
      <point x="1430.0" y="1415.0" type="curve" smooth="yes"/>
      <point x="1490.0" y="1415.0" type="line" smooth="yes"/>
      <point x="1677.0" y="1415.0"/>
      <point x="1770.0" y="1317.0"/>
      <point x="1770.0" y="1160.0" type="curve" smooth="yes"/>
      <point x="1770.0" y="230.0" type="line" smooth="yes"/>
      <point x="1770.0" y="63.0"/>
      <point x="1687.0" y="-30.0"/>
      <point x="1540.0" y="-30.0" type="curve" smooth="yes"/>
      <point x="1530.0" y="-30.0" type="line" smooth="yes"/>
      <point x="1383.0" y="-30.0"/>
      <point x="1300.0" y="63.0"/>
      <point x="1300.0" y="230.0" type="curve" smooth="yes"/>
      <point x="1300.0" y="830.0" type="line"/>
      <point x="1074.0" y="210.0" type="line" smooth="yes"/>
      <point x="1026.39943302" y="79.4143737614"/>
      <point x="979.0" y="9.0"/>
      <point x="862.0" y="9.0" type="curve" smooth="yes"/>
      <point x="860.0" y="9.0" type="line" smooth="yes"/>
      <point x="746.0" y="9.0"/>
      <point x="685.271224986" y="80.5586462243"/>
      <point x="636.0" y="210.0" type="curve" smooth="yes"/>
    </contour>
  </outline>
</glyph>
<glyph name="N" format="2">
  <advance height="1920" width="1380"/>
  <unicode hex="004E"/>
  <anchor x="685.0" y="0.0" name="bottom"/>
  <anchor x="694.0" y="1400.0" name="top"/>
  <outline>
    <contour>
      <point x="1140.0" y="1430.0" type="curve" smooth="yes"/>
      <point x="1150.0" y="1430.0" type="line" smooth="yes"/>
      <point x="1297.0" y="1430.0"/>
      <point x="1330.0" y="1347.0"/>
      <point x="1330.0" y="1190.0" type="curve" smooth="yes"/>
      <point x="1330.0" y="170.0" type="line" smooth="yes"/>
      <point x="1330.0" y="23.0"/>
      <point x="1257.0" y="-30.0"/>
      <point x="1135.0" y="-30.0" type="curve" smooth="yes"/>
      <point x="1031.0" y="-30.0" type="line" smooth="yes"/>
      <point x="894.0" y="-30.0"/>
      <point x="788.790225682" y="49.8047619053"/>
      <point x="733.0" y="180.0" type="curve" smooth="yes"/>
      <point x="400.0" y="957.434570312" type="line"/>
      <point x="420.0" y="957.434570312" type="line"/>
      <point x="420.0" y="230.0" type="line" smooth="yes"/>
      <point x="420.0" y="63.0"/>
      <point x="387.0" y="-30.0"/>
      <point x="240.0" y="-30.0" type="curve" smooth="yes"/>
      <point x="230.0" y="-30.0" type="line" smooth="yes"/>
      <point x="83.0" y="-30.0"/>
      <point x="50.0" y="63.0"/>
      <point x="50.0" y="230.0" type="curve" smooth="yes"/>
      <point x="50.0" y="1150.0" type="line" smooth="yes"/>
      <point x="50.0" y="1327.0"/>
      <point x="153.0" y="1420.0"/>
      <point x="310.0" y="1420.0" type="curve" smooth="yes"/>
      <point x="420.0" y="1420.0" type="line" smooth="yes"/>
      <point x="593.0" y="1420.0"/>
      <point x="710.540660412" y="1341.83505025"/>
      <point x="776.0" y="1160.0" type="curve" smooth="yes"/>
      <point x="980.0" y="593.87890625" type="line"/>
      <point x="960.0" y="593.87890625" type="line"/>
      <point x="960.0" y="1190.0" type="line" smooth="yes"/>
      <point x="960.0" y="1347.0"/>
      <point x="993.0" y="1430.0"/>
    </contour>
  </outline>
</glyph>
<glyph name="P" format="2">
  <advance height="1920" width="1330"/>
  <unicode hex="0050"/>
  <anchor x="275.0" y="0.0" name="bottom"/>
  <anchor x="624.0" y="1400.0" name="top"/>
  <outline>
    <contour>
      <point x="560.0" y="1050.0" type="line"/>
      <point x="560.0" y="750.0" type="line"/>
      <point x="670.0" y="750.0" type="line" smooth="yes"/>
      <point x="787.0" y="750.0"/>
      <point x="825.0" y="798.0"/>
      <point x="825.0" y="888.0" type="curve" smooth="yes"/>
      <point x="825.0" y="912.0" type="line" smooth="yes"/>
      <point x="825.0" y="1002.0"/>
      <point x="787.0" y="1050.0"/>
      <point x="670.0" y="1050.0" type="curve" smooth="yes"/>
    </contour>
    <contour>
      <point x="720.0" y="1400.0" type="line" smooth="yes"/>
      <point x="1106.87988281" y="1400.0"/>
      <point x="1275.0" y="1252.0"/>
      <point x="1275.0" y="982.0" type="curve" smooth="yes"/>
      <point x="1275.0" y="918.0" type="line" smooth="yes"/>
      <point x="1275.0" y="648.0"/>
      <point x="1107.0" y="500.0"/>
      <point x="720.0" y="500.0" type="curve" smooth="yes"/>
      <point x="560.0" y="500.0" type="line"/>
      <point x="560.0" y="230.0" type="line" smooth="yes"/>
      <point x="560.0" y="63.0"/>
      <point x="467.0" y="-30.0"/>
      <point x="320.0" y="-30.0" type="curve" smooth="yes"/>
      <point x="310.0" y="-30.0" type="line" smooth="yes"/>
      <point x="163.0" y="-30.0"/>
      <point x="70.0" y="63.0"/>
      <point x="70.0" y="230.0" type="curve" smooth="yes"/>
      <point x="70.0" y="1110.0" type="line" smooth="yes"/>
      <point x="70.0" y="1297.0"/>
      <point x="173.0" y="1400.0"/>
      <point x="360.0" y="1400.0" type="curve" smooth="yes"/>
    </contour>
  </outline>
</glyph>
<glyph name="Q" format="2">
  <advance height="1920" width="1660"/>
  <unicode hex="0051"/>
  <anchor x="765.0" y="0.0" name="bottom"/>
  <anchor x="764.0" y="1400.0" name="top"/>
  <outline>
    <contour>
      <point x="1675.0" y="216.0" type="curve" smooth="yes"/>
      <point x="1675.0" y="210.0" type="line" smooth="yes"/>
      <point x="1675.0" y="72.8271484375"/>
      <point x="1607.91624448" y="12.1442191428"/>
      <point x="1473.53417969" y="-3.0" type="curve" smooth="yes"/>
      <point x="1317.1824827" y="-20.6200921319"/>
      <point x="1160.0" y="92.7939453125"/>
      <point x="1160.0" y="358.0" type="curve"/>
      <point x="1270.0" y="588.0" type="line"/>
      <point x="1270.0" y="238.0"/>
      <point x="1222.0" y="-35.0"/>
      <point x="745.0" y="-35.0" type="curve" smooth="yes"/>
      <point x="268.0" y="-35.0"/>
      <point x="70.0" y="258.0"/>
      <point x="70.0" y="608.0" type="curve" smooth="yes"/>
      <point x="70.0" y="793.0" type="line" smooth="yes"/>
      <point x="70.0" y="1143.0"/>
      <point x="278.0" y="1435.0"/>
      <point x="765.0" y="1435.0" type="curve" smooth="yes"/>
      <point x="1252.0" y="1435.0"/>
      <point x="1460.0" y="1143.0"/>
      <point x="1460.0" y="793.0" type="curve" smooth="yes"/>
      <point x="1460.0" y="598.0" type="line" smooth="yes"/>
      <point x="1460.0" y="484.23828125"/>
      <point x="1502.45605469" y="450.012695312"/>
      <point x="1543.0" y="440.303710938" type="curve" smooth="yes"/>
      <point x="1644.77539062" y="415.931640625"/>
      <point x="1675.0" y="347.688476562"/>
    </contour>
    <contour>
      <point x="960.0" y="608.0" type="curve" smooth="yes"/>
      <point x="960.0" y="793.0" type="line" smooth="yes"/>
      <point x="960.0" y="963.0"/>
      <point x="922.0" y="1095.0"/>
      <point x="765.0" y="1095.0" type="curve" smooth="yes"/>
      <point x="608.0" y="1095.0"/>
      <point x="570.0" y="963.0"/>
      <point x="570.0" y="793.0" type="curve" smooth="yes"/>
      <point x="570.0" y="608.0" type="line" smooth="yes"/>
      <point x="570.0" y="428.0"/>
      <point x="608.0" y="305.0"/>
      <point x="765.0" y="305.0" type="curve" smooth="yes"/>
      <point x="922.0" y="305.0"/>
      <point x="960.0" y="428.0"/>
    </contour>
  </outline>
</glyph>
<glyph name="R" format="2">
  <advance height="1920" width="1410"/>
  <unicode hex="0052"/>
  <anchor x="675.0" y="0.0" name="bottom"/>
  <anchor x="674.0" y="1400.0" name="top"/>
  <outline>
    <contour>
      <point x="560.0" y="1050.0" type="line"/>
      <point x="560.0" y="740.0" type="line"/>
      <point x="660.0" y="740.0" type="line" smooth="yes"/>
      <point x="787.0" y="740.0"/>
      <point x="815.0" y="803.0"/>
      <point x="815.0" y="893.0" type="curve" smooth="yes"/>
      <point x="815.0" y="897.0" type="line" smooth="yes"/>
      <point x="815.0" y="977.0"/>
      <point x="787.0" y="1050.0"/>
      <point x="660.0" y="1050.0" type="curve" smooth="yes"/>
    </contour>
    <contour>
      <point x="760.0" y="1400.0" type="line" smooth="yes"/>
      <point x="1166.99707031" y="1400.0"/>
      <point x="1315.0" y="1212.0"/>
      <point x="1315.0" y="982.0" type="curve" smooth="yes"/>
      <point x="1315.0" y="958.0" type="line" smooth="yes"/>
      <point x="1315.0" y="718.0"/>
      <point x="1087.0" y="580.0"/>
      <point x="760.0" y="580.0" type="curve"/>
      <point x="760.0" y="640.0" type="line"/>
      <point x="1117.0" y="640.0"/>
      <point x="1325.0" y="612.0"/>
      <point x="1325.0" y="372.0" type="curve" smooth="yes"/>
      <point x="1325.0" y="358.0" type="line" smooth="yes"/>
      <point x="1325.0" y="304.202148438"/>
      <point x="1338.24511719" y="260.283203125"/>
      <point x="1348.37011719" y="228.0" type="curve" smooth="yes"/>
      <point x="1356.67871094" y="201.5078125"/>
      <point x="1373.0" y="155.665039062"/>
      <point x="1373.0" y="103.0" type="curve" smooth="yes"/>
      <point x="1373.0" y="98.0" type="line" smooth="yes"/>
      <point x="1373.0" y="12.0"/>
      <point x="1317.0" y="-30.0"/>
      <point x="1170.0" y="-30.0" type="curve" smooth="yes"/>
      <point x="1140.0" y="-30.0" type="line" smooth="yes"/>
      <point x="987.829101562" y="-30.0"/>
      <point x="885.456152221" y="0.812359970103"/>
      <point x="844.77734375" y="139.0" type="curve" smooth="yes"/>
      <point x="828.989250442" y="192.632823498"/>
      <point x="815.0" y="240.670898438"/>
      <point x="815.0" y="328.0" type="curve" smooth="yes"/>
      <point x="815.0" y="372.0" type="line" smooth="yes"/>
      <point x="815.0" y="452.0"/>
      <point x="787.0" y="490.0"/>
      <point x="680.0" y="490.0" type="curve" smooth="yes"/>
      <point x="560.0" y="490.0" type="line"/>
      <point x="560.0" y="240.0" type="line" smooth="yes"/>
      <point x="560.0" y="63.0"/>
      <point x="477.0" y="-30.0"/>
      <point x="320.0" y="-30.0" type="curve" smooth="yes"/>
      <point x="310.0" y="-30.0" type="line" smooth="yes"/>
      <point x="153.0" y="-30.0"/>
      <point x="70.0" y="63.0"/>
      <point x="70.0" y="240.0" type="curve" smooth="yes"/>
      <point x="70.0" y="1090.0" type="line" smooth="yes"/>
      <point x="70.0" y="1297.0"/>
      <point x="173.0" y="1400.0"/>
      <point x="380.0" y="1400.0" type="curve" smooth="yes"/>
    </contour>
  </outline>
</glyph>
<glyph name="S" format="2">
  <advance height="1920" width="1359"/>
  <unicode hex="0053"/>
  <anchor x="644.0" y="0.0" name="bottom"/>
  <anchor x="653.0" y="1400.0" name="top"/>
  <outline>
    <contour>
      <point x="199.0" y="528.0" type="curve" smooth="yes"/>
      <point x="209.0" y="528.0" type="line" smooth="yes"/>
      <point x="281.180371657" y="528.0"/>
      <point x="322.842773438" y="499.369140625"/>
      <point x="346.0" y="470.291992188" type="curve" smooth="yes"/>
      <point x="369.663085938" y="440.579101562"/>
      <point x="380.034179688" y="404.021484375"/>
      <point x="389.0" y="383.0" type="curve" smooth="yes"/>
      <point x="410.830662954" y="331.815286923"/>
      <point x="458.641601562" y="285.0"/>
      <point x="679.0" y="285.0" type="curve" smooth="yes"/>
      <point x="847.124023438" y="285.0"/>
      <point x="889.0" y="326.604492188"/>
      <point x="889.0" y="368.0" type="curve" smooth="yes"/>
      <point x="889.0" y="420.858417376"/>
      <point x="794.099119561" y="433.936066441"/>
      <point x="670.912497311" y="462.565103012" type="curve" smooth="yes"/>
      <point x="427.990446896" y="519.021105606"/>
      <point x="69.0" y="577.673832288"/>
      <point x="69.0" y="973.0" type="curve" smooth="yes"/>
      <point x="69.0" y="1243.0"/>
      <point x="267.0" y="1435.0"/>
      <point x="679.0" y="1435.0" type="curve" smooth="yes"/>
      <point x="1078.86489833" y="1435.0"/>
      <point x="1253.28460782" y="1249.34439935"/>
      <point x="1249.45019531" y="1079.0" type="curve" smooth="yes"/>
      <point x="1249.0" y="1059.0" type="line" smooth="yes"/>
      <point x="1247.49478976" y="992.130790406"/>
      <point x="1204.14453125" y="913.0"/>
      <point x="1079.0" y="913.0" type="curve" smooth="yes"/>
      <point x="1069.0" y="913.0" type="line" smooth="yes"/>
      <point x="969.367528567" y="913.0"/>
      <point x="914.874241254" y="957.174046711"/>
      <point x="901.99999814" y="1006.00344496" type="curve" smooth="yes"/>
      <point x="896.139955683" y="1028.22939987"/>
      <point x="894.3671875" y="1035.04980469"/>
      <point x="886.0" y="1054.60058594" type="curve" smooth="yes"/>
      <point x="869.046875" y="1094.21484375"/>
      <point x="814.500159143" y="1135.0"/>
      <point x="669.0" y="1135.0" type="curve" smooth="yes"/>
      <point x="547.0" y="1135.0"/>
      <point x="499.0" y="1083.0"/>
      <point x="499.0" y="1043.0" type="curve" smooth="yes"/>
      <point x="499.0" y="982.071379626"/>
      <point x="603.082297024" y="952.224575632"/>
      <point x="739.717755014" y="925.936235947" type="curve" smooth="yes"/>
      <point x="984.807527775" y="878.781542029"/>
      <point x="1329.0" y="788.516196082"/>
      <point x="1329.0" y="428.0" type="curve" smooth="yes"/>
      <point x="1329.0" y="120.7265625"/>
      <point x="1088.34179688" y="-35.0"/>
      <point x="649.27734375" y="-35.0" type="curve" smooth="yes"/>
      <point x="260.790039062" y="-35.0"/>
      <point x="23.0" y="145.258789062"/>
      <point x="23.0" y="370.0" type="curve" smooth="yes"/>
      <point x="23.0" y="384.4453125" type="line" smooth="yes"/>
      <point x="23.0" y="471.15625"/>
      <point x="106.44911957" y="528.0"/>
    </contour>
  </outline>
</glyph>
<glyph name="T" format="2">
  <advance height="1920" width="1350"/>
  <unicode hex="0054"/>
  <anchor x="625.0" y="0.0" name="bottom"/>
  <anchor x="674.0" y="1400.0" name="top"/>
  <outline>
    <contour>
      <point x="250.0" y="1400.0" type="curve" smooth="yes"/>
      <point x="1100.0" y="1400.0" type="line" smooth="yes"/>
      <point x="1277.0" y="1400.0"/>
      <point x="1350.0" y="1337.0"/>
      <point x="1350.0" y="1230.0" type="curve" smooth="yes"/>
      <point x="1350.0" y="1220.0" type="line" smooth="yes"/>
      <point x="1350.0" y="1113.0"/>
      <point x="1277.0" y="1050.0"/>
      <point x="1100.0" y="1050.0" type="curve" smooth="yes"/>
      <point x="920.0" y="1050.0" type="line"/>
      <point x="920.0" y="230.0" type="line" smooth="yes"/>
      <point x="920.0" y="53.0"/>
      <point x="827.0" y="-30.0"/>
      <point x="680.0" y="-30.0" type="curve" smooth="yes"/>
      <point x="670.0" y="-30.0" type="line" smooth="yes"/>
      <point x="523.0" y="-30.0"/>
      <point x="430.0" y="53.0"/>
      <point x="430.0" y="230.0" type="curve" smooth="yes"/>
      <point x="430.0" y="1050.0" type="line"/>
      <point x="250.0" y="1050.0" type="line" smooth="yes"/>
      <point x="73.0" y="1050.0"/>
      <point x="-6.55186037544e-15" y="1113.0"/>
      <point x="0.0" y="1220.0" type="curve" smooth="yes"/>
      <point x="0.0" y="1230.0" type="line" smooth="yes"/>
      <point x="-6.55186037544e-15" y="1337.0"/>
      <point x="73.0" y="1400.0"/>
    </contour>
  </outline>
</glyph>
<glyph name="U" format="2">
  <advance height="1920" width="1371"/>
  <unicode hex="0055"/>
  <anchor x="700.069" y="0.0" name="bottom"/>
  <anchor x="795.069" y="0.0" name="ogonek"/>
  <anchor x="699.069" y="1400.0" name="top"/>
  <outline>
    <contour>
      <point x="950.06933594" y="588.0" type="curve" smooth="yes"/>
      <point x="950.069335938" y="1170.0" type="line" smooth="yes"/>
      <point x="950.069335937" y="1347.0"/>
      <point x="1017.06933594" y="1430.0"/>
      <point x="1134.06933594" y="1430.0" type="curve" smooth="yes"/>
      <point x="1136.06933594" y="1430.0" type="line" smooth="yes"/>
      <point x="1253.06933594" y="1430.0"/>
      <point x="1320.06933594" y="1347.0"/>
      <point x="1320.06933594" y="1170.0" type="curve" smooth="yes"/>
      <point x="1320.06933594" y="498.0" type="line" smooth="yes"/>
      <point x="1316.52246094" y="178.043756138"/>
      <point x="1192.06933594" y="-35.0"/>
      <point x="695.069335938" y="-35.0" type="curve" smooth="yes"/>
      <point x="138.069335938" y="-35.0"/>
      <point x="60.069335938" y="208.009967088"/>
      <point x="60.069335938" y="588.0" type="curve" smooth="yes"/>
      <point x="60.0693359375" y="1170.0" type="line" smooth="yes"/>
      <point x="60.0693359373" y="1347.0"/>
      <point x="158.069335938" y="1430.0"/>
      <point x="305.069335938" y="1430.0" type="curve" smooth="yes"/>
      <point x="315.069335938" y="1430.0" type="line" smooth="yes"/>
      <point x="462.069335938" y="1430.0"/>
      <point x="560.069335937" y="1347.0"/>
      <point x="560.069335938" y="1170.0" type="curve" smooth="yes"/>
      <point x="560.069335938" y="658.0" type="line" smooth="yes"/>
      <point x="560.069335938" y="408.067794141"/>
      <point x="598.069335938" y="305.0"/>
      <point x="765.069335938" y="305.0" type="curve" smooth="yes"/>
      <point x="892.069335938" y="305.0"/>
      <point x="950.06933594" y="378.011928147"/>
    </contour>
  </outline>
</glyph>
<glyph name="V" format="2">
  <advance height="1920" width="1445"/>
  <unicode hex="0056"/>
  <anchor x="782.265" y="0.0" name="bottom"/>
  <anchor x="781.265" y="1400.0" name="top"/>
  <outline>
    <contour>
      <point x="785.264648438" y="422.0" type="line"/>
      <point x="1008.26464844" y="1155.0" type="line" smooth="yes"/>
      <point x="1068.99120468" y="1354.60791806"/>
      <point x="1124.26464844" y="1435.0"/>
      <point x="1254.26464844" y="1435.0" type="curve" smooth="yes"/>
      <point x="1264.26464844" y="1435.0" type="line" smooth="yes"/>
      <point x="1404.26464844" y="1435.0"/>
      <point x="1443.71824099" y="1332.40056415"/>
      <point x="1382.26464844" y="1155.0" type="curve" smooth="yes"/>
      <point x="1072.26464844" y="260.0" type="line" smooth="yes"/>
      <point x="1011.03179599" y="83.2148292179"/>
      <point x="917.236328125" y="-2.32648209458e-14"/>
      <point x="727.264648438" y="0.0" type="curve" smooth="yes"/>
      <point x="717.264648438" y="0.0" type="line" smooth="yes"/>
      <point x="527.23046875" y="0.0"/>
      <point x="433.93535023" y="83.6154776602"/>
      <point x="371.264648438" y="260.0" type="curve" smooth="yes"/>
      <point x="53.2646484375" y="1155.0" type="line" smooth="yes"/>
      <point x="-3.0785866703" y="1313.70264336"/>
      <point x="92.2646484375" y="1435.0"/>
      <point x="262.264648438" y="1435.0" type="curve" smooth="yes"/>
      <point x="272.264648438" y="1435.0" type="line" smooth="yes"/>
      <point x="432.264648438" y="1435.0"/>
      <point x="496.96157007" y="1317.44981544"/>
      <point x="549.264648438" y="1155.0" type="curve" smooth="yes"/>
    </contour>
  </outline>
</glyph>
<glyph name="W" format="2">
  <advance height="1920" width="1834"/>
  <unicode hex="0057"/>
  <anchor x="932.613" y="0.0" name="bottom"/>
  <anchor x="931.613" y="1400.0" name="top"/>
  <outline>
    <contour>
      <point x="577.544921875" y="690.13671875" type="line"/>
      <point x="726.61328125" y="1220.0" type="line" smooth="yes"/>
      <point x="764.922504186" y="1356.17008098"/>
      <point x="835.61328125" y="1430.0"/>
      <point x="932.61328125" y="1430.0" type="curve" smooth="yes"/>
      <point x="992.61328125" y="1430.0" type="line" smooth="yes"/>
      <point x="1099.61328125" y="1430.0"/>
      <point x="1165.33338345" y="1337.11104811"/>
      <point x="1199.61328125" y="1220.0" type="curve" smooth="yes"/>
      <point x="1365.32128906" y="653.888671875" type="line"/>
      <point x="1466.61328125" y="1170.0" type="line" smooth="yes"/>
      <point x="1501.78532887" y="1349.21152321"/>
      <point x="1570.61328125" y="1430.0"/>
      <point x="1677.61328125" y="1430.0" type="curve" smooth="yes"/>
      <point x="1682.61328125" y="1430.0" type="line" smooth="yes"/>
      <point x="1809.61328125" y="1430.0"/>
      <point x="1881.35825462" y="1336.46738743"/>
      <point x="1839.61328125" y="1160.0" type="curve" smooth="yes"/>
      <point x="1619.61328125" y="230.0" type="line" smooth="yes"/>
      <point x="1579.97904363" y="62.4552682409"/>
      <point x="1489.64160156" y="-30.0"/>
      <point x="1332.61328125" y="-30.0" type="curve" smooth="yes"/>
      <point x="1322.61328125" y="-30.0" type="line" smooth="yes"/>
      <point x="1165.64746094" y="-30.0"/>
      <point x="1074.18261315" y="66.0256814796"/>
      <point x="1025.61328125" y="230.0" type="curve" smooth="yes"/>
      <point x="900.915039062" y="650.9921875" type="line"/>
      <point x="763.61328125" y="230.0" type="line" smooth="yes"/>
      <point x="713.959522629" y="77.7525357829"/>
      <point x="649.641601562" y="-30.0"/>
      <point x="502.61328125" y="-30.0" type="curve" smooth="yes"/>
      <point x="467.61328125" y="-30.0" type="line" smooth="yes"/>
      <point x="320.61328125" y="-30.0"/>
      <point x="261.217088817" y="61.4481641424"/>
      <point x="222.61328125" y="230.0" type="curve" smooth="yes"/>
      <point x="9.61328125" y="1160.0" type="line" smooth="yes"/>
      <point x="-28.3651653964" y="1325.82138677"/>
      <point x="85.61328125" y="1430.0"/>
      <point x="232.61328125" y="1430.0" type="curve" smooth="yes"/>
      <point x="237.61328125" y="1430.0" type="line" smooth="yes"/>
      <point x="394.61328125" y="1430.0"/>
      <point x="467.368329376" y="1329.7868589"/>
      <point x="496.61328125" y="1160.0" type="curve" smooth="yes"/>
    </contour>
  </outline>
</glyph>
<glyph name="X" format="2">
  <advance height="1920" width="1433"/>
  <unicode hex="0058"/>
  <anchor x="732.0" y="0.0" name="bottom"/>
  <anchor x="731.0" y="1400.0" name="top"/>
  <outline>
    <contour>
      <point x="1154.0" y="1430.0" type="curve" smooth="yes"/>
      <point x="1159.0" y="1430.0" type="line" smooth="yes"/>
      <point x="1310.0" y="1430.0"/>
      <point x="1387.66285382" y="1293.56824985"/>
      <point x="1264.0" y="1140.0" type="curve" smooth="yes"/>
      <point x="958.0" y="760.0" type="line"/>
      <point x="1275.0" y="380.0" type="line" smooth="yes"/>
      <point x="1444.3503823" y="175.896933387"/>
      <point x="1374.0" y="-30.0"/>
      <point x="1197.0" y="-30.0" type="curve" smooth="yes"/>
      <point x="1172.0" y="-30.0" type="line" smooth="yes"/>
      <point x="1005.0" y="-30.0"/>
      <point x="895.602751036" y="99.8723793892"/>
      <point x="787.0" y="230.0" type="curve" smooth="yes"/>
      <point x="656.0" y="383.0" type="line"/>
      <point x="557.0" y="250.0" type="line" smooth="yes"/>
      <point x="450.12328535" y="106.418151025"/>
      <point x="319.0" y="-30.0"/>
      <point x="172.0" y="-30.0" type="curve" smooth="yes"/>
      <point x="167.0" y="-30.0" type="line" smooth="yes"/>
      <point x="20.0" y="-30.0"/>
      <point x="-35.8121835536" y="147.891651143"/>
      <point x="79.0" y="282.0" type="curve" smooth="yes"/>
      <point x="436.0" y="699.0" type="line"/>
      <point x="183.0" y="1041.0" type="line" smooth="yes"/>
      <point x="32.3152261999" y="1240.80911398"/>
      <point x="130.0" y="1430.0"/>
      <point x="307.0" y="1430.0" type="curve" smooth="yes"/>
      <point x="332.0" y="1430.0" type="line" smooth="yes"/>
      <point x="465.0" y="1430.0"/>
      <point x="581.52753753" y="1316.78253608"/>
      <point x="681.0" y="1170.0" type="curve" smooth="yes"/>
      <point x="753.0" y="1069.0" type="line"/>
      <point x="840.0" y="1200.0" type="line" smooth="yes"/>
      <point x="916.83099344" y="1315.68804759"/>
      <point x="1007.0" y="1430.0"/>
    </contour>
  </outline>
</glyph>
<glyph name="Y" format="2">
  <advance height="1920" width="1490"/>
  <unicode hex="0059"/>
  <anchor x="750.039" y="0.0" name="bottom"/>
  <anchor x="779.039" y="1400.0" name="top"/>
  <outline>
    <contour>
      <point x="1235.0390625" y="1430.0" type="curve" smooth="yes"/>
      <point x="1250.0390625" y="1430.0" type="line" smooth="yes"/>
      <point x="1397.0390625" y="1430.0"/>
      <point x="1446.84903805" y="1317.53979631"/>
      <point x="1359.0390625" y="1170.0" type="curve" smooth="yes"/>
      <point x="990.0390625" y="550.0" type="line"/>
      <point x="990.0390625" y="240.0" type="line" smooth="yes"/>
      <point x="990.0390625" y="63.0"/>
      <point x="897.0390625" y="-30.0"/>
      <point x="750.0390625" y="-30.0" type="curve" smooth="yes"/>
      <point x="740.0390625" y="-30.0" type="line" smooth="yes"/>
      <point x="593.0390625" y="-30.0"/>
      <point x="500.0390625" y="63.0"/>
      <point x="500.0390625" y="240.0" type="curve" smooth="yes"/>
      <point x="500.0390625" y="550.0" type="line"/>
      <point x="154.0390625" y="1132.0" type="line" smooth="yes"/>
      <point x="55.37347137" y="1297.96350878"/>
      <point x="188.0390625" y="1430.0"/>
      <point x="345.0390625" y="1430.0" type="curve" smooth="yes"/>
      <point x="360.0390625" y="1430.0" type="line" smooth="yes"/>
      <point x="497.09765625" y="1430.0"/>
      <point x="589.070705397" y="1372.5436843"/>
      <point x="677.0390625" y="1200.0" type="curve" smooth="yes"/>
      <point x="830.0390625" y="899.901367188" type="line"/>
      <point x="983.0390625" y="1200.0" type="line" smooth="yes"/>
      <point x="1066.81396858" y="1364.31852796"/>
      <point x="1133.9296875" y="1430.0"/>
    </contour>
  </outline>
</glyph>
<glyph name="Z" format="2">
  <advance height="1920" width="1270"/>
  <unicode hex="005A"/>
  <anchor x="637.66" y="0.0" name="bottom"/>
  <anchor x="696.66" y="1400.0" name="top"/>
  <outline>
    <contour>
      <point x="84.66015625" y="280.0" type="curve" smooth="yes"/>
      <point x="638.731445312" y="1050.0" type="line"/>
      <point x="292.66015625" y="1050.0" type="line" smooth="yes"/>
      <point x="145.66015625" y="1050.0"/>
      <point x="62.66015625" y="1123.0"/>
      <point x="62.66015625" y="1220.0" type="curve" smooth="yes"/>
      <point x="62.66015625" y="1230.0" type="line" smooth="yes"/>
      <point x="62.66015625" y="1327.0"/>
      <point x="145.66015625" y="1400.0"/>
      <point x="292.66015625" y="1400.0" type="curve" smooth="yes"/>
      <point x="1002.66015625" y="1400.0" type="line" smooth="yes"/>
      <point x="1189.66015625" y="1400.0"/>
      <point x="1239.24320675" y="1242.45765223"/>
      <point x="1136.66015625" y="1100.0" type="curve" smooth="yes"/>
      <point x="596.588867188" y="350.0" type="line"/>
      <point x="1012.66015625" y="350.0" type="line" smooth="yes"/>
      <point x="1169.66015625" y="350.0"/>
      <point x="1252.66015625" y="297.0"/>
      <point x="1252.66015625" y="180.0" type="curve" smooth="yes"/>
      <point x="1252.66015625" y="170.0" type="line" smooth="yes"/>
      <point x="1252.66015625" y="53.0"/>
      <point x="1169.66015625" y="0.0"/>
      <point x="1012.66015625" y="0.0" type="curve" smooth="yes"/>
      <point x="182.66015625" y="0.0" type="line" smooth="yes"/>
      <point x="35.66015625" y="0.0"/>
      <point x="-19.1341918561" y="135.755658849"/>
    </contour>
  </outline>
</glyph>
<glyph name="bracketleft" format="2">
  <advance height="1920" width="760"/>
  <unicode hex="005B"/>
  <outline>
    <contour>
      <point x="470.0" y="1350.0" type="line"/>
      <point x="470.0" y="-110.0" type="line"/>
      <point x="550.0" y="-110.0" type="line" smooth="yes"/>
      <point x="657.0" y="-110.0"/>
      <point x="740.0" y="-133.0"/>
      <point x="740.0" y="-220.0" type="curve" smooth="yes"/>
      <point x="740.0" y="-250.0" type="line" smooth="yes"/>
      <point x="740.0" y="-337.0"/>
      <point x="657.0" y="-360.0"/>
      <point x="550.0" y="-360.0" type="curve" smooth="yes"/>
      <point x="280.0" y="-360.0" type="line" smooth="yes"/>
      <point x="123.0" y="-360.0"/>
      <point x="70.0" y="-307.0"/>
      <point x="70.0" y="-150.0" type="curve" smooth="yes"/>
      <point x="70.0" y="1390.0" type="line" smooth="yes"/>
      <point x="70.0" y="1547.0"/>
      <point x="123.0" y="1600.0"/>
      <point x="280.0" y="1600.0" type="curve" smooth="yes"/>
      <point x="550.0" y="1600.0" type="line" smooth="yes"/>
      <point x="657.0" y="1600.0"/>
      <point x="740.0" y="1577.0"/>
      <point x="740.0" y="1490.0" type="curve" smooth="yes"/>
      <point x="740.0" y="1460.0" type="line" smooth="yes"/>
      <point x="740.0" y="1373.0"/>
      <point x="657.0" y="1350.0"/>
      <point x="550.0" y="1350.0" type="curve" smooth="yes"/>
    </contour>
  </outline>
</glyph>
<glyph name="backslash" format="2">
  <advance height="2048" width="1040"/>
  <unicode hex="005C"/>
  <outline>
    <contour>
      <point x="938.0" y="110.0" type="line" smooth="yes"/>
      <point x="994.89453125" y="-26.244140625"/>
      <point x="932.0" y="-130.0"/>
      <point x="825.0" y="-130.0" type="curve" smooth="yes"/>
      <point x="815.0" y="-130.0" type="line" smooth="yes"/>
      <point x="709.0" y="-130.0"/>
      <point x="634.89453125" y="-26.244140625"/>
      <point x="578.0" y="110.0" type="curve" smooth="yes"/>
      <point x="127.0" y="1190.0" type="line" smooth="yes"/>
      <point x="70.10546875" y="1326.24414062"/>
      <point x="133.0" y="1430.0"/>
      <point x="240.0" y="1430.0" type="curve" smooth="yes"/>
      <point x="250.0" y="1430.0" type="line" smooth="yes"/>
      <point x="357.0" y="1430.0"/>
      <point x="430.10546875" y="1326.24414062"/>
      <point x="487.0" y="1190.0" type="curve" smooth="yes"/>
    </contour>
  </outline>
</glyph>
<glyph name="bracketright" format="2">
  <advance height="1920" width="750"/>
  <unicode hex="005D"/>
  <outline>
    <contour>
      <point x="290.0" y="-110.0" type="line"/>
      <point x="290.0" y="1350.0" type="line"/>
      <point x="210.0" y="1350.0" type="line" smooth="yes"/>
      <point x="103.0" y="1350.0"/>
      <point x="20.0" y="1373.0"/>
      <point x="20.0" y="1460.0" type="curve" smooth="yes"/>
      <point x="20.0" y="1490.0" type="line" smooth="yes"/>
      <point x="20.0" y="1577.0"/>
      <point x="103.0" y="1600.0"/>
      <point x="210.0" y="1600.0" type="curve" smooth="yes"/>
      <point x="480.0" y="1600.0" type="line" smooth="yes"/>
      <point x="637.0" y="1600.0"/>
      <point x="690.0" y="1547.0"/>
      <point x="690.0" y="1390.0" type="curve" smooth="yes"/>
      <point x="690.0" y="-150.0" type="line" smooth="yes"/>
      <point x="690.0" y="-307.0"/>
      <point x="637.0" y="-360.0"/>
      <point x="480.0" y="-360.0" type="curve" smooth="yes"/>
      <point x="210.0" y="-360.0" type="line" smooth="yes"/>
      <point x="103.0" y="-360.0"/>
      <point x="20.0" y="-337.0"/>
      <point x="20.0" y="-250.0" type="curve" smooth="yes"/>
      <point x="20.0" y="-220.0" type="line" smooth="yes"/>
      <point x="20.0" y="-133.0"/>
      <point x="103.0" y="-110.0"/>
      <point x="210.0" y="-110.0" type="curve" smooth="yes"/>
    </contour>
  </outline>
</glyph>
<glyph name="asciicircum" format="2">
  <advance height="1920" width="820"/>
  <unicode hex="005E"/>
  <outline>
    <contour>
      <point x="410.0" y="991.481445312" type="line"/>
      <point x="387.0" y="890.0" type="line" smooth="yes"/>
      <point x="353.261929707" y="741.139646288"/>
      <point x="277.0" y="700.0"/>
      <point x="170.0" y="700.0" type="curve" smooth="yes"/>
      <point x="160.0" y="700.0" type="line" smooth="yes"/>
      <point x="53.0" y="700.0"/>
      <point x="-28.9880055342" y="755.782178514"/>
      <point x="27.0" y="890.0" type="curve" smooth="yes"/>
      <point x="173.0" y="1240.0" type="line" smooth="yes"/>
      <point x="222.815416772" y="1359.17563821"/>
      <point x="293.0" y="1430.0"/>
      <point x="400.0" y="1430.0" type="curve" smooth="yes"/>
      <point x="420.0" y="1430.0" type="line" smooth="yes"/>
      <point x="527.0" y="1430.0"/>
      <point x="597.184583228" y="1359.17563821"/>
      <point x="647.0" y="1240.0" type="curve" smooth="yes"/>
      <point x="793.0" y="890.0" type="line" smooth="yes"/>
      <point x="848.953637917" y="755.864566638"/>
      <point x="772.494140625" y="700.0"/>
      <point x="660.0" y="700.0" type="curve" smooth="yes"/>
      <point x="650.0" y="700.0" type="line" smooth="yes"/>
      <point x="539.571289062" y="700.0"/>
      <point x="466.76494922" y="741.021050097"/>
      <point x="433.0" y="890.0" type="curve" smooth="yes"/>
    </contour>
  </outline>
</glyph>
<glyph name="underscore" format="2">
  <advance height="1920" width="900"/>
  <unicode hex="005F"/>
  <outline>
    <contour>
      <point x="-30.0" y="-195.0" type="curve" smooth="yes"/>
      <point x="-30.0" y="-160.0" type="line" smooth="yes"/>
      <point x="-30.0" y="-53.0"/>
      <point x="53.0" y="0.0"/>
      <point x="160.0" y="0.0" type="curve" smooth="yes"/>
      <point x="740.0" y="0.0" type="line" smooth="yes"/>
      <point x="847.0" y="0.0"/>
      <point x="930.0" y="-53.0"/>
      <point x="930.0" y="-160.0" type="curve" smooth="yes"/>
      <point x="930.0" y="-195.0" type="line" smooth="yes"/>
      <point x="930.0" y="-302.0"/>
      <point x="847.0" y="-355.0"/>
      <point x="740.0" y="-355.0" type="curve" smooth="yes"/>
      <point x="160.0" y="-355.0" type="line" smooth="yes"/>
      <point x="53.0" y="-355.0"/>
      <point x="-30.0" y="-302.0"/>
    </contour>
  </outline>
</glyph>
<glyph name="grave" format="2">
  <advance width="773"/>
  <unicode hex="0060"/>
  <outline>
    <contour>
      <point x="636.0" y="1054.0" type="curve" smooth="yes"/>
      <point x="626.0" y="1054.0" type="line" smooth="yes"/>
      <point x="539.0" y="1054.0"/>
      <point x="428.827586207" y="1121.06896552"/>
      <point x="314.0" y="1204.0" type="curve" smooth="yes"/>
      <point x="278.0" y="1230.0" type="line" smooth="yes"/>
      <point x="129.252993233" y="1339.2066632"/>
      <point x="244.0" y="1430.0"/>
      <point x="401.0" y="1430.0" type="curve" smooth="yes"/>
      <point x="411.0" y="1430.0" type="line" smooth="yes"/>
      <point x="568.0" y="1430.0"/>
      <point x="635.496826232" y="1389.53529554"/>
      <point x="663.0" y="1290.0" type="curve" smooth="yes"/>
      <point x="684.0" y="1214.0" type="line" smooth="yes"/>
      <point x="714.070298363" y="1105.17415831"/>
      <point x="693.0" y="1054.0"/>
    </contour>
  </outline>
</glyph>
<glyph name="a" format="2">
  <advance height="1920" width="1290"/>
  <unicode hex="0061"/>
  <anchor x="631.04" y="0.0" name="bottom"/>
  <anchor x="1036.04" y="0.0" name="ogonek"/>
  <anchor x="660.04" y="1050.0" name="top"/>
  <outline>
    <contour>
      <point x="516.040039062" y="320.0" type="curve" smooth="yes"/>
      <point x="516.040039062" y="256.396484375"/>
      <point x="548.221679688" y="235.0"/>
      <point x="596.040039062" y="235.0" type="curve" smooth="yes"/>
      <point x="680.040039062" y="235.0"/>
      <point x="734.040039062" y="292.0"/>
      <point x="734.040039062" y="438.0" type="curve"/>
      <point x="864.040039062" y="328.0" type="line"/>
      <point x="864.040039062" y="125.0"/>
      <point x="693.040039062" y="-35.0"/>
      <point x="412.040039062" y="-35.0" type="curve" smooth="yes"/>
      <point x="172.776367188" y="-35.0"/>
      <point x="26.0400390625" y="55.109375"/>
      <point x="26.0400390625" y="270.0" type="curve" smooth="yes"/>
      <point x="26.0400390625" y="461.0078125"/>
      <point x="144.599609375" y="575.212890625"/>
      <point x="485.040039062" y="615.0" type="curve" smooth="yes"/>
      <point x="669.09765625" y="636.510742188"/>
      <point x="734.040039062" y="675.0"/>
      <point x="734.040039062" y="718.0" type="curve"/>
      <point x="774.040039062" y="538.0" type="line"/>
      <point x="774.040039062" y="475.0"/>
      <point x="706.123046875" y="453.532226562"/>
      <point x="642.040039062" y="440.0" type="curve" smooth="yes"/>
      <point x="564.118164062" y="423.545898438"/>
      <point x="516.040039062" y="400.081054688"/>
    </contour>
    <contour>
      <point x="734.040039062" y="258.0" type="curve" smooth="yes"/>
      <point x="734.040039062" y="738.0" type="line" smooth="yes"/>
      <point x="734.040039062" y="778.0"/>
      <point x="714.040039062" y="805.0"/>
      <point x="659.040039062" y="805.0" type="curve" smooth="yes"/>
      <point x="612.293945312" y="805.0"/>
      <point x="591.375" y="786.749023438"/>
      <point x="574.17578125" y="762.0" type="curve" smooth="yes"/>
      <point x="521.74568413" y="686.555078849"/>
      <point x="480.903320312" y="648.0"/>
      <point x="344.040039062" y="648.0" type="curve" smooth="yes"/>
      <point x="334.040039062" y="648.0" type="line" smooth="yes"/>
      <point x="186.973632812" y="648.0"/>
      <point x="125.500385925" y="753.16126495"/>
      <point x="163.893554688" y="862.0" type="curve" smooth="yes"/>
      <point x="205.846679688" y="980.930664062"/>
      <point x="368.421875" y="1085.0"/>
      <point x="684.040039062" y="1085.0" type="curve" smooth="yes"/>
      <point x="1044.04003906" y="1085.0"/>
      <point x="1214.04003906" y="961.0"/>
      <point x="1214.04003906" y="693.0" type="curve" smooth="yes"/>
      <point x="1214.04003906" y="278.0" type="line" smooth="yes"/>
      <point x="1214.04003906" y="243.612304688"/>
      <point x="1214.80566406" y="181.635742188"/>
      <point x="1221.45800781" y="157.0" type="curve" smooth="yes"/>
      <point x="1249.390625" y="53.5576171875"/>
      <point x="1171.65039062" y="-30.0"/>
      <point x="1025.04003906" y="-30.0" type="curve" smooth="yes"/>
      <point x="1021.04003906" y="-30.0" type="line" smooth="yes"/>
      <point x="877.723632812" y="-30.0"/>
      <point x="781.771484375" y="32.3681640625"/>
      <point x="758.376953125" y="97.0" type="curve" smooth="yes"/>
      <point x="745.823673193" y="131.680820075"/>
      <point x="734.040039062" y="162.8359375"/>
    </contour>
  </outline>
</glyph>
<glyph name="b" format="2">
  <advance height="1920" width="1315"/>
  <unicode hex="0062"/>
  <outline>
    <contour>
      <point x="290.0" y="1480.0" type="curve" smooth="yes"/>
      <point x="300.0" y="1480.0" type="line" smooth="yes"/>
      <point x="447.0" y="1480.0"/>
      <point x="540.0" y="1397.0"/>
      <point x="540.0" y="1230.0" type="curve" smooth="yes"/>
      <point x="540.0" y="335.0" type="line"/>
      <point x="313.0" y="65.0" type="line" smooth="yes"/>
      <point x="267.563853966" y="10.9570069201"/>
      <point x="227.0" y="-25.0"/>
      <point x="170.0" y="-25.0" type="curve" smooth="yes"/>
      <point x="159.0" y="-25.0" type="line" smooth="yes"/>
      <point x="92.0" y="-25.0"/>
      <point x="50.0" y="28.0"/>
      <point x="50.0" y="185.0" type="curve" smooth="yes"/>
      <point x="50.0" y="1230.0" type="line" smooth="yes"/>
      <point x="50.0" y="1397.0"/>
      <point x="143.0" y="1480.0"/>
    </contour>
    <contour>
      <point x="480.0" y="633.0" type="line"/>
      <point x="480.0" y="923.0"/>
      <point x="617.0" y="1085.0"/>
      <point x="874.0" y="1085.0" type="curve" smooth="yes"/>
      <point x="1141.0" y="1085.0"/>
      <point x="1290.0" y="943.0"/>
      <point x="1290.0" y="603.0" type="curve" smooth="yes"/>
      <point x="1290.0" y="447.0" type="line" smooth="yes"/>
      <point x="1290.0" y="127.0"/>
      <point x="1101.0" y="-35.0"/>
      <point x="784.0" y="-35.0" type="curve" smooth="yes"/>
      <point x="497.0" y="-35.0"/>
      <point x="290.0" y="127.0"/>
      <point x="290.0" y="417.0" type="curve"/>
      <point x="540.0" y="487.0" type="line"/>
      <point x="540.0" y="347.0"/>
      <point x="587.0" y="305.0"/>
      <point x="664.0" y="305.0" type="curve" smooth="yes"/>
      <point x="751.0" y="305.0"/>
      <point x="800.0" y="357.0"/>
      <point x="800.0" y="467.0" type="curve" smooth="yes"/>
      <point x="800.0" y="583.0" type="line" smooth="yes"/>
      <point x="800.0" y="693.0"/>
      <point x="751.0" y="745.0"/>
      <point x="664.0" y="745.0" type="curve" smooth="yes"/>
      <point x="587.0" y="745.0"/>
      <point x="540.0" y="673.0"/>
      <point x="540.0" y="563.0" type="curve"/>
    </contour>
  </outline>
</glyph>
<glyph name="c" format="2">
  <advance height="1920" width="1130"/>
  <unicode hex="0063"/>
  <anchor x="640.0" y="0.0" name="bottom"/>
  <anchor x="634.0" y="1050.0" name="top"/>
  <outline>
    <contour>
      <point x="1104.0" y="343.0" type="curve" smooth="yes"/>
      <point x="1104.0" y="269.79560277"/>
      <point x="1048.0" y="175.0"/>
      <point x="985.0" y="112.0" type="curve" smooth="yes"/>
      <point x="916.421875" y="43.421875"/>
      <point x="761.0" y="-35.0"/>
      <point x="580.0" y="-35.0" type="curve" smooth="yes"/>
      <point x="200.0" y="-35.0"/>
      <point x="25.0" y="151.0"/>
      <point x="25.0" y="448.0" type="curve" smooth="yes"/>
      <point x="25.0" y="603.0" type="line" smooth="yes"/>
      <point x="25.0" y="900.0"/>
      <point x="205.0" y="1085.0"/>
      <point x="585.0" y="1085.0" type="curve" smooth="yes"/>
      <point x="798.0" y="1085.0"/>
      <point x="915.0" y="1017.0"/>
      <point x="991.0" y="941.0" type="curve" smooth="yes"/>
      <point x="1059.40039062" y="872.599609375"/>
      <point x="1091.0" y="781.252201393"/>
      <point x="1091.0" y="713.0" type="curve" smooth="yes"/>
      <point x="1091.0" y="625.0"/>
      <point x="1030.0" y="583.0"/>
      <point x="961.0" y="583.0" type="curve" smooth="yes"/>
      <point x="946.0" y="583.0" type="line" smooth="yes"/>
      <point x="849.0" y="583.0"/>
      <point x="809.0" y="617.0"/>
      <point x="785.0" y="690.0" type="curve" smooth="yes"/>
      <point x="778.0" y="711.0"/>
      <point x="763.022715546" y="735.977284454"/>
      <point x="741.0" y="758.0" type="curve" smooth="yes"/>
      <point x="715.0" y="784.0"/>
      <point x="684.0" y="795.0"/>
      <point x="640.0" y="795.0" type="curve" smooth="yes"/>
      <point x="556.0" y="795.0"/>
      <point x="515.0" y="733.0"/>
      <point x="515.0" y="583.0" type="curve" smooth="yes"/>
      <point x="515.0" y="468.0" type="line" smooth="yes"/>
      <point x="515.0" y="325.0"/>
      <point x="566.0" y="255.0"/>
      <point x="655.0" y="255.0" type="curve" smooth="yes"/>
      <point x="693.0" y="255.0"/>
      <point x="730.0" y="271.0"/>
      <point x="753.0" y="294.0" type="curve" smooth="yes"/>
      <point x="772.02629759" y="313.02629759"/>
      <point x="787.0" y="335.0"/>
      <point x="795.0" y="361.0" type="curve" smooth="yes"/>
      <point x="816.0" y="432.0"/>
      <point x="863.0" y="468.0"/>
      <point x="950.0" y="468.0" type="curve" smooth="yes"/>
      <point x="960.0" y="468.0" type="line" smooth="yes"/>
      <point x="1036.0" y="468.0"/>
      <point x="1104.0" y="423.0"/>
    </contour>
  </outline>
</glyph>
<glyph name="d" format="2">
  <advance height="1920" width="1315"/>
  <unicode hex="0064"/>
  <outline>
    <contour>
      <point x="835.0" y="417.0" type="line"/>
      <point x="835.0" y="127.0"/>
      <point x="698.0" y="-35.0"/>
      <point x="441.0" y="-35.0" type="curve" smooth="yes"/>
      <point x="174.0" y="-35.0"/>
      <point x="25.0" y="107.0"/>
      <point x="25.0" y="447.0" type="curve" smooth="yes"/>
      <point x="25.0" y="603.0" type="line" smooth="yes"/>
      <point x="25.0" y="943.0"/>
      <point x="174.0" y="1085.0"/>
      <point x="441.0" y="1085.0" type="curve" smooth="yes"/>
      <point x="698.0" y="1085.0"/>
      <point x="835.0" y="923.0"/>
      <point x="835.0" y="633.0" type="curve"/>
      <point x="775.0" y="563.0" type="line"/>
      <point x="775.0" y="673.0"/>
      <point x="728.0" y="745.0"/>
      <point x="651.0" y="745.0" type="curve" smooth="yes"/>
      <point x="564.0" y="745.0"/>
      <point x="515.0" y="693.0"/>
      <point x="515.0" y="583.0" type="curve" smooth="yes"/>
      <point x="515.0" y="467.0" type="line" smooth="yes"/>
      <point x="515.0" y="357.0"/>
      <point x="564.0" y="305.0"/>
      <point x="651.0" y="305.0" type="curve" smooth="yes"/>
      <point x="728.0" y="305.0"/>
      <point x="775.0" y="377.0"/>
      <point x="775.0" y="487.0" type="curve"/>
    </contour>
    <contour>
      <point x="1265.0" y="1220.0" type="curve" smooth="yes"/>
      <point x="1265.0" y="230.0" type="line" smooth="yes"/>
      <point x="1265.0" y="63.0"/>
      <point x="1177.0" y="-30.0"/>
      <point x="1030.0" y="-30.0" type="curve" smooth="yes"/>
      <point x="1025.0" y="-30.0" type="line" smooth="yes"/>
      <point x="878.0" y="-30.0"/>
      <point x="790.0" y="63.0"/>
      <point x="790.0" y="230.0" type="curve" smooth="yes"/>
      <point x="790.0" y="240.0" type="line"/>
      <point x="775.0" y="252.0" type="line"/>
      <point x="775.0" y="1220.0" type="line" smooth="yes"/>
      <point x="775.0" y="1387.0"/>
      <point x="868.0" y="1480.0"/>
      <point x="1015.0" y="1480.0" type="curve" smooth="yes"/>
      <point x="1025.0" y="1480.0" type="line" smooth="yes"/>
      <point x="1172.0" y="1480.0"/>
      <point x="1265.0" y="1387.0"/>
    </contour>
  </outline>
</glyph>
<glyph name="e" format="2">
  <advance height="1920" width="1258"/>
  <unicode hex="0065"/>
  <anchor x="633.0" y="0.0" name="bottom"/>
  <anchor x="839.0" y="60.0" name="ogonek"/>
  <anchor x="644.0" y="1050.0" name="top"/>
  <outline>
    <contour>
      <point x="1198.0" y="263.0" type="curve" smooth="yes"/>
      <point x="1198.0" y="189.795898438"/>
      <point x="1142.0" y="125.0"/>
      <point x="1049.0" y="62.0" type="curve" smooth="yes"/>
      <point x="968.70503896" y="7.60663929582"/>
      <point x="812.0" y="-35.0"/>
      <point x="631.0" y="-35.0" type="curve" smooth="yes"/>
      <point x="262.0" y="-35.0"/>
      <point x="25.0" y="138.0"/>
      <point x="25.0" y="448.0" type="curve" smooth="yes"/>
      <point x="25.0" y="603.0" type="line" smooth="yes"/>
      <point x="25.0" y="903.0"/>
      <point x="262.0" y="1085.0"/>
      <point x="639.0" y="1085.0" type="curve" smooth="yes"/>
      <point x="976.0" y="1085.0"/>
      <point x="1172.0" y="907.0"/>
      <point x="1215.0" y="724.0" type="curve" smooth="yes"/>
      <point x="1222.0" y="694.0"/>
      <point x="1225.0" y="657.0"/>
      <point x="1225.0" y="643.0" type="curve" smooth="yes"/>
      <point x="1225.0" y="478.0"/>
      <point x="1140.0" y="435.0"/>
      <point x="983.0" y="435.0" type="curve" smooth="yes"/>
      <point x="299.0" y="435.0" type="line"/>
      <point x="299.0" y="605.0" type="line"/>
      <point x="759.0" y="605.0" type="line"/>
      <point x="754.0" y="747.0"/>
      <point x="707.0" y="805.0"/>
      <point x="634.0" y="805.0" type="curve" smooth="yes"/>
      <point x="567.0" y="805.0"/>
      <point x="515.0" y="753.0"/>
      <point x="515.0" y="633.0" type="curve" smooth="yes"/>
      <point x="515.0" y="418.0" type="line" smooth="yes"/>
      <point x="515.0" y="268.0"/>
      <point x="562.0" y="245.0"/>
      <point x="639.0" y="245.0" type="curve" smooth="yes"/>
      <point x="742.779071725" y="245.0"/>
      <point x="776.719726562" y="297.009765625"/>
      <point x="819.0" y="331.0" type="curve" smooth="yes"/>
      <point x="869.999875931" y="372.000154329"/>
      <point x="927.0" y="388.0"/>
      <point x="1014.0" y="388.0" type="curve" smooth="yes"/>
      <point x="1024.0" y="388.0" type="line" smooth="yes"/>
      <point x="1100.0" y="388.0"/>
      <point x="1198.0" y="343.0"/>
    </contour>
  </outline>
</glyph>
<glyph name="f" format="2">
  <advance height="1920" width="770"/>
  <unicode hex="0066"/>
  <outline>
    <contour>
      <point x="580.0" y="810.0" type="curve" smooth="yes"/>
      <point x="190.0" y="810.0" type="line" smooth="yes"/>
      <point x="43.0" y="810.0"/>
      <point x="-20.0" y="830.0"/>
      <point x="-20.0" y="927.0" type="curve" smooth="yes"/>
      <point x="-20.0" y="937.0" type="line" smooth="yes"/>
      <point x="-20.0" y="1034.0"/>
      <point x="43.0" y="1050.0"/>
      <point x="190.0" y="1050.0" type="curve" smooth="yes"/>
      <point x="580.0" y="1050.0" type="line" smooth="yes"/>
      <point x="727.0" y="1050.0"/>
      <point x="790.0" y="1034.0"/>
      <point x="790.0" y="937.0" type="curve" smooth="yes"/>
      <point x="790.0" y="927.0" type="line" smooth="yes"/>
      <point x="790.0" y="830.0"/>
      <point x="727.0" y="810.0"/>
    </contour>
    <contour>
      <point x="130.0" y="1188.0" type="line" smooth="yes"/>
      <point x="130.0" y="1425.14550781"/>
      <point x="359.596679688" y="1481.34570312"/>
      <point x="678.0" y="1435.16601562" type="curve" smooth="yes"/>
      <point x="756.223708273" y="1423.82082488"/>
      <point x="790.0" y="1397.046875"/>
      <point x="790.0" y="1310.0" type="curve" smooth="yes"/>
      <point x="790.0" y="1300.0" type="line" smooth="yes"/>
      <point x="790.0" y="1213.15625"/>
      <point x="749.431110694" y="1189.40176321"/>
      <point x="674.000005336" y="1165.88955969" type="curve" smooth="yes"/>
      <point x="637.241811668" y="1154.43187089"/>
      <point x="615.0" y="1133.49511719"/>
      <point x="615.0" y="1068.0" type="curve" smooth="yes"/>
      <point x="615.0" y="180.0" type="line" smooth="yes"/>
      <point x="615.0" y="53.0"/>
      <point x="522.0" y="-30.0"/>
      <point x="395.0" y="-30.0" type="curve" smooth="yes"/>
      <point x="350.0" y="-30.0" type="line" smooth="yes"/>
      <point x="223.0" y="-30.0"/>
      <point x="130.0" y="53.0"/>
      <point x="130.0" y="180.0" type="curve" smooth="yes"/>
    </contour>
  </outline>
</glyph>
<glyph name="g" format="2">
  <advance height="1920" width="1270"/>
  <unicode hex="0067"/>
  <anchor x="595.0" y="1100.0" name="top"/>
  <outline>
    <contour>
      <point x="1261.0" y="1140.0" type="curve" smooth="yes"/>
      <point x="1224.74804688" y="1029.17382812"/>
      <point x="1094.0" y="1070.0"/>
      <point x="755.0" y="970.0" type="curve"/>
      <point x="725.0" y="1000.0" type="line"/>
      <point x="784.0" y="1000.0"/>
      <point x="817.393050184" y="1047.89936584"/>
      <point x="841.0" y="1141.0" type="curve" smooth="yes"/>
      <point x="872.225061731" y="1264.14479725"/>
      <point x="971.0" y="1300.0"/>
      <point x="1078.0" y="1300.0" type="curve" smooth="yes"/>
      <point x="1088.0" y="1300.0" type="line" smooth="yes"/>
      <point x="1215.0" y="1300.0"/>
      <point x="1289.90488219" y="1228.36537525"/>
    </contour>
    <contour>
      <point x="823.0" y="340.0" type="line" smooth="yes"/>
      <point x="1143.0" y="340.0"/>
      <point x="1285.0" y="242.0"/>
      <point x="1285.0" y="25.0" type="curve" smooth="yes"/>
      <point x="1285.0" y="-212.0"/>
      <point x="1083.0" y="-360.0"/>
      <point x="693.0" y="-360.0" type="curve" smooth="yes"/>
      <point x="468.0" y="-360.0" type="line" smooth="yes"/>
      <point x="138.0" y="-360.0"/>
      <point x="-15.0" y="-292.0"/>
      <point x="-15.0" y="-135.0" type="curve" smooth="yes"/>
      <point x="-15.0" y="-18.0"/>
      <point x="118.0" y="90.0"/>
      <point x="428.0" y="90.0" type="curve"/>
      <point x="618.0" y="50.0" type="line"/>
      <point x="498.0" y="50.0"/>
      <point x="445.0" y="-8.0"/>
      <point x="445.0" y="-65.0" type="curve" smooth="yes"/>
      <point x="445.0" y="-132.0"/>
      <point x="488.0" y="-160.0"/>
      <point x="608.0" y="-160.0" type="curve" smooth="yes"/>
      <point x="623.0" y="-160.0" type="line" smooth="yes"/>
      <point x="743.0" y="-160.0"/>
      <point x="825.0" y="-132.0"/>
      <point x="825.0" y="-75.0" type="curve" smooth="yes"/>
      <point x="825.0" y="-28.0"/>
      <point x="793.0" y="0.0"/>
      <point x="713.0" y="0.0" type="curve" smooth="yes"/>
      <point x="418.0" y="0.0" type="line" smooth="yes"/>
      <point x="178.0" y="0.0"/>
      <point x="6.0" y="118.0"/>
      <point x="6.0" y="305.0" type="curve" smooth="yes"/>
      <point x="6.0" y="512.0"/>
      <point x="200.0" y="595.0"/>
      <point x="440.0" y="595.0" type="curve"/>
      <point x="420.0" y="495.0" type="line"/>
      <point x="360.0" y="495.0"/>
      <point x="316.0" y="462.0"/>
      <point x="316.0" y="415.0" type="curve" smooth="yes"/>
      <point x="316.0" y="363.0"/>
      <point x="518.0" y="340.0"/>
      <point x="648.0" y="340.0" type="curve" smooth="yes"/>
    </contour>
    <contour>
      <point x="765.0" y="738.0" type="curve" smooth="yes"/>
      <point x="765.0" y="753.0" type="line" smooth="yes"/>
      <point x="765.0" y="795.0"/>
      <point x="742.0" y="835.0"/>
      <point x="670.0" y="835.0" type="curve" smooth="yes"/>
      <point x="602.0" y="835.0"/>
      <point x="575.0" y="798.0"/>
      <point x="575.0" y="753.0" type="curve" smooth="yes"/>
      <point x="575.0" y="738.0" type="line" smooth="yes"/>
      <point x="575.0" y="703.0"/>
      <point x="602.0" y="655.0"/>
      <point x="670.0" y="655.0" type="curve" smooth="yes"/>
      <point x="742.0" y="655.0"/>
      <point x="765.0" y="695.0"/>
    </contour>
    <contour>
      <point x="1235.0" y="738.0" type="line" smooth="yes"/>
      <point x="1235.0" y="548.0"/>
      <point x="1037.0" y="405.0"/>
      <point x="670.0" y="405.0" type="curve" smooth="yes"/>
      <point x="303.0" y="405.0"/>
      <point x="105.0" y="548.0"/>
      <point x="105.0" y="738.0" type="curve" smooth="yes"/>
      <point x="105.0" y="753.0" type="line" smooth="yes"/>
      <point x="105.0" y="943.0"/>
      <point x="303.0" y="1085.0"/>
      <point x="670.0" y="1085.0" type="curve" smooth="yes"/>
      <point x="1037.0" y="1085.0"/>
      <point x="1235.0" y="943.0"/>
      <point x="1235.0" y="753.0" type="curve" smooth="yes"/>
    </contour>
  </outline>
</glyph>
<glyph name="h" format="2">
  <advance height="1920" width="1255"/>
  <unicode hex="0068"/>
  <anchor x="629.0" y="0.0" name="bottom"/>
  <anchor x="298.0" y="1450.0" name="top"/>
  <outline>
    <contour>
      <point x="290.0" y="1480.0" type="curve" smooth="yes"/>
      <point x="300.0" y="1480.0" type="line" smooth="yes"/>
      <point x="447.0" y="1480.0"/>
      <point x="540.0" y="1397.0"/>
      <point x="540.0" y="1220.0" type="curve" smooth="yes"/>
      <point x="540.0" y="230.0" type="line" smooth="yes"/>
      <point x="540.0" y="53.0"/>
      <point x="446.595703125" y="-30.0"/>
      <point x="300.0" y="-30.0" type="curve" smooth="yes"/>
      <point x="290.0" y="-30.0" type="line" smooth="yes"/>
      <point x="143.0" y="-30.0"/>
      <point x="50.0" y="53.0"/>
      <point x="50.0" y="230.0" type="curve" smooth="yes"/>
      <point x="50.0" y="1220.0" type="line" smooth="yes"/>
      <point x="50.0" y="1397.0"/>
      <point x="143.0" y="1480.0"/>
    </contour>
    <contour>
      <point x="490.0" y="703.0" type="line"/>
      <point x="490.0" y="943.0"/>
      <point x="648.0" y="1085.0"/>
      <point x="865.0" y="1085.0" type="curve" smooth="yes"/>
      <point x="1092.0" y="1085.0"/>
      <point x="1210.0" y="972.995117188"/>
      <point x="1210.0" y="663.0" type="curve" smooth="yes"/>
      <point x="1210.0" y="230.0" type="line" smooth="yes"/>
      <point x="1210.0" y="53.0"/>
      <point x="1117.0" y="-30.0"/>
      <point x="970.0" y="-30.0" type="curve" smooth="yes"/>
      <point x="960.0" y="-30.0" type="line" smooth="yes"/>
      <point x="813.0" y="-30.0"/>
      <point x="720.0" y="53.0"/>
      <point x="720.0" y="230.0" type="curve" smooth="yes"/>
      <point x="720.0" y="613.0" type="line" smooth="yes"/>
      <point x="720.0" y="713.0"/>
      <point x="702.0" y="755.0"/>
      <point x="645.0" y="755.0" type="curve" smooth="yes"/>
      <point x="588.0" y="755.0"/>
      <point x="540.0" y="683.0"/>
      <point x="540.0" y="473.0" type="curve"/>
    </contour>
  </outline>
</glyph>
<glyph name="i" format="2">
  <advance height="1920" width="590"/>
  <unicode hex="0069"/>
  <anchor x="296.0" y="0.0" name="bottom"/>
  <anchor x="296.0" y="0.0" name="ogonek"/>
  <outline>
    <contour>
      <point x="490.0" y="1365.0" type="curve" smooth="yes"/>
      <point x="490.0" y="1345.0" type="line" smooth="yes"/>
      <point x="490.0" y="1230.76660156"/>
      <point x="420.072265625" y="1160.0"/>
      <point x="300.0" y="1160.0" type="curve" smooth="yes"/>
      <point x="290.0" y="1160.0" type="line" smooth="yes"/>
      <point x="169.927734375" y="1160.0"/>
      <point x="100.0" y="1230.76660156"/>
      <point x="100.0" y="1345.0" type="curve" smooth="yes"/>
      <point x="100.0" y="1365.0" type="line" smooth="yes"/>
      <point x="100.0" y="1479.23339844"/>
      <point x="169.927734375" y="1550.0"/>
      <point x="290.0" y="1550.0" type="curve" smooth="yes"/>
      <point x="300.0" y="1550.0" type="line" smooth="yes"/>
      <point x="420.072265625" y="1550.0"/>
      <point x="490.0" y="1479.23339844"/>
    </contour>
    <contour>
      <point x="540.0" y="820.0" type="curve" smooth="yes"/>
      <point x="540.0" y="230.0" type="line" smooth="yes"/>
      <point x="540.0" y="53.0"/>
      <point x="447.0" y="-30.0"/>
      <point x="300.0" y="-30.0" type="curve" smooth="yes"/>
      <point x="290.0" y="-30.0" type="line" smooth="yes"/>
      <point x="143.0" y="-30.0"/>
      <point x="50.0" y="53.0"/>
      <point x="50.0" y="230.0" type="curve" smooth="yes"/>
      <point x="50.0" y="820.0" type="line" smooth="yes"/>
      <point x="50.0" y="997.0"/>
      <point x="143.0" y="1080.0"/>
      <point x="290.0" y="1080.0" type="curve" smooth="yes"/>
      <point x="300.0" y="1080.0" type="line" smooth="yes"/>
      <point x="447.0" y="1080.0"/>
      <point x="540.0" y="997.0"/>
    </contour>
  </outline>
</glyph>
<glyph name="j" format="2">
  <advance height="1920" width="590"/>
  <unicode hex="006A"/>
  <outline>
    <contour>
      <point x="490.0" y="1365.0" type="curve" smooth="yes"/>
      <point x="490.0" y="1345.0" type="line" smooth="yes"/>
      <point x="490.0" y="1230.76660156"/>
      <point x="420.072265625" y="1160.0"/>
      <point x="300.0" y="1160.0" type="curve" smooth="yes"/>
      <point x="290.0" y="1160.0" type="line" smooth="yes"/>
      <point x="169.927734375" y="1160.0"/>
      <point x="100.0" y="1230.76660156"/>
      <point x="100.0" y="1345.0" type="curve" smooth="yes"/>
      <point x="100.0" y="1365.0" type="line" smooth="yes"/>
      <point x="100.0" y="1479.23339844"/>
      <point x="169.927734375" y="1550.0"/>
      <point x="290.0" y="1550.0" type="curve" smooth="yes"/>
      <point x="300.0" y="1550.0" type="line" smooth="yes"/>
      <point x="420.072265625" y="1550.0"/>
      <point x="490.0" y="1479.23339844"/>
    </contour>
    <contour>
      <point x="540.0" y="2.0" type="line" smooth="yes"/>
      <point x="540.0" y="-355.388671875"/>
      <point x="257.946289062" y="-382.411132812"/>
      <point x="1.0" y="-346.072265625" type="curve" smooth="yes"/>
      <point x="-96.9423828125" y="-332.220703125"/>
      <point x="-170.0" y="-287.040039062"/>
      <point x="-170.0" y="-210.0" type="curve" smooth="yes"/>
      <point x="-170.0" y="-200.0" type="line" smooth="yes"/>
      <point x="-170.0" y="-123.059570312"/>
      <point x="-127.002513022" y="-73.2267415465"/>
      <point x="-50.0000119725" y="-75.2153783005" type="curve" smooth="yes"/>
      <point x="-9.888042186" y="-76.839181161"/>
      <point x="50.0" y="-55.2080078125"/>
      <point x="50.0" y="72.0" type="curve" smooth="yes"/>
      <point x="50.0" y="820.0" type="line" smooth="yes"/>
      <point x="50.0" y="997.0"/>
      <point x="143.0" y="1080.0"/>
      <point x="290.0" y="1080.0" type="curve" smooth="yes"/>
      <point x="300.0" y="1080.0" type="line" smooth="yes"/>
      <point x="447.0" y="1080.0"/>
      <point x="540.0" y="997.0"/>
      <point x="540.0" y="820.0" type="curve" smooth="yes"/>
    </contour>
  </outline>
</glyph>
<glyph name="k" format="2">
  <advance height="1920" width="1340"/>
  <unicode hex="006B"/>
  <outline>
    <contour>
      <point x="290.0" y="1480.0" type="curve" smooth="yes"/>
      <point x="300.0" y="1480.0" type="line" smooth="yes"/>
      <point x="447.0" y="1480.0"/>
      <point x="540.0" y="1397.0"/>
      <point x="540.0" y="1220.0" type="curve" smooth="yes"/>
      <point x="540.0" y="230.0" type="line" smooth="yes"/>
      <point x="540.0" y="63.0"/>
      <point x="447.0" y="-30.0"/>
      <point x="300.0" y="-30.0" type="curve" smooth="yes"/>
      <point x="290.0" y="-30.0" type="line" smooth="yes"/>
      <point x="143.0" y="-30.0"/>
      <point x="50.0" y="63.0"/>
      <point x="50.0" y="230.0" type="curve" smooth="yes"/>
      <point x="50.0" y="1220.0" type="line" smooth="yes"/>
      <point x="50.0" y="1397.0"/>
      <point x="143.0" y="1480.0"/>
    </contour>
    <contour>
      <point x="270.0" y="463.0" type="line"/>
      <point x="641.0" y="900.0" type="line" smooth="yes"/>
      <point x="744.803621528" y="1022.27003398"/>
      <point x="813.0" y="1080.0"/>
      <point x="941.0" y="1080.0" type="curve" smooth="yes"/>
      <point x="945.0" y="1080.0" type="line" smooth="yes"/>
      <point x="1112.0" y="1080.0"/>
      <point x="1183.77701764" y="903.328334547"/>
      <point x="1083.0" y="800.0" type="curve" smooth="yes"/>
      <point x="530.0" y="233.0" type="line"/>
    </contour>
    <contour>
      <point x="480.0" y="653.0" type="line"/>
      <point x="890.0" y="713.0" type="line"/>
      <point x="1222.0" y="317.0" type="line" smooth="yes"/>
      <point x="1369.26975424" y="141.340895547"/>
      <point x="1252.0" y="-30.0"/>
      <point x="1075.0" y="-30.0" type="curve" smooth="yes"/>
      <point x="1065.0" y="-30.0" type="line" smooth="yes"/>
      <point x="887.0" y="-30.0"/>
      <point x="791.315203904" y="63.6297635497"/>
      <point x="714.0" y="210.0" type="curve" smooth="yes"/>
    </contour>
  </outline>
</glyph>
<glyph name="l" format="2">
  <advance height="1920" width="590"/>
  <unicode hex="006C"/>
  <outline>
    <contour>
      <point x="290.0" y="1480.0" type="curve" smooth="yes"/>
      <point x="300.0" y="1480.0" type="line" smooth="yes"/>
      <point x="447.0" y="1480.0"/>
      <point x="540.0" y="1397.0"/>
      <point x="540.0" y="1220.0" type="curve" smooth="yes"/>
      <point x="540.0" y="230.0" type="line" smooth="yes"/>
      <point x="540.0" y="53.0"/>
      <point x="446.595703125" y="-30.0"/>
      <point x="300.0" y="-30.0" type="curve" smooth="yes"/>
      <point x="290.0" y="-30.0" type="line" smooth="yes"/>
      <point x="143.0" y="-30.0"/>
      <point x="50.0" y="53.0"/>
      <point x="50.0" y="230.0" type="curve" smooth="yes"/>
      <point x="50.0" y="1220.0" type="line" smooth="yes"/>
      <point x="50.0" y="1397.0"/>
      <point x="143.0" y="1480.0"/>
    </contour>
  </outline>
</glyph>
<glyph name="m" format="2">
  <advance height="1920" width="1625"/>
  <unicode hex="006D"/>
  <outline>
    <contour>
      <point x="940.0" y="703.0" type="line"/>
      <point x="940.0" y="943.0"/>
      <point x="1088.0" y="1085.0"/>
      <point x="1285.0" y="1085.0" type="curve" smooth="yes"/>
      <point x="1492.0" y="1085.0"/>
      <point x="1580.0" y="972.995117188"/>
      <point x="1580.0" y="663.0" type="curve" smooth="yes"/>
      <point x="1580.0" y="230.0" type="line" smooth="yes"/>
      <point x="1580.0" y="53.0"/>
      <point x="1502.0" y="-30.0"/>
      <point x="1355.0" y="-30.0" type="curve" smooth="yes"/>
      <point x="1335.0" y="-30.0" type="line" smooth="yes"/>
      <point x="1188.0" y="-30.0"/>
      <point x="1110.0" y="53.0"/>
      <point x="1110.0" y="230.0" type="curve" smooth="yes"/>
      <point x="1110.0" y="613.0" type="line" smooth="yes"/>
      <point x="1110.0" y="713.0"/>
      <point x="1102.0" y="755.0"/>
      <point x="1065.0" y="755.0" type="curve" smooth="yes"/>
      <point x="1028.0" y="755.0"/>
      <point x="1010.0" y="683.0"/>
      <point x="1010.0" y="473.0" type="curve"/>
    </contour>
    <contour>
      <point x="270.0" y="1080.0" type="curve" smooth="yes"/>
      <point x="290.0" y="1080.0" type="line" smooth="yes"/>
      <point x="437.0" y="1080.0"/>
      <point x="510.0" y="997.0"/>
      <point x="510.0" y="820.0" type="curve" smooth="yes"/>
      <point x="510.0" y="687.0" type="line"/>
      <point x="520.0" y="660.0" type="line"/>
      <point x="520.0" y="230.0" type="line" smooth="yes"/>
      <point x="520.0" y="53.0"/>
      <point x="432.0" y="-30.0"/>
      <point x="295.0" y="-30.0" type="curve" smooth="yes"/>
      <point x="275.0" y="-30.0" type="line" smooth="yes"/>
      <point x="128.0" y="-30.0"/>
      <point x="50.0" y="53.0"/>
      <point x="50.0" y="230.0" type="curve" smooth="yes"/>
      <point x="50.0" y="820.0" type="line" smooth="yes"/>
      <point x="50.0" y="997.0"/>
      <point x="123.0" y="1080.0"/>
    </contour>
    <contour>
      <point x="470.0" y="703.0" type="line"/>
      <point x="470.0" y="943.0"/>
      <point x="568.0" y="1085.0"/>
      <point x="755.0" y="1085.0" type="curve" smooth="yes"/>
      <point x="942.0" y="1085.0"/>
      <point x="1010.0" y="972.995117188"/>
      <point x="1010.0" y="663.0" type="curve" smooth="yes"/>
      <point x="1010.0" y="230.0" type="line" smooth="yes"/>
      <point x="1010.0" y="53.0"/>
      <point x="967.0" y="-30.0"/>
      <point x="820.0" y="-30.0" type="curve" smooth="yes"/>
      <point x="810.0" y="-30.0" type="line" smooth="yes"/>
      <point x="663.0" y="-30.0"/>
      <point x="620.0" y="53.0"/>
      <point x="620.0" y="230.0" type="curve" smooth="yes"/>
      <point x="620.0" y="613.0" type="line" smooth="yes"/>
      <point x="620.0" y="713.0"/>
      <point x="612.0" y="755.0"/>
      <point x="575.0" y="755.0" type="curve" smooth="yes"/>
      <point x="538.0" y="755.0"/>
      <point x="520.0" y="683.0"/>
      <point x="520.0" y="473.0" type="curve"/>
    </contour>
  </outline>
</glyph>
<glyph name="n" format="2">
  <advance height="1920" width="1255"/>
  <unicode hex="006E"/>
  <anchor x="629.0" y="0.0" name="bottom"/>
  <anchor x="630.0" y="1050.0" name="top"/>
  <outline>
    <contour>
      <point x="285.0" y="1080.0" type="curve" smooth="yes"/>
      <point x="295.0" y="1080.0" type="line" smooth="yes"/>
      <point x="442.0" y="1080.0"/>
      <point x="530.0" y="997.0"/>
      <point x="530.0" y="820.0" type="curve" smooth="yes"/>
      <point x="530.0" y="687.0" type="line"/>
      <point x="540.0" y="660.0" type="line"/>
      <point x="540.0" y="230.0" type="line" smooth="yes"/>
      <point x="540.0" y="53.0"/>
      <point x="447.0" y="-30.0"/>
      <point x="300.0" y="-30.0" type="curve" smooth="yes"/>
      <point x="290.0" y="-30.0" type="line" smooth="yes"/>
      <point x="143.0" y="-30.0"/>
      <point x="50.0" y="53.0"/>
      <point x="50.0" y="230.0" type="curve" smooth="yes"/>
      <point x="50.0" y="820.0" type="line" smooth="yes"/>
      <point x="50.0" y="997.0"/>
      <point x="138.0" y="1080.0"/>
    </contour>
    <contour>
      <point x="490.0" y="703.0" type="line"/>
      <point x="490.0" y="943.0"/>
      <point x="648.0" y="1085.0"/>
      <point x="865.0" y="1085.0" type="curve" smooth="yes"/>
      <point x="1092.0" y="1085.0"/>
      <point x="1210.0" y="972.995117188"/>
      <point x="1210.0" y="663.0" type="curve" smooth="yes"/>
      <point x="1210.0" y="230.0" type="line" smooth="yes"/>
      <point x="1210.0" y="53.0"/>
      <point x="1117.0" y="-30.0"/>
      <point x="970.0" y="-30.0" type="curve" smooth="yes"/>
      <point x="960.0" y="-30.0" type="line" smooth="yes"/>
      <point x="813.0" y="-30.0"/>
      <point x="720.0" y="53.0"/>
      <point x="720.0" y="230.0" type="curve" smooth="yes"/>
      <point x="720.0" y="613.0" type="line" smooth="yes"/>
      <point x="720.0" y="713.0"/>
      <point x="702.0" y="755.0"/>
      <point x="645.0" y="755.0" type="curve" smooth="yes"/>
      <point x="588.0" y="755.0"/>
      <point x="540.0" y="683.0"/>
      <point x="540.0" y="473.0" type="curve"/>
    </contour>
  </outline>
</glyph>
<glyph name="o" format="2">
  <advance height="1920" width="1280"/>
  <unicode hex="006F"/>
  <anchor x="639.0" y="0.0" name="bottom"/>
  <anchor x="640.0" y="1050.0" name="top"/>
  <outline>
    <contour>
      <point x="25.0" y="448.0" type="curve" smooth="yes"/>
      <point x="25.0" y="603.0" type="line" smooth="yes"/>
      <point x="25.0" y="893.0"/>
      <point x="263.0" y="1085.0"/>
      <point x="640.0" y="1085.0" type="curve" smooth="yes"/>
      <point x="1017.0" y="1085.0"/>
      <point x="1255.0" y="893.0"/>
      <point x="1255.0" y="603.0" type="curve" smooth="yes"/>
      <point x="1255.0" y="448.0" type="line" smooth="yes"/>
      <point x="1255.0" y="158.0"/>
      <point x="1017.0" y="-35.0"/>
      <point x="640.0" y="-35.0" type="curve" smooth="yes"/>
      <point x="263.0" y="-35.0"/>
      <point x="25.0" y="158.0"/>
    </contour>
    <contour>
      <point x="520.0" y="418.0" type="line" smooth="yes"/>
      <point x="520.0" y="298.0"/>
      <point x="553.0" y="245.0"/>
      <point x="640.0" y="245.0" type="curve" smooth="yes"/>
      <point x="727.0" y="245.0"/>
      <point x="760.0" y="298.0"/>
      <point x="760.0" y="418.0" type="curve" smooth="yes"/>
      <point x="760.0" y="633.0" type="line" smooth="yes"/>
      <point x="760.0" y="753.0"/>
      <point x="727.0" y="805.0"/>
      <point x="640.0" y="805.0" type="curve" smooth="yes"/>
      <point x="553.0" y="805.0"/>
      <point x="520.0" y="753.0"/>
      <point x="520.0" y="633.0" type="curve" smooth="yes"/>
    </contour>
  </outline>
</glyph>
<glyph name="p" format="2">
  <advance height="1920" width="1315"/>
  <unicode hex="0070"/>
  <outline>
    <contour>
      <point x="480.0" y="633.0" type="line"/>
      <point x="480.0" y="923.0"/>
      <point x="617.0" y="1085.0"/>
      <point x="874.0" y="1085.0" type="curve" smooth="yes"/>
      <point x="1141.0" y="1085.0"/>
      <point x="1290.0" y="943.0"/>
      <point x="1290.0" y="603.0" type="curve" smooth="yes"/>
      <point x="1290.0" y="447.0" type="line" smooth="yes"/>
      <point x="1290.0" y="107.0"/>
      <point x="1141.0" y="-35.0"/>
      <point x="874.0" y="-35.0" type="curve" smooth="yes"/>
      <point x="617.0" y="-35.0"/>
      <point x="480.0" y="127.0"/>
      <point x="480.0" y="417.0" type="curve"/>
      <point x="540.0" y="487.0" type="line"/>
      <point x="540.0" y="377.0"/>
      <point x="587.0" y="305.0"/>
      <point x="664.0" y="305.0" type="curve" smooth="yes"/>
      <point x="751.0" y="305.0"/>
      <point x="800.0" y="357.0"/>
      <point x="800.0" y="467.0" type="curve" smooth="yes"/>
      <point x="800.0" y="583.0" type="line" smooth="yes"/>
      <point x="800.0" y="693.0"/>
      <point x="751.0" y="745.0"/>
      <point x="664.0" y="745.0" type="curve" smooth="yes"/>
      <point x="587.0" y="745.0"/>
      <point x="540.0" y="673.0"/>
      <point x="540.0" y="563.0" type="curve"/>
    </contour>
    <contour>
      <point x="50.0" y="-130.0" type="curve" smooth="yes"/>
      <point x="50.0" y="820.0" type="line" smooth="yes"/>
      <point x="50.0" y="987.0"/>
      <point x="138.0" y="1080.0"/>
      <point x="285.0" y="1080.0" type="curve" smooth="yes"/>
      <point x="290.0" y="1080.0" type="line" smooth="yes"/>
      <point x="437.0" y="1080.0"/>
      <point x="525.0" y="987.0"/>
      <point x="525.0" y="820.0" type="curve" smooth="yes"/>
      <point x="525.0" y="810.0" type="line"/>
      <point x="540.0" y="798.0" type="line"/>
      <point x="540.0" y="-130.0" type="line" smooth="yes"/>
      <point x="540.0" y="-297.0"/>
      <point x="447.0" y="-390.0"/>
      <point x="300.0" y="-390.0" type="curve" smooth="yes"/>
      <point x="290.0" y="-390.0" type="line" smooth="yes"/>
      <point x="143.0" y="-390.0"/>
      <point x="50.0" y="-297.0"/>
    </contour>
  </outline>
</glyph>
<glyph name="q" format="2">
  <advance height="1920" width="1315"/>
  <unicode hex="0071"/>
  <outline>
    <contour>
      <point x="1025.0" y="-390.0" type="curve" smooth="yes"/>
      <point x="1015.0" y="-390.0" type="line" smooth="yes"/>
      <point x="868.0" y="-390.0"/>
      <point x="775.0" y="-307.0"/>
      <point x="775.0" y="-140.0" type="curve" smooth="yes"/>
      <point x="775.0" y="715.0" type="line"/>
      <point x="1002.0" y="985.0" type="line" smooth="yes"/>
      <point x="1047.43652344" y="1039.04296875"/>
      <point x="1088.0" y="1075.0"/>
      <point x="1145.0" y="1075.0" type="curve" smooth="yes"/>
      <point x="1156.0" y="1075.0" type="line" smooth="yes"/>
      <point x="1223.0" y="1075.0"/>
      <point x="1265.0" y="1022.0"/>
      <point x="1265.0" y="865.0" type="curve" smooth="yes"/>
      <point x="1265.0" y="-140.0" type="line" smooth="yes"/>
      <point x="1265.0" y="-307.0"/>
      <point x="1172.0" y="-390.0"/>
    </contour>
    <contour>
      <point x="835.0" y="417.0" type="line"/>
      <point x="835.0" y="127.0"/>
      <point x="698.0" y="-35.0"/>
      <point x="441.0" y="-35.0" type="curve" smooth="yes"/>
      <point x="174.0" y="-35.0"/>
      <point x="25.0" y="107.0"/>
      <point x="25.0" y="447.0" type="curve" smooth="yes"/>
      <point x="25.0" y="603.0" type="line" smooth="yes"/>
      <point x="25.0" y="923.0"/>
      <point x="214.0" y="1085.0"/>
      <point x="531.0" y="1085.0" type="curve" smooth="yes"/>
      <point x="818.0" y="1085.0"/>
      <point x="1025.0" y="923.0"/>
      <point x="1025.0" y="633.0" type="curve"/>
      <point x="775.0" y="563.0" type="line"/>
      <point x="775.0" y="703.0"/>
      <point x="728.0" y="745.0"/>
      <point x="651.0" y="745.0" type="curve" smooth="yes"/>
      <point x="564.0" y="745.0"/>
      <point x="515.0" y="693.0"/>
      <point x="515.0" y="583.0" type="curve" smooth="yes"/>
      <point x="515.0" y="467.0" type="line" smooth="yes"/>
      <point x="515.0" y="357.0"/>
      <point x="564.0" y="305.0"/>
      <point x="651.0" y="305.0" type="curve" smooth="yes"/>
      <point x="728.0" y="305.0"/>
      <point x="775.0" y="377.0"/>
      <point x="775.0" y="487.0" type="curve"/>
    </contour>
  </outline>
</glyph>
<glyph name="r" format="2">
  <advance height="1920" width="935"/>
  <unicode hex="0072"/>
  <anchor x="324.0" y="0.0" name="bottom"/>
  <anchor x="475.0" y="1050.0" name="top"/>
  <outline>
    <contour>
      <point x="290.0" y="1080.0" type="curve" smooth="yes"/>
      <point x="305.0" y="1080.0" type="line" smooth="yes"/>
      <point x="453.283203125" y="1080.0"/>
      <point x="525.0" y="996.576171875"/>
      <point x="525.0" y="820.0" type="curve" smooth="yes"/>
      <point x="525.0" y="724.0" type="line"/>
      <point x="560.0" y="715.0" type="line"/>
      <point x="560.0" y="230.0" type="line" smooth="yes"/>
      <point x="560.0" y="51.716796875"/>
      <point x="466.576171875" y="-30.0"/>
      <point x="320.0" y="-30.0" type="curve" smooth="yes"/>
      <point x="310.0" y="-30.0" type="line" smooth="yes"/>
      <point x="163.513671875" y="-30.0"/>
      <point x="70.0" y="53.5029296875"/>
      <point x="70.0" y="230.0" type="curve" smooth="yes"/>
      <point x="70.0" y="820.0" type="line" smooth="yes"/>
      <point x="70.0" y="996.486328125"/>
      <point x="143.502929688" y="1080.0"/>
    </contour>
    <contour>
      <point x="500.0" y="623.0" type="line"/>
      <point x="500.0" y="808.681640625"/>
      <point x="521.539056168" y="1052.33015093"/>
      <point x="771.0" y="1074.02832031" type="curve" smooth="yes"/>
      <point x="871.305664062" y="1082.75292969"/>
      <point x="965.0" y="1037.26171875"/>
      <point x="965.0" y="910.0" type="curve" smooth="yes"/>
      <point x="965.0" y="880.0" type="line" smooth="yes"/>
      <point x="965.0" y="713.345703125"/>
      <point x="900.764648438" y="672.184570312"/>
      <point x="788.0" y="674.64453125" type="curve" smooth="yes"/>
      <point x="623.021484375" y="678.244140625"/>
      <point x="560.0" y="579.54296875"/>
      <point x="560.0" y="383.0" type="curve"/>
    </contour>
  </outline>
</glyph>
<glyph name="t" format="2">
  <advance height="1920" width="815"/>
  <unicode hex="0074"/>
  <anchor x="559.0" y="0.0" name="bottom"/>
  <outline>
    <contour>
      <point x="555.0" y="810.0" type="curve" smooth="yes"/>
      <point x="215.0" y="810.0" type="line" smooth="yes"/>
      <point x="38.0" y="810.0"/>
      <point x="-45.0" y="828.0"/>
      <point x="-45.0" y="925.0" type="curve" smooth="yes"/>
      <point x="-45.0" y="935.0" type="line" smooth="yes"/>
      <point x="-45.0" y="1032.0"/>
      <point x="38.0" y="1050.0"/>
      <point x="215.0" y="1050.0" type="curve" smooth="yes"/>
      <point x="555.0" y="1050.0" type="line" smooth="yes"/>
      <point x="732.0" y="1050.0"/>
      <point x="815.0" y="1032.0"/>
      <point x="815.0" y="935.0" type="curve" smooth="yes"/>
      <point x="815.0" y="925.0" type="line" smooth="yes"/>
      <point x="815.0" y="828.0"/>
      <point x="732.0" y="810.0"/>
    </contour>
    <contour>
      <point x="840.0" y="190.0" type="curve" smooth="yes"/>
      <point x="840.0" y="180.0" type="line" smooth="yes"/>
      <point x="840.0" y="82.9619140625"/>
      <point x="786.659516648" y="1.97326155979"/>
      <point x="630.0" y="-8.30859375" type="curve" smooth="yes"/>
      <point x="288.971249258" y="-30.6909446384"/>
      <point x="115.0" y="44.3720703125"/>
      <point x="115.0" y="352.0" type="curve" smooth="yes"/>
      <point x="115.0" y="1070.0" type="line" smooth="yes"/>
      <point x="115.0" y="1247.0"/>
      <point x="208.0" y="1340.0"/>
      <point x="355.0" y="1340.0" type="curve" smooth="yes"/>
      <point x="360.0" y="1340.0" type="line" smooth="yes"/>
      <point x="507.0" y="1340.0"/>
      <point x="600.0" y="1247.0"/>
      <point x="600.0" y="1070.0" type="curve" smooth="yes"/>
      <point x="600.0" y="422.0" type="line" smooth="yes"/>
      <point x="600.0" y="314.506835938"/>
      <point x="679.959160285" y="325.195600703"/>
      <point x="711.000036522" y="325.901419727" type="curve" smooth="yes"/>
      <point x="786.983676192" y="327.629164072"/>
      <point x="840.0" y="286.951171875"/>
    </contour>
  </outline>
</glyph>
<glyph name="v" format="2">
  <advance height="1920" width="1218"/>
  <unicode hex="0076"/>
  <outline>
    <contour>
      <point x="668.650390625" y="338.0" type="line"/>
      <point x="762.650390625" y="820.0" type="line" smooth="yes"/>
      <point x="795.403651135" y="987.947569851"/>
      <point x="843.650390625" y="1080.0"/>
      <point x="990.650390625" y="1080.0" type="curve" smooth="yes"/>
      <point x="1000.65039062" y="1080.0" type="line" smooth="yes"/>
      <point x="1157.65039062" y="1080.0"/>
      <point x="1214.45335512" y="982.952854448"/>
      <point x="1168.65039062" y="820.0" type="curve" smooth="yes"/>
      <point x="1002.65039062" y="230.0" type="line" smooth="yes"/>
      <point x="951.492578836" y="48.1740424376"/>
      <point x="837.650390625" y="-30.0"/>
      <point x="690.650390625" y="-30.0" type="curve" smooth="yes"/>
      <point x="566.650390625" y="-30.0" type="line" smooth="yes"/>
      <point x="419.650390625" y="-30.0"/>
      <point x="308.167111403" y="53.2432412928"/>
      <point x="247.650390625" y="230.0" type="curve" smooth="yes"/>
      <point x="70.650390625" y="750.0" type="line" smooth="yes"/>
      <point x="7.44988399475" y="935.673804789"/>
      <point x="119.650390625" y="1080.0"/>
      <point x="286.650390625" y="1080.0" type="curve" smooth="yes"/>
      <point x="296.650390625" y="1080.0" type="line" smooth="yes"/>
      <point x="463.650390625" y="1080.0"/>
      <point x="541.897130115" y="987.947569851"/>
      <point x="574.650390625" y="820.0" type="curve" smooth="yes"/>
    </contour>
  </outline>
</glyph>
<glyph name="w" format="2">
  <advance height="1920" width="1530"/>
  <unicode hex="0077"/>
  <outline>
    <contour>
      <point x="1122.26464844" y="468.0" type="line"/>
      <point x="1163.26464844" y="820.0" type="line" smooth="yes"/>
      <point x="1183.38603612" y="992.749474709"/>
      <point x="1220.26464844" y="1080.0"/>
      <point x="1337.26464844" y="1080.0" type="curve" smooth="yes"/>
      <point x="1357.26464844" y="1080.0" type="line" smooth="yes"/>
      <point x="1474.26464844" y="1080.0"/>
      <point x="1512.73227524" y="990.588419069"/>
      <point x="1485.26464844" y="820.0" type="curve" smooth="yes"/>
      <point x="1390.26464844" y="230.0" type="line" smooth="yes"/>
      <point x="1362.79702164" y="59.4115809306"/>
      <point x="1259.26464844" y="-30.0"/>
      <point x="1112.26464844" y="-30.0" type="curve" smooth="yes"/>
      <point x="1077.26464844" y="-30.0" type="line" smooth="yes"/>
      <point x="930.264648438" y="-30.0"/>
      <point x="830.062933469" y="60.2896116985"/>
      <point x="794.264648438" y="230.0" type="curve" smooth="yes"/>
      <point x="767.264648438" y="358.0" type="line"/>
      <point x="746.264648438" y="230.0" type="line" smooth="yes"/>
      <point x="718.079773808" y="58.2064784549"/>
      <point x="619.264648438" y="-30.0"/>
      <point x="472.264648438" y="-30.0" type="curve" smooth="yes"/>
      <point x="427.264648438" y="-30.0" type="line" smooth="yes"/>
      <point x="280.264648438" y="-30.0"/>
      <point x="178.227394051" y="58.7149452953"/>
      <point x="149.264648438" y="230.0" type="curve" smooth="yes"/>
      <point x="56.2646484375" y="780.0" type="line" smooth="yes"/>
      <point x="22.6878757808" y="978.57231141"/>
      <point x="110.264648438" y="1080.0"/>
      <point x="267.264648438" y="1080.0" type="curve" smooth="yes"/>
      <point x="268.264648438" y="1080.0" type="line" smooth="yes"/>
      <point x="415.264648438" y="1080.0"/>
      <point x="493.193102885" y="992.245281508"/>
      <point x="517.264648438" y="820.0" type="curve" smooth="yes"/>
      <point x="562.264648438" y="498.0" type="line"/>
      <point x="629.264648438" y="820.0" type="line" smooth="yes"/>
      <point x="664.42157832" y="988.963155554"/>
      <point x="690.264648438" y="1080.0"/>
      <point x="837.264648438" y="1080.0" type="curve" smooth="yes"/>
      <point x="842.264648438" y="1080.0" type="line" smooth="yes"/>
      <point x="989.264648438" y="1080.0"/>
      <point x="1015.64077509" y="989.272269692"/>
      <point x="1050.26464844" y="820.0" type="curve" smooth="yes"/>
    </contour>
  </outline>
</glyph>
<glyph name="x" format="2">
  <advance height="1920" width="1277"/>
  <unicode hex="0078"/>
  <outline>
    <contour>
      <point x="210.868164062" y="-30.0" type="curve" smooth="yes"/>
      <point x="205.868164062" y="-30.0" type="line" smooth="yes"/>
      <point x="38.8681640625" y="-30.0"/>
      <point x="4.09674805826" y="111.796269065"/>
      <point x="142.868164062" y="290.0" type="curve" smooth="yes"/>
      <point x="325.868164062" y="525.0" type="line"/>
      <point x="139.868164062" y="790.0" type="line" smooth="yes"/>
      <point x="35.3350665492" y="938.931563662"/>
      <point x="163.868164062" y="1090.0"/>
      <point x="340.868164062" y="1090.0" type="curve" smooth="yes"/>
      <point x="355.868164062" y="1090.0" type="line" smooth="yes"/>
      <point x="532.926757812" y="1090.0"/>
      <point x="614.418675918" y="1011.12372037"/>
      <point x="658.868164062" y="900.0" type="curve" smooth="yes"/>
      <point x="668.868164062" y="875.0" type="line"/>
      <point x="705.868164062" y="920.0" type="line" smooth="yes"/>
      <point x="789.809616638" y="1022.09095583"/>
      <point x="843.758789062" y="1080.0"/>
      <point x="950.868164062" y="1080.0" type="curve" smooth="yes"/>
      <point x="965.868164062" y="1080.0" type="line" smooth="yes"/>
      <point x="1142.86816406" y="1080.0"/>
      <point x="1173.8507793" y="918.91897039"/>
      <point x="1073.86816406" y="820.0" type="curve" smooth="yes"/>
      <point x="885.868164062" y="634.0" type="line"/>
      <point x="1110.86816406" y="310.0" type="line" smooth="yes"/>
      <point x="1224.90264063" y="145.790353738"/>
      <point x="1147.86816406" y="-40.0"/>
      <point x="980.868164062" y="-40.0" type="curve" smooth="yes"/>
      <point x="940.868164062" y="-40.0" type="line" smooth="yes"/>
      <point x="792.809570312" y="-40.0"/>
      <point x="685.79735128" y="43.6341159394"/>
      <point x="599.868164062" y="180.0" type="curve" smooth="yes"/>
      <point x="553.868164062" y="253.0" type="line"/>
      <point x="534.868164062" y="220.0" type="line" smooth="yes"/>
      <point x="449.38211207" y="71.5242254834"/>
      <point x="357.977539062" y="-30.0"/>
    </contour>
  </outline>
</glyph>
<glyph name="y" format="2">
  <advance height="1920" width="1209"/>
  <unicode hex="0079"/>
  <anchor x="616.894" y="1050.0" name="top"/>
  <outline>
    <contour>
      <point x="660.893554688" y="338.0" type="line"/>
      <point x="753.893554688" y="820.0" type="line" smooth="yes"/>
      <point x="784.453926329" y="978.388162701"/>
      <point x="854.865234375" y="1080.0"/>
      <point x="981.893554688" y="1080.0" type="curve" smooth="yes"/>
      <point x="1001.89355469" y="1080.0" type="line" smooth="yes"/>
      <point x="1158.89355469" y="1080.0"/>
      <point x="1198.39564092" y="960.346415212"/>
      <point x="1147.89355469" y="790.0" type="curve" smooth="yes"/>
      <point x="954.893554688" y="139.0" type="line" smooth="yes"/>
      <point x="795.919032907" y="-397.230122694"/>
      <point x="526.577148438" y="-405.973632812"/>
      <point x="233.893554688" y="-373.859375" type="curve" smooth="yes"/>
      <point x="53.14453125" y="-354.02734375"/>
      <point x="-47.1064453125" y="-267.043945312"/>
      <point x="-47.1064453125" y="-180.0" type="curve" smooth="yes"/>
      <point x="-47.1064453125" y="-165.0" type="line" smooth="yes"/>
      <point x="-47.1064453125" y="-68.0888671875"/>
      <point x="36.5126953125" y="-11.6572265625"/>
      <point x="113.893554688" y="-34.4189453125" type="curve" smooth="yes"/>
      <point x="159.951171875" y="-47.966796875"/>
      <point x="270.670898438" y="-104.548828125"/>
      <point x="323.893554688" y="-10.0" type="curve"/>
      <point x="55.8935546875" y="790.0" type="line" smooth="yes"/>
      <point x="-0.473432073888" y="958.259661974"/>
      <point x="99.8935546875" y="1080.0"/>
      <point x="266.893554688" y="1080.0" type="curve" smooth="yes"/>
      <point x="306.893554688" y="1080.0" type="line" smooth="yes"/>
      <point x="453.893554688" y="1080.0"/>
      <point x="530.74541893" y="978.116341174"/>
      <point x="562.893554688" y="820.0" type="curve" smooth="yes"/>
    </contour>
  </outline>
</glyph>
<glyph name="z" format="2">
  <advance height="1920" width="1130"/>
  <unicode hex="007A"/>
  <anchor x="575.001" y="1050.0" name="top"/>
  <outline>
    <contour>
      <point x="142.000976562" y="310.0" type="curve" smooth="yes"/>
      <point x="439.000976562" y="700.0" type="line"/>
      <point x="352.000976562" y="700.0" type="line" smooth="yes"/>
      <point x="173.481445312" y="700.0"/>
      <point x="92.0009765625" y="771.404296875"/>
      <point x="92.0009765625" y="870.0" type="curve" smooth="yes"/>
      <point x="92.0009765625" y="880.0" type="line" smooth="yes"/>
      <point x="92.0009765625" y="978.520507812"/>
      <point x="173.405273438" y="1050.0"/>
      <point x="352.000976562" y="1050.0" type="curve" smooth="yes"/>
      <point x="872.000976562" y="1050.0" type="line" smooth="yes"/>
      <point x="1069.00097656" y="1050.0"/>
      <point x="1080.67954815" y="885.220046292"/>
      <point x="986.000976562" y="760.0" type="curve" smooth="yes"/>
      <point x="676.000976562" y="350.0" type="line"/>
      <point x="862.000976562" y="350.0" type="line" smooth="yes"/>
      <point x="1039.00097656" y="350.0"/>
      <point x="1122.00097656" y="277.0"/>
      <point x="1122.00097656" y="180.0" type="curve" smooth="yes"/>
      <point x="1122.00097656" y="170.0" type="line" smooth="yes"/>
      <point x="1122.00097656" y="73.015625"/>
      <point x="1039.00097656" y="-2.16762483449e-14"/>
      <point x="862.000976562" y="0.0" type="curve" smooth="yes"/>
      <point x="242.000976562" y="0.0" type="line" smooth="yes"/>
      <point x="56.0009765625" y="0.0"/>
      <point x="36.4607114306" y="171.411773059"/>
    </contour>
  </outline>
</glyph>
<glyph name="braceleft" format="2">
  <advance height="2048" width="775"/>
  <unicode hex="007B"/>
  <outline>
    <contour>
      <point x="155.0" y="1278.0" type="line" smooth="yes"/>
      <point x="155.0" y="1505.0"/>
      <point x="276.99308536" y="1589.86915731"/>
      <point x="565.0" y="1600.0" type="curve" smooth="yes"/>
      <point x="671.9337853" y="1603.76146996"/>
      <point x="705.0" y="1547.0"/>
      <point x="705.0" y="1480.0" type="curve" smooth="yes"/>
      <point x="705.0" y="1470.0" type="line" smooth="yes"/>
      <point x="705.0" y="1403.0"/>
      <point x="681.973632812" y="1370.65136719"/>
      <point x="614.0" y="1360.0" type="curve" smooth="yes"/>
      <point x="565.429631401" y="1352.38909546"/>
      <point x="530.0" y="1312.0"/>
      <point x="530.0" y="1138.0" type="curve" smooth="yes"/>
      <point x="530.0" y="956.0" type="line" smooth="yes"/>
      <point x="530.0" y="771.0"/>
      <point x="442.0" y="668.0"/>
      <point x="286.0" y="620.0" type="curve"/>
      <point x="442.0" y="572.0"/>
      <point x="530.0" y="469.0"/>
      <point x="530.0" y="284.0" type="curve" smooth="yes"/>
      <point x="530.0" y="112.0" type="line" smooth="yes"/>
      <point x="530.0" y="-61.0"/>
      <point x="565.221914542" y="-102.463719288"/>
      <point x="612.0" y="-110.0" type="curve" smooth="yes"/>
      <point x="681.96875" y="-121.272460938"/>
      <point x="705.0" y="-153.0"/>
      <point x="705.0" y="-220.0" type="curve" smooth="yes"/>
      <point x="705.0" y="-240.0" type="line" smooth="yes"/>
      <point x="705.0" y="-307.0"/>
      <point x="671.92859244" y="-363.93410789"/>
      <point x="563.0" y="-360.0" type="curve" smooth="yes"/>
      <point x="276.972220043" y="-349.669708195"/>
      <point x="155.0" y="-265.0"/>
      <point x="155.0" y="-38.0" type="curve" smooth="yes"/>
      <point x="155.0" y="284.0" type="line" smooth="yes"/>
      <point x="155.0" y="397.0"/>
      <point x="129.750976562" y="450.965820312"/>
      <point x="82.0" y="472.0" type="curve" smooth="yes"/>
      <point x="23.3046875" y="497.854492188"/>
      <point x="-20.0" y="519.0"/>
      <point x="-20.0" y="616.0" type="curve" smooth="yes"/>
      <point x="-20.0" y="624.0" type="line" smooth="yes"/>
      <point x="-20.0" y="721.0"/>
      <point x="23.333984375" y="742.7890625"/>
      <point x="80.0" y="767.0" type="curve" smooth="yes"/>
      <point x="132.46484375" y="789.416015625"/>
      <point x="155.0" y="842.0"/>
      <point x="155.0" y="956.0" type="curve" smooth="yes"/>
    </contour>
  </outline>
</glyph>
<glyph name="bar" format="2">
  <advance height="1920" width="515"/>
  <unicode hex="007C"/>
  <outline>
    <contour>
      <point x="248.0" y="1630.0" type="curve" smooth="yes"/>
      <point x="268.0" y="1630.0" type="line" smooth="yes"/>
      <point x="375.0" y="1630.0"/>
      <point x="438.0" y="1507.0"/>
      <point x="438.0" y="1390.0" type="curve" smooth="yes"/>
      <point x="438.0" y="-150.0" type="line" smooth="yes"/>
      <point x="438.0" y="-257.0"/>
      <point x="375.0" y="-390.0"/>
      <point x="268.0" y="-390.0" type="curve" smooth="yes"/>
      <point x="248.0" y="-390.0" type="line" smooth="yes"/>
      <point x="141.0" y="-390.0"/>
      <point x="78.0" y="-257.0"/>
      <point x="78.0" y="-150.0" type="curve" smooth="yes"/>
      <point x="78.0" y="1390.0" type="line" smooth="yes"/>
      <point x="78.0" y="1507.0"/>
      <point x="141.0" y="1630.0"/>
    </contour>
  </outline>
</glyph>
<glyph name="braceright" format="2">
  <advance height="2048" width="775"/>
  <unicode hex="007D"/>
  <outline>
    <contour>
      <point x="620.0" y="-38.0" type="line" smooth="yes"/>
      <point x="620.0" y="-265.0"/>
      <point x="498.006835938" y="-349.869140625"/>
      <point x="210.0" y="-360.0" type="curve" smooth="yes"/>
      <point x="103.06640625" y="-363.76171875"/>
      <point x="70.0" y="-307.0"/>
      <point x="70.0" y="-240.0" type="curve" smooth="yes"/>
      <point x="70.0" y="-230.0" type="line" smooth="yes"/>
      <point x="70.0" y="-163.0"/>
      <point x="93.0263671875" y="-130.651367188"/>
      <point x="161.0" y="-120.0" type="curve" smooth="yes"/>
      <point x="209.5703125" y="-112.388671875"/>
      <point x="245.0" y="-72.0"/>
      <point x="245.0" y="102.0" type="curve" smooth="yes"/>
      <point x="245.0" y="284.0" type="line" smooth="yes"/>
      <point x="245.0" y="469.0"/>
      <point x="333.0" y="572.0"/>
      <point x="489.0" y="620.0" type="curve"/>
      <point x="333.0" y="668.0"/>
      <point x="245.0" y="771.0"/>
      <point x="245.0" y="956.0" type="curve" smooth="yes"/>
      <point x="245.0" y="1128.0" type="line" smooth="yes"/>
      <point x="245.0" y="1301.0"/>
      <point x="209.778320312" y="1342.46386719"/>
      <point x="163.0" y="1350.0" type="curve" smooth="yes"/>
      <point x="93.03125" y="1361.27246094"/>
      <point x="70.0" y="1393.0"/>
      <point x="70.0" y="1460.0" type="curve" smooth="yes"/>
      <point x="70.0" y="1480.0" type="line" smooth="yes"/>
      <point x="70.0" y="1547.0"/>
      <point x="103.071289062" y="1603.93457031"/>
      <point x="212.0" y="1600.0" type="curve" smooth="yes"/>
      <point x="498.02734375" y="1589.66992188"/>
      <point x="620.0" y="1505.0"/>
      <point x="620.0" y="1278.0" type="curve" smooth="yes"/>
      <point x="620.0" y="956.0" type="line" smooth="yes"/>
      <point x="620.0" y="843.0"/>
      <point x="645.249023438" y="789.034179688"/>
      <point x="693.0" y="768.0" type="curve" smooth="yes"/>
      <point x="751.6953125" y="742.145507812"/>
      <point x="795.0" y="721.0"/>
      <point x="795.0" y="624.0" type="curve" smooth="yes"/>
      <point x="795.0" y="616.0" type="line" smooth="yes"/>
      <point x="795.0" y="519.0"/>
      <point x="751.666015625" y="497.2109375"/>
      <point x="695.0" y="473.0" type="curve" smooth="yes"/>
      <point x="642.53515625" y="450.583984375"/>
      <point x="620.0" y="398.0"/>
      <point x="620.0" y="284.0" type="curve" smooth="yes"/>
    </contour>
  </outline>
</glyph>
<glyph name="asciitilde" format="2">
  <advance height="2048" width="1330"/>
  <unicode hex="007E"/>
  <outline>
    <contour>
      <point x="422.0" y="519.0" type="curve" smooth="yes"/>
      <point x="379.913085938" y="519.0"/>
      <point x="366.174804688" y="499.250976562"/>
      <point x="360.083984375" y="477.0" type="curve" smooth="yes"/>
      <point x="339.29296875" y="401.049804688"/>
      <point x="276.9140625" y="368.0"/>
      <point x="200.0" y="368.0" type="curve" smooth="yes"/>
      <point x="180.0" y="368.0" type="line" smooth="yes"/>
      <point x="72.9111328125" y="368.0"/>
      <point x="1.6155127452" y="464.894713422"/>
      <point x="30.0888671875" y="567.0" type="curve" smooth="yes"/>
      <point x="60.3250502816" y="675.426780066"/>
      <point x="151.4453125" y="879.0"/>
      <point x="422.0" y="879.0" type="curve" smooth="yes"/>
      <point x="711.0" y="879.0"/>
      <point x="807.0" y="682.0"/>
      <point x="909.0" y="682.0" type="curve" smooth="yes"/>
      <point x="950.872070312" y="682.0"/>
      <point x="963.198242188" y="701.389648438"/>
      <point x="970.895507812" y="743.0" type="curve" smooth="yes"/>
      <point x="981.436523438" y="799.982421875"/>
      <point x="1054.10644531" y="843.0"/>
      <point x="1131.0" y="843.0" type="curve" smooth="yes"/>
      <point x="1150.0" y="843.0" type="line" smooth="yes"/>
      <point x="1257.109375" y="843.0"/>
      <point x="1338.80847621" y="746.020380343"/>
      <point x="1309.890625" y="643.0" type="curve" smooth="yes"/>
      <point x="1279.59649222" y="535.076591097"/>
      <point x="1179.28125" y="332.0"/>
      <point x="909.0" y="332.0" type="curve" smooth="yes"/>
      <point x="620.0" y="332.0"/>
      <point x="524.0" y="519.0"/>
    </contour>
  </outline>
</glyph>
<glyph name="exclamdown" format="2">
  <advance height="1920" width="740"/>
  <unicode hex="00A1"/>
  <outline>
    <contour>
      <point x="355.0" y="1090.0" type="curve" smooth="yes"/>
      <point x="385.0" y="1090.0" type="line" smooth="yes"/>
      <point x="562.0" y="1090.0"/>
      <point x="665.0" y="987.0"/>
      <point x="665.0" y="840.0" type="curve" smooth="yes"/>
      <point x="665.0" y="800.0" type="line" smooth="yes"/>
      <point x="665.0" y="653.0"/>
      <point x="562.0" y="550.0"/>
      <point x="385.0" y="550.0" type="curve" smooth="yes"/>
      <point x="355.0" y="550.0" type="line" smooth="yes"/>
      <point x="178.0" y="550.0"/>
      <point x="75.0" y="653.0"/>
      <point x="75.0" y="800.0" type="curve" smooth="yes"/>
      <point x="75.0" y="840.0" type="line" smooth="yes"/>
      <point x="75.0" y="987.0"/>
      <point x="178.0" y="1090.0"/>
    </contour>
    <contour>
      <point x="675.0" y="-130.0" type="curve" smooth="yes"/>
      <point x="675.0" y="-160.0" type="line" smooth="yes"/>
      <point x="675.0" y="-317.0"/>
      <point x="542.0" y="-430.0"/>
      <point x="385.0" y="-430.0" type="curve" smooth="yes"/>
      <point x="355.0" y="-430.0" type="line" smooth="yes"/>
      <point x="198.0" y="-430.0"/>
      <point x="65.0" y="-317.0"/>
      <point x="65.0" y="-160.0" type="curve" smooth="yes"/>
      <point x="65.0" y="-130.0" type="line" smooth="yes"/>
      <point x="65.0" y="-23.0"/>
      <point x="81.7822265625" y="54.45703125"/>
      <point x="136.0" y="190.0" type="curve" smooth="yes"/>
      <point x="215.0" y="390.0" type="line" smooth="yes"/>
      <point x="251.637695312" y="482.75390625"/>
      <point x="288.0" y="520.0"/>
      <point x="365.0" y="520.0" type="curve" smooth="yes"/>
      <point x="375.0" y="520.0" type="line" smooth="yes"/>
      <point x="452.0" y="520.0"/>
      <point x="488.362304688" y="482.75390625"/>
      <point x="525.0" y="390.0" type="curve" smooth="yes"/>
      <point x="604.0" y="190.0" type="line" smooth="yes"/>
      <point x="658.217773438" y="54.45703125"/>
      <point x="675.0" y="-23.0"/>
    </contour>
  </outline>
</glyph>
<glyph name="cent" format="2">
  <advance height="1920" width="1130"/>
  <unicode hex="00A2"/>
  <outline>
    <contour>
      <point x="655.392578125" y="1240.0" type="curve" smooth="yes"/>
      <point x="665.392578125" y="1240.0" type="line" smooth="yes"/>
      <point x="682.392578125" y="1240.0"/>
      <point x="700.392578125" y="1227.0"/>
      <point x="700.392578125" y="1190.0" type="curve" smooth="yes"/>
      <point x="700.392578125" y="-140.0" type="line" smooth="yes"/>
      <point x="700.392578125" y="-177.0"/>
      <point x="682.392578125" y="-190.0"/>
      <point x="665.392578125" y="-190.0" type="curve" smooth="yes"/>
      <point x="655.392578125" y="-190.0" type="line" smooth="yes"/>
      <point x="638.392578125" y="-190.0"/>
      <point x="620.392578125" y="-177.0"/>
      <point x="620.392578125" y="-140.0" type="curve" smooth="yes"/>
      <point x="620.392578125" y="1190.0" type="line" smooth="yes"/>
      <point x="620.392578125" y="1227.0"/>
      <point x="638.392578125" y="1240.0"/>
    </contour>
    <component base="c"/>
  </outline>
</glyph>
<glyph name="sterling" format="2">
  <advance height="1920" width="1420"/>
  <unicode hex="00A3"/>
  <outline>
    <contour>
      <point x="10.0" y="685.0" type="curve" smooth="yes"/>
      <point x="10.0" y="700.0" type="line" smooth="yes"/>
      <point x="10.0" y="807.0"/>
      <point x="93.0" y="850.0"/>
      <point x="200.0" y="850.0" type="curve" smooth="yes"/>
      <point x="890.0" y="850.0" type="line" smooth="yes"/>
      <point x="997.0" y="850.0"/>
      <point x="1080.0" y="807.0"/>
      <point x="1080.0" y="700.0" type="curve" smooth="yes"/>
      <point x="1080.0" y="685.0" type="line" smooth="yes"/>
      <point x="1080.0" y="578.0"/>
      <point x="997.0" y="535.0"/>
      <point x="890.0" y="535.0" type="curve" smooth="yes"/>
      <point x="200.0" y="535.0" type="line" smooth="yes"/>
      <point x="93.0" y="535.0"/>
      <point x="10.0" y="578.0"/>
    </contour>
    <contour>
      <point x="154.0" y="392.0" type="curve" smooth="yes"/>
      <point x="243.516601562" y="440.288085938"/>
      <point x="318.0" y="495.0"/>
      <point x="318.0" y="614.35546875" type="curve" smooth="yes"/>
      <point x="318.0" y="792.5078125"/>
      <point x="130.0" y="794.966796875"/>
      <point x="130.0" y="1043.0" type="curve" smooth="yes"/>
      <point x="130.0" y="1273.0"/>
      <point x="378.0" y="1435.0"/>
      <point x="715.0" y="1435.0" type="curve" smooth="yes"/>
      <point x="1059.171875" y="1435.0"/>
      <point x="1242.43341306" y="1267.7373285"/>
      <point x="1289.68945312" y="1121.0" type="curve" smooth="yes"/>
      <point x="1335.39354632" y="979.081707064"/>
      <point x="1227.04394531" y="913.0"/>
      <point x="1090.0" y="913.0" type="curve" smooth="yes"/>
      <point x="1080.0" y="913.0" type="line" smooth="yes"/>
      <point x="973.072265625" y="913.0"/>
      <point x="879.74609375" y="963.041015625"/>
      <point x="848.927734375" y="1031.0" type="curve" smooth="yes"/>
      <point x="833.942382812" y="1064.04589844"/>
      <point x="789.612304688" y="1095.0"/>
      <point x="735.0" y="1095.0" type="curve" smooth="yes"/>
      <point x="658.0" y="1095.0"/>
      <point x="610.0" y="1063.0"/>
      <point x="610.0" y="993.0" type="curve" smooth="yes"/>
      <point x="610.0" y="871.723632812"/>
      <point x="778.0" y="850.0"/>
      <point x="778.0" y="644.35546875" type="curve" smooth="yes"/>
      <point x="778.0" y="472.653320312"/>
      <point x="647.922851562" y="411.385742188"/>
      <point x="528.950195312" y="355.0" type="curve"/>
      <point x="1110.0" y="355.0" type="line" smooth="yes"/>
      <point x="1267.0" y="355.0"/>
      <point x="1360.0" y="297.0"/>
      <point x="1360.0" y="180.0" type="curve" smooth="yes"/>
      <point x="1360.0" y="175.0" type="line" smooth="yes"/>
      <point x="1360.0" y="58.0"/>
      <point x="1267.0" y="-1.92269547466e-14"/>
      <point x="1110.0" y="0.0" type="curve" smooth="yes"/>
      <point x="280.0" y="0.0" type="line" smooth="yes"/>
      <point x="123.0" y="0.0"/>
      <point x="40.0" y="83.0"/>
      <point x="40.0" y="180.0" type="curve" smooth="yes"/>
      <point x="40.0" y="205.0" type="line" smooth="yes"/>
      <point x="40.0" y="289.28125"/>
      <point x="54.2413366895" y="338.18702204"/>
    </contour>
  </outline>
</glyph>
<glyph name="currency" format="2">
  <advance width="1112"/>
  <unicode hex="00A4"/>
  <outline>
    <contour>
      <point x="1023.0" y="1182.0" type="curve" smooth="yes"/>
      <point x="1039.0" y="1167.0" type="line" smooth="yes"/>
      <point x="1115.0" y="1091.0"/>
      <point x="1086.0" y="1002.0"/>
      <point x="1010.0" y="926.0" type="curve" smooth="yes"/>
      <point x="954.0" y="870.0" type="line" smooth="yes"/>
      <point x="949.0" y="865.0"/>
      <point x="945.0" y="865.0"/>
      <point x="940.0" y="870.0" type="curve" smooth="yes"/>
      <point x="712.0" y="1098.0" type="line" smooth="yes"/>
      <point x="707.0" y="1103.0"/>
      <point x="707.0" y="1107.0"/>
      <point x="712.0" y="1112.0" type="curve" smooth="yes"/>
      <point x="768.0" y="1168.0" type="line" smooth="yes"/>
      <point x="844.0" y="1244.0"/>
      <point x="947.0" y="1258.0"/>
    </contour>
    <contour>
      <point x="160.0" y="546.0" type="curve" smooth="yes"/>
      <point x="388.0" y="318.0" type="line" smooth="yes"/>
      <point x="393.0" y="313.0"/>
      <point x="393.0" y="309.0"/>
      <point x="388.0" y="304.0" type="curve" smooth="yes"/>
      <point x="332.0" y="248.0" type="line" smooth="yes"/>
      <point x="256.0" y="172.0"/>
      <point x="167.0" y="143.0"/>
      <point x="91.0" y="219.0" type="curve" smooth="yes"/>
      <point x="76.0" y="235.0" type="line" smooth="yes"/>
      <point x="0.0" y="311.0"/>
      <point x="14.0" y="414.0"/>
      <point x="90.0" y="490.0" type="curve" smooth="yes"/>
      <point x="146.0" y="546.0" type="line" smooth="yes"/>
      <point x="151.0" y="551.0"/>
      <point x="155.0" y="551.0"/>
    </contour>
    <contour>
      <point x="68.0" y="1173.0" type="curve" smooth="yes"/>
      <point x="84.0" y="1190.0" type="line" smooth="yes"/>
      <point x="160.0" y="1266.0"/>
      <point x="256.0" y="1244.0"/>
      <point x="332.0" y="1168.0" type="curve" smooth="yes"/>
      <point x="388.0" y="1112.0" type="line" smooth="yes"/>
      <point x="393.0" y="1107.0"/>
      <point x="393.0" y="1103.0"/>
      <point x="388.0" y="1098.0" type="curve" smooth="yes"/>
      <point x="160.0" y="869.0" type="line" smooth="yes"/>
      <point x="155.0" y="864.0"/>
      <point x="151.0" y="864.0"/>
      <point x="146.0" y="869.0" type="curve" smooth="yes"/>
      <point x="89.0" y="926.0" type="line" smooth="yes"/>
      <point x="13.0" y="1002.0"/>
      <point x="-8.0" y="1097.0"/>
    </contour>
    <contour>
      <point x="711.0" y="318.0" type="curve" smooth="yes"/>
      <point x="870.0" y="476.0" type="line" smooth="yes"/>
      <point x="875.0" y="481.0"/>
      <point x="949.0" y="551.0"/>
      <point x="954.0" y="546.0" type="curve" smooth="yes"/>
      <point x="1010.0" y="490.0" type="line" smooth="yes"/>
      <point x="1086.0" y="414.0"/>
      <point x="1108.0" y="318.0"/>
      <point x="1032.0" y="242.0" type="curve" smooth="yes"/>
      <point x="1015.0" y="226.0" type="line" smooth="yes"/>
      <point x="939.0" y="150.0"/>
      <point x="844.0" y="171.0"/>
      <point x="768.0" y="247.0" type="curve" smooth="yes"/>
      <point x="711.0" y="304.0" type="line" smooth="yes"/>
      <point x="706.0" y="309.0"/>
      <point x="706.0" y="313.0"/>
    </contour>
    <contour>
      <point x="63.0" y="710.0" type="curve" smooth="yes"/>
      <point x="63.0" y="979.0"/>
      <point x="284.0" y="1200.0"/>
      <point x="553.0" y="1200.0" type="curve" smooth="yes"/>
      <point x="822.0" y="1200.0"/>
      <point x="1043.0" y="979.0"/>
      <point x="1043.0" y="710.0" type="curve" smooth="yes"/>
      <point x="1043.0" y="441.0"/>
      <point x="822.0" y="220.0"/>
      <point x="553.0" y="220.0" type="curve" smooth="yes"/>
      <point x="284.0" y="220.0"/>
      <point x="63.0" y="441.0"/>
    </contour>
    <contour>
      <point x="423.0" y="710.0" type="curve" smooth="yes"/>
      <point x="423.0" y="621.0"/>
      <point x="464.0" y="570.0"/>
      <point x="553.0" y="570.0" type="curve" smooth="yes"/>
      <point x="642.0" y="570.0"/>
      <point x="683.0" y="621.0"/>
      <point x="683.0" y="710.0" type="curve" smooth="yes"/>
      <point x="683.0" y="799.0"/>
      <point x="642.0" y="850.0"/>
      <point x="553.0" y="850.0" type="curve" smooth="yes"/>
      <point x="464.0" y="850.0"/>
      <point x="423.0" y="799.0"/>
    </contour>
  </outline>
</glyph>
<glyph name="yen" format="2">
  <advance height="1920" width="1490"/>
  <unicode hex="00A5"/>
  <outline>
    <contour>
      <point x="145.0390625" y="335.0" type="curve" smooth="yes"/>
      <point x="145.0390625" y="340.0" type="line" smooth="yes"/>
      <point x="145.0390625" y="377.0"/>
      <point x="178.0390625" y="400.0"/>
      <point x="255.0390625" y="400.0" type="curve" smooth="yes"/>
      <point x="1225.0390625" y="400.0" type="line" smooth="yes"/>
      <point x="1302.0390625" y="400.0"/>
      <point x="1335.0390625" y="377.0"/>
      <point x="1335.0390625" y="340.0" type="curve" smooth="yes"/>
      <point x="1335.0390625" y="335.0" type="line" smooth="yes"/>
      <point x="1335.0390625" y="298.0"/>
      <point x="1302.0390625" y="275.0"/>
      <point x="1225.0390625" y="275.0" type="curve" smooth="yes"/>
      <point x="255.0390625" y="275.0" type="line" smooth="yes"/>
      <point x="178.0390625" y="275.0"/>
      <point x="145.0390625" y="298.0"/>
    </contour>
    <contour>
      <point x="145.0390625" y="605.0" type="curve" smooth="yes"/>
      <point x="145.0390625" y="610.0" type="line" smooth="yes"/>
      <point x="145.0390625" y="647.0"/>
      <point x="178.0390625" y="670.0"/>
      <point x="255.0390625" y="670.0" type="curve" smooth="yes"/>
      <point x="1225.0390625" y="670.0" type="line" smooth="yes"/>
      <point x="1302.0390625" y="670.0"/>
      <point x="1335.0390625" y="647.0"/>
      <point x="1335.0390625" y="610.0" type="curve" smooth="yes"/>
      <point x="1335.0390625" y="605.0" type="line" smooth="yes"/>
      <point x="1335.0390625" y="568.0"/>
      <point x="1302.0390625" y="545.0"/>
      <point x="1225.0390625" y="545.0" type="curve" smooth="yes"/>
      <point x="255.0390625" y="545.0" type="line" smooth="yes"/>
      <point x="178.0390625" y="545.0"/>
      <point x="145.0390625" y="568.0"/>
    </contour>
    <component base="Y"/>
  </outline>
</glyph>
<glyph name="brokenbar" format="2">
  <advance height="1920" width="515"/>
  <unicode hex="00A6"/>
  <outline>
    <contour>
      <point x="248.0" y="460.0" type="curve" smooth="yes"/>
      <point x="268.0" y="460.0" type="line" smooth="yes"/>
      <point x="375.0" y="460.0"/>
      <point x="438.0" y="337.0"/>
      <point x="438.0" y="220.0" type="curve" smooth="yes"/>
      <point x="438.0" y="-150.0" type="line" smooth="yes"/>
      <point x="438.0" y="-257.0"/>
      <point x="375.0" y="-390.0"/>
      <point x="268.0" y="-390.0" type="curve" smooth="yes"/>
      <point x="248.0" y="-390.0" type="line" smooth="yes"/>
      <point x="141.0" y="-390.0"/>
      <point x="78.0" y="-257.0"/>
      <point x="78.0" y="-150.0" type="curve" smooth="yes"/>
      <point x="78.0" y="220.0" type="line" smooth="yes"/>
      <point x="78.0" y="337.0"/>
      <point x="141.0" y="460.0"/>
    </contour>
    <contour>
      <point x="248.0" y="1630.0" type="curve" smooth="yes"/>
      <point x="268.0" y="1630.0" type="line" smooth="yes"/>
      <point x="375.0" y="1630.0"/>
      <point x="438.0" y="1507.0"/>
      <point x="438.0" y="1390.0" type="curve" smooth="yes"/>
      <point x="438.0" y="1020.0" type="line" smooth="yes"/>
      <point x="438.0" y="913.0"/>
      <point x="375.0" y="780.0"/>
      <point x="268.0" y="780.0" type="curve" smooth="yes"/>
      <point x="248.0" y="780.0" type="line" smooth="yes"/>
      <point x="141.0" y="780.0"/>
      <point x="78.0" y="913.0"/>
      <point x="78.0" y="1020.0" type="curve" smooth="yes"/>
      <point x="78.0" y="1390.0" type="line" smooth="yes"/>
      <point x="78.0" y="1507.0"/>
      <point x="141.0" y="1630.0"/>
    </contour>
  </outline>
</glyph>
